<svg width="389" height="177" viewBox="0 0 389 177" fill="none" xmlns="http://www.w3.org/2000/svg">
<path d="M89.28 68.92C91.2 64.6 92.16 60.04 92.16 55.24C92.16 50.44 91.2 45.96 89.28 41.8C87.52 37.48 85.04 33.72 81.84 30.52C78.64 27.32 74.8 24.84 70.32 23.08C66 21.16 61.2 20.2 55.92 20.2C50.64 20.2 45.76 21.16 41.28 23.08C36.96 24.84 33.2 27.32 30 30.52C26.8 33.72 24.24 37.48 22.32 41.8C20.56 45.96 19.68 50.44 19.68 55.24C19.68 60.04 20.56 64.6 22.32 68.92C24.24 73.08 26.8 76.76 30 79.96C33.2 83.16 36.96 85.72 41.28 87.64C45.76 89.4 50.64 90.28 55.92 90.28C61.2 90.28 66 89.4 70.32 87.64C74.8 85.72 78.64 83.16 81.84 79.96C85.04 76.76 87.52 73.08 89.28 68.92ZM71.04 109C69.28 109.48 67.2 109.88 64.8 110.2C62.4 110.36 60 110.44 57.6 110.44C48.32 110.44 40.08 108.92 32.88 105.88C25.84 102.84 19.92 98.84 15.12 93.88C10.32 88.76 6.72 82.92 4.32 76.36C1.92 69.8 0.720001 63 0.720001 55.96C0.720001 48.12 2.16 40.84 5.04 34.12C8.08 27.24 12.08 21.32 17.04 16.36C22.16 11.24 28.08 7.24 34.8 4.35999C41.52 1.47999 48.56 0.0399923 55.92 0.0399923C63.76 0.0399923 71.04 1.47999 77.76 4.35999C84.48 7.24 90.24 11.16 95.04 16.12C100 21.08 103.84 27 106.56 33.88C109.28 40.6 110.64 47.88 110.64 55.72C110.64 65 108.96 73.96 105.6 82.6C102.24 91.24 98.48 99.16 94.32 106.36L54 175H32.64L71.04 109ZM215.149 68.92C217.069 64.6 218.029 60.04 218.029 55.24C218.029 50.44 217.069 45.96 215.149 41.8C213.389 37.48 210.909 33.72 207.709 30.52C204.509 27.32 200.669 24.84 196.189 23.08C191.869 21.16 187.069 20.2 181.789 20.2C176.509 20.2 171.629 21.16 167.149 23.08C162.829 24.84 159.069 27.32 155.869 30.52C152.669 33.72 150.109 37.48 148.189 41.8C146.429 45.96 145.549 50.44 145.549 55.24C145.549 60.04 146.429 64.6 148.189 68.92C150.109 73.08 152.669 76.76 155.869 79.96C159.069 83.16 162.829 85.72 167.149 87.64C171.629 89.4 176.509 90.28 181.789 90.28C187.069 90.28 191.869 89.4 196.189 87.64C200.669 85.72 204.509 83.16 207.709 79.96C210.909 76.76 213.389 73.08 215.149 68.92ZM196.909 109C195.149 109.48 193.069 109.88 190.669 110.2C188.269 110.36 185.869 110.44 183.469 110.44C174.189 110.44 165.949 108.92 158.749 105.88C151.709 102.84 145.789 98.84 140.989 93.88C136.189 88.76 132.589 82.92 130.189 76.36C127.789 69.8 126.589 63 126.589 55.96C126.589 48.12 128.029 40.84 130.909 34.12C133.949 27.24 137.949 21.32 142.909 16.36C148.029 11.24 153.949 7.24 160.669 4.35999C167.389 1.47999 174.429 0.0399923 181.789 0.0399923C189.629 0.0399923 196.909 1.47999 203.629 4.35999C210.349 7.24 216.109 11.16 220.909 16.12C225.869 21.08 229.709 27 232.429 33.88C235.149 40.6 236.509 47.88 236.509 55.72C236.509 65 234.829 73.96 231.469 82.6C228.109 91.24 224.349 99.16 220.189 106.36L179.869 175H158.509L196.909 109ZM273.038 175L347.378 45.76H363.218L288.878 175H273.038ZM278.798 105.52C274.238 105.52 270.038 104.74 266.198 103.18C262.478 101.5 259.238 99.28 256.478 96.52C253.838 93.64 251.738 90.34 250.178 86.62C248.618 82.9 247.838 78.94 247.838 74.74C247.838 70.54 248.618 66.58 250.178 62.86C251.738 59.14 253.838 55.9 256.478 53.14C259.238 50.26 262.478 48.04 266.198 46.48C270.038 44.8 274.238 43.96 278.798 43.96C283.238 43.96 287.378 44.8 291.218 46.48C295.058 48.04 298.298 50.26 300.938 53.14C303.698 55.9 305.858 59.14 307.418 62.86C308.978 66.58 309.758 70.54 309.758 74.74C309.758 78.94 308.978 82.9 307.418 86.62C305.858 90.34 303.698 93.64 300.938 96.52C298.298 99.28 295.058 101.5 291.218 103.18C287.378 104.74 283.238 105.52 278.798 105.52ZM278.798 57.64C276.038 57.64 273.578 58.12 271.418 59.08C269.258 60.04 267.338 61.3 265.658 62.86C264.098 64.42 262.898 66.22 262.058 68.26C261.218 70.3 260.798 72.46 260.798 74.74C260.798 77.02 261.218 79.18 262.058 81.22C262.898 83.26 264.098 85.06 265.658 86.62C267.338 88.18 269.258 89.44 271.418 90.4C273.578 91.36 276.038 91.84 278.798 91.84C281.438 91.84 283.838 91.36 285.998 90.4C288.278 89.44 290.198 88.18 291.758 86.62C293.438 85.06 294.698 83.26 295.538 81.22C296.378 79.18 296.798 77.02 296.798 74.74C296.798 72.46 296.378 70.3 295.538 68.26C294.698 66.22 293.438 64.42 291.758 62.86C290.198 61.3 288.278 60.04 285.998 59.08C283.838 58.12 281.438 57.64 278.798 57.64ZM357.458 176.8C352.898 176.8 348.698 176.02 344.858 174.46C341.138 172.78 337.898 170.56 335.138 167.8C332.498 164.92 330.398 161.62 328.838 157.9C327.278 154.18 326.498 150.22 326.498 146.02C326.498 141.82 327.278 137.86 328.838 134.14C330.398 130.42 332.498 127.18 335.138 124.42C337.898 121.54 341.138 119.32 344.858 117.76C348.698 116.08 352.898 115.24 357.458 115.24C361.898 115.24 366.038 116.08 369.878 117.76C373.718 119.32 376.958 121.54 379.598 124.42C382.358 127.18 384.518 130.42 386.078 134.14C387.638 137.86 388.418 141.82 388.418 146.02C388.418 150.22 387.638 154.18 386.078 157.9C384.518 161.62 382.358 164.92 379.598 167.8C376.958 170.56 373.718 172.78 369.878 174.46C366.038 176.02 361.898 176.8 357.458 176.8ZM357.458 128.92C354.698 128.92 352.238 129.4 350.078 130.36C347.918 131.32 345.998 132.58 344.318 134.14C342.758 135.7 341.558 137.5 340.718 139.54C339.878 141.58 339.458 143.74 339.458 146.02C339.458 148.3 339.878 150.46 340.718 152.5C341.558 154.54 342.758 156.34 344.318 157.9C345.998 159.46 347.918 160.72 350.078 161.68C352.238 162.64 354.698 163.12 357.458 163.12C360.098 163.12 362.498 162.64 364.658 161.68C366.938 160.72 368.858 159.46 370.418 157.9C372.098 156.34 373.358 154.54 374.198 152.5C375.038 150.46 375.458 148.3 375.458 146.02C375.458 143.74 375.038 141.58 374.198 139.54C373.358 137.5 372.098 135.7 370.418 134.14C368.858 132.58 366.938 131.32 364.658 130.36C362.498 129.4 360.098 128.92 357.458 128.92Z" fill="#1B2AC9"/>
<path d="M89.28 68.92L85.6248 67.2954L85.6102 67.3283L85.5961 67.3614L89.28 68.92ZM89.28 41.8L85.5756 43.3092L85.61 43.3935L85.6482 43.4762L89.28 41.8ZM81.84 30.52L84.6684 27.6916L84.6684 27.6916L81.84 30.52ZM70.32 23.08L68.6954 26.7352L68.7757 26.7709L68.8574 26.803L70.32 23.08ZM41.28 23.08L42.7892 26.7844L42.8226 26.7708L42.8557 26.7566L41.28 23.08ZM30 30.52L27.1716 27.6916L27.1716 27.6916L30 30.52ZM22.32 41.8L18.6648 40.1754L18.6501 40.2083L18.6361 40.2414L22.32 41.8ZM22.32 68.92L18.6156 70.4292L18.65 70.5135L18.6882 70.5962L22.32 68.92ZM30 79.96L32.8284 77.1316L32.8284 77.1316L30 79.96ZM41.28 87.64L39.6555 91.2952L39.7357 91.3309L39.8174 91.363L41.28 87.64ZM70.32 87.64L71.8292 91.3444L71.8626 91.3308L71.8957 91.3166L70.32 87.64ZM71.04 109L74.4974 111.012L79.4078 102.572L69.9875 105.141L71.04 109ZM64.8 110.2L65.0661 114.191L65.1978 114.182L65.3287 114.165L64.8 110.2ZM32.88 105.88L31.2943 109.552L31.3092 109.559L31.3241 109.565L32.88 105.88ZM15.12 93.88L12.2019 96.6158L12.2235 96.6389L12.2456 96.6617L15.12 93.88ZM5.04 34.12L1.38125 32.5033L1.37222 32.5238L1.36342 32.5443L5.04 34.12ZM17.04 16.36L19.8684 19.1884L19.8684 19.1884L17.04 16.36ZM34.8 4.35999L33.2243 0.683414V0.683414L34.8 4.35999ZM95.04 16.12L92.1656 18.9017L92.1884 18.9252L92.2116 18.9484L95.04 16.12ZM106.56 33.88L102.84 35.3506L102.846 35.3657L102.852 35.3808L106.56 33.88ZM105.6 82.6L101.872 81.1502L105.6 82.6ZM94.32 106.36L97.769 108.386L97.7763 108.374L97.7835 108.361L94.32 106.36ZM54 175V179H56.2894L57.449 177.026L54 175ZM32.64 175L29.1826 172.988L25.685 179H32.64V175ZM92.9352 70.5445C95.0861 65.7051 96.16 60.5908 96.16 55.24H88.16C88.16 59.4892 87.3139 63.4949 85.6248 67.2954L92.9352 70.5445ZM96.16 55.24C96.16 49.8894 95.086 44.8343 92.9118 40.1238L85.6482 43.4762C87.3141 47.0857 88.16 50.9906 88.16 55.24H96.16ZM92.9844 40.2908C91.0296 35.4926 88.2571 31.2802 84.6684 27.6916L79.0116 33.3484C81.8229 36.1598 84.0105 39.4674 85.5756 43.3092L92.9844 40.2908ZM84.6684 27.6916C81.0551 24.0783 76.7415 21.3051 71.7826 19.357L68.8574 26.803C72.8585 28.3749 76.2249 30.5617 79.0116 33.3484L84.6684 27.6916ZM71.9446 19.4248C67.0564 17.2522 61.694 16.2 55.92 16.2V24.2C60.706 24.2 64.9436 25.0678 68.6954 26.7352L71.9446 19.4248ZM55.92 16.2C50.1439 16.2 44.7225 17.2528 39.7043 19.4034L42.8557 26.7566C46.7975 25.0672 51.1361 24.2 55.92 24.2V16.2ZM39.7708 19.3756C34.9726 21.3304 30.7602 24.1029 27.1716 27.6916L32.8284 33.3484C35.6398 30.5371 38.9474 28.3495 42.7892 26.7844L39.7708 19.3756ZM27.1716 27.6916C23.609 31.2541 20.7751 35.4271 18.6648 40.1754L25.9752 43.4246C27.7049 39.5329 29.991 36.1859 32.8284 33.3484L27.1716 27.6916ZM18.6361 40.2414C16.6546 44.925 15.68 49.9386 15.68 55.24H23.68C23.68 50.9414 24.4654 46.995 26.0039 43.3586L18.6361 40.2414ZM15.68 55.24C15.68 60.5421 16.6547 65.616 18.6156 70.4292L26.0244 67.4108C24.4653 63.584 23.68 59.5379 23.68 55.24H15.68ZM18.6882 70.5962C20.8034 75.1792 23.6337 79.2505 27.1716 82.7884L32.8284 77.1316C29.9663 74.2694 27.6766 70.9808 25.9518 67.2438L18.6882 70.5962ZM27.1716 82.7884C30.7341 86.3509 34.9071 89.1849 39.6555 91.2952L42.9046 83.9847C39.0129 82.2551 35.6659 79.969 32.8284 77.1316L27.1716 82.7884ZM39.8174 91.363C44.8065 93.323 50.1881 94.28 55.92 94.28V86.28C51.0919 86.28 46.7135 85.477 42.7426 83.917L39.8174 91.363ZM55.92 94.28C61.6496 94.28 66.9709 93.3237 71.8292 91.3444L68.8108 83.9356C65.0291 85.4763 60.7505 86.28 55.92 86.28V94.28ZM71.8957 91.3166C76.8071 89.2117 81.0817 86.3752 84.6684 82.7884L79.0116 77.1316C76.1983 79.9448 72.7929 82.2283 68.7443 83.9634L71.8957 91.3166ZM84.6684 82.7884C88.232 79.2249 91.0028 75.1139 92.9639 70.4786L85.5961 67.3614C84.0372 71.0461 81.848 74.2951 79.0116 77.1316L84.6684 82.7884ZM69.9875 105.141C68.4447 105.562 66.548 105.932 64.2713 106.235L65.3287 114.165C67.852 113.828 70.1153 113.398 72.0925 112.859L69.9875 105.141ZM64.5339 106.209C62.2223 106.363 59.911 106.44 57.6 106.44V114.44C60.089 114.44 62.5777 114.357 65.0661 114.191L64.5339 106.209ZM57.6 106.44C48.7561 106.44 41.0603 104.992 34.4359 102.195L31.3241 109.565C39.0997 112.848 47.8839 114.44 57.6 114.44V106.44ZM34.4657 102.208C27.856 99.3535 22.3891 95.6395 17.9944 91.0983L12.2456 96.6617C17.4509 102.041 23.824 106.326 31.2943 109.552L34.4657 102.208ZM18.0381 91.1442C13.6046 86.4151 10.2906 81.0376 8.07649 74.9857L0.563509 77.7343C3.14938 84.8024 7.03542 91.1049 12.2019 96.6158L18.0381 91.1442ZM8.07649 74.9857C5.83886 68.8695 4.72 62.5349 4.72 55.96H-3.28C-3.28 63.4651 -1.99886 70.7305 0.563509 77.7343L8.07649 74.9857ZM4.72 55.96C4.72 48.622 6.06507 41.8825 8.71658 35.6957L1.36342 32.5443C-1.74507 39.7975 -3.28 47.618 -3.28 55.96H4.72ZM8.69875 35.7367C11.5537 29.2755 15.2822 23.7746 19.8684 19.1884L14.2116 13.5316C8.8778 18.8653 4.60631 25.2045 1.38125 32.5033L8.69875 35.7367ZM19.8684 19.1884C24.625 14.4318 30.1188 10.7181 36.3757 8.03657L33.2243 0.683414C26.0413 3.76187 19.695 8.04817 14.2116 13.5316L19.8684 19.1884ZM36.3757 8.03657C42.5944 5.37143 49.098 4.03999 55.92 4.03999V-3.96001C48.022 -3.96001 40.4456 -2.41144 33.2243 0.683414L36.3757 8.03657ZM55.92 4.03999C63.258 4.03999 69.9975 5.38506 76.1843 8.03657L79.3357 0.683414C72.0826 -2.42507 64.262 -3.96001 55.92 -3.96001V4.03999ZM76.1843 8.03657C82.4457 10.72 87.7564 14.3455 92.1656 18.9017L97.9144 13.3383C92.7236 7.97448 86.5144 3.75999 79.3357 0.683414L76.1843 8.03657ZM92.2116 18.9484C96.7637 23.5006 100.31 28.9511 102.84 35.3506L110.28 32.4094C107.37 25.0489 103.236 18.6594 97.8684 13.2916L92.2116 18.9484ZM102.852 35.3808C105.364 41.5863 106.64 48.3522 106.64 55.72H114.64C114.64 47.4078 113.196 39.6137 110.268 32.3792L102.852 35.3808ZM106.64 55.72C106.64 64.5046 105.052 72.9729 101.872 81.1502L109.328 84.0498C112.868 74.9471 114.64 65.4954 114.64 55.72H106.64ZM101.872 81.1502C98.5777 89.6213 94.9036 97.3544 90.8565 104.359L97.7835 108.361C102.056 100.966 105.902 92.8587 109.328 84.0498L101.872 81.1502ZM90.871 104.334L50.551 172.974L57.449 177.026L97.769 108.386L90.871 104.334ZM54 171H32.64V179H54V171ZM36.0974 177.012L74.4974 111.012L67.5826 106.988L29.1826 172.988L36.0974 177.012ZM215.149 68.92L211.494 67.2954L211.479 67.3283L211.465 67.3614L215.149 68.92ZM215.149 41.8L211.444 43.3092L211.479 43.3935L211.517 43.4762L215.149 41.8ZM207.709 30.52L210.537 27.6916V27.6916L207.709 30.52ZM196.189 23.08L194.564 26.7352L194.644 26.7709L194.726 26.803L196.189 23.08ZM167.149 23.08L168.658 26.7844L168.691 26.7708L168.724 26.7566L167.149 23.08ZM155.869 30.52L153.04 27.6916V27.6916L155.869 30.52ZM148.189 41.8L144.534 40.1754L144.519 40.2083L144.505 40.2414L148.189 41.8ZM148.189 68.92L144.484 70.4292L144.519 70.5135L144.557 70.5962L148.189 68.92ZM155.869 79.96L158.697 77.1316L158.697 77.1316L155.869 79.96ZM167.149 87.64L165.524 91.2952L165.604 91.3309L165.686 91.363L167.149 87.64ZM196.189 87.64L197.698 91.3444L197.731 91.3308L197.764 91.3166L196.189 87.64ZM196.909 109L200.366 111.012L205.277 102.572L195.856 105.141L196.909 109ZM190.669 110.2L190.935 114.191L191.067 114.182L191.197 114.165L190.669 110.2ZM158.749 105.88L157.163 109.552L157.178 109.559L157.193 109.565L158.749 105.88ZM140.989 93.88L138.071 96.6158L138.092 96.6389L138.114 96.6617L140.989 93.88ZM130.909 34.12L127.25 32.5033L127.241 32.5238L127.232 32.5443L130.909 34.12ZM142.909 16.36L145.737 19.1884V19.1884L142.909 16.36ZM160.669 4.35999L159.093 0.683414V0.683414L160.669 4.35999ZM220.909 16.12L218.034 18.9017L218.057 18.9252L218.08 18.9484L220.909 16.12ZM232.429 33.88L228.709 35.3506L228.715 35.3657L228.721 35.3808L232.429 33.88ZM231.469 82.6L227.741 81.1502L231.469 82.6ZM220.189 106.36L223.638 108.386L223.645 108.374L223.652 108.361L220.189 106.36ZM179.869 175V179H182.158L183.318 177.026L179.869 175ZM158.509 175L155.051 172.988L151.554 179H158.509V175ZM218.804 70.5445C220.955 65.7051 222.029 60.5908 222.029 55.24H214.029C214.029 59.4892 213.183 63.4949 211.494 67.2954L218.804 70.5445ZM222.029 55.24C222.029 49.8894 220.955 44.8343 218.781 40.1238L211.517 43.4762C213.183 47.0857 214.029 50.9906 214.029 55.24H222.029ZM218.853 40.2908C216.898 35.4926 214.126 31.2802 210.537 27.6916L204.88 33.3484C207.692 36.1598 209.879 39.4674 211.444 43.3092L218.853 40.2908ZM210.537 27.6916C206.924 24.0783 202.61 21.3051 197.651 19.357L194.726 26.803C198.727 28.3749 202.094 30.5617 204.88 33.3484L210.537 27.6916ZM197.813 19.4248C192.925 17.2522 187.563 16.2 181.789 16.2V24.2C186.575 24.2 190.812 25.0678 194.564 26.7352L197.813 19.4248ZM181.789 16.2C176.013 16.2 170.591 17.2528 165.573 19.4034L168.724 26.7566C172.666 25.0672 177.005 24.2 181.789 24.2V16.2ZM165.64 19.3756C160.841 21.3304 156.629 24.1029 153.04 27.6916L158.697 33.3484C161.509 30.5371 164.816 28.3495 168.658 26.7844L165.64 19.3756ZM153.04 27.6916C149.478 31.2541 146.644 35.4271 144.534 40.1754L151.844 43.4246C153.574 39.5329 155.86 36.1859 158.697 33.3484L153.04 27.6916ZM144.505 40.2414C142.523 44.925 141.549 49.9386 141.549 55.24H149.549C149.549 50.9414 150.334 46.995 151.873 43.3586L144.505 40.2414ZM141.549 55.24C141.549 60.5421 142.523 65.616 144.484 70.4292L151.893 67.4108C150.334 63.584 149.549 59.5379 149.549 55.24H141.549ZM144.557 70.5962C146.672 75.1792 149.502 79.2505 153.04 82.7884L158.697 77.1316C155.835 74.2694 153.545 70.9808 151.821 67.2438L144.557 70.5962ZM153.04 82.7884C156.603 86.3509 160.776 89.1849 165.524 91.2952L168.773 83.9847C164.882 82.2551 161.535 79.969 158.697 77.1316L153.04 82.7884ZM165.686 91.363C170.675 93.323 176.057 94.28 181.789 94.28V86.28C176.961 86.28 172.582 85.477 168.611 83.917L165.686 91.363ZM181.789 94.28C187.518 94.28 192.84 93.3237 197.698 91.3444L194.68 83.9356C190.898 85.4763 186.619 86.28 181.789 86.28V94.28ZM197.764 91.3166C202.676 89.2117 206.95 86.3752 210.537 82.7884L204.88 77.1316C202.067 79.9448 198.662 82.2283 194.613 83.9634L197.764 91.3166ZM210.537 82.7884C214.101 79.2249 216.872 75.1139 218.833 70.4786L211.465 67.3614C209.906 71.0461 207.717 74.2951 204.88 77.1316L210.537 82.7884ZM195.856 105.141C194.313 105.562 192.417 105.932 190.14 106.235L191.197 114.165C193.721 113.828 195.984 113.398 197.961 112.859L195.856 105.141ZM190.403 106.209C188.091 106.363 185.78 106.44 183.469 106.44V114.44C185.958 114.44 188.446 114.357 190.935 114.191L190.403 106.209ZM183.469 106.44C174.625 106.44 166.929 104.992 160.305 102.195L157.193 109.565C164.968 112.848 173.753 114.44 183.469 114.44V106.44ZM160.335 102.208C153.725 99.3535 148.258 95.6395 143.863 91.0983L138.114 96.6617C143.32 102.041 149.693 106.326 157.163 109.552L160.335 102.208ZM143.907 91.1442C139.473 86.4151 136.159 81.0376 133.945 74.9857L126.432 77.7343C129.018 84.8024 132.904 91.1049 138.071 96.6158L143.907 91.1442ZM133.945 74.9857C131.708 68.8695 130.589 62.5349 130.589 55.96H122.589C122.589 63.4651 123.87 70.7305 126.432 77.7343L133.945 74.9857ZM130.589 55.96C130.589 48.622 131.934 41.8825 134.585 35.6957L127.232 32.5443C124.124 39.7975 122.589 47.618 122.589 55.96H130.589ZM134.568 35.7367C137.422 29.2755 141.151 23.7746 145.737 19.1884L140.08 13.5316C134.747 18.8653 130.475 25.2045 127.25 32.5033L134.568 35.7367ZM145.737 19.1884C150.494 14.4318 155.988 10.7181 162.244 8.03657L159.093 0.683414C151.91 3.76187 145.564 8.04817 140.08 13.5316L145.737 19.1884ZM162.244 8.03657C168.463 5.37143 174.967 4.03999 181.789 4.03999V-3.96001C173.891 -3.96001 166.314 -2.41144 159.093 0.683414L162.244 8.03657ZM181.789 4.03999C189.127 4.03999 195.866 5.38506 202.053 8.03657L205.204 0.683414C197.951 -2.42507 190.131 -3.96001 181.789 -3.96001V4.03999ZM202.053 8.03657C208.314 10.72 213.625 14.3455 218.034 18.9017L223.783 13.3383C218.592 7.97448 212.383 3.75999 205.204 0.683414L202.053 8.03657ZM218.08 18.9484C222.632 23.5006 226.179 28.9511 228.709 35.3506L236.149 32.4094C233.239 25.0489 229.105 18.6594 223.737 13.2916L218.08 18.9484ZM228.721 35.3808C231.233 41.5863 232.509 48.3522 232.509 55.72H240.509C240.509 47.4078 239.065 39.6137 236.137 32.3792L228.721 35.3808ZM232.509 55.72C232.509 64.5046 230.921 72.9729 227.741 81.1502L235.197 84.0498C238.737 74.9471 240.509 65.4954 240.509 55.72H232.509ZM227.741 81.1502C224.446 89.6213 220.772 97.3544 216.725 104.359L223.652 108.361C227.925 100.966 231.771 92.8587 235.197 84.0498L227.741 81.1502ZM216.74 104.334L176.42 172.974L183.318 177.026L223.638 108.386L216.74 104.334ZM179.869 171H158.509V179H179.869V171ZM161.966 177.012L200.366 111.012L193.451 106.988L155.051 172.988L161.966 177.012ZM273.038 175L269.57 173.006L266.122 179H273.038V175ZM347.378 45.76V41.76H345.064L343.91 43.7656L347.378 45.76ZM363.217 45.76L366.685 47.7544L370.133 41.76H363.217V45.76ZM288.878 175V179H291.191L292.345 176.994L288.878 175ZM266.198 103.18L264.551 106.825L264.621 106.857L264.692 106.886L266.198 103.18ZM256.478 96.52L253.529 99.2229L253.588 99.287L253.649 99.3484L256.478 96.52ZM250.177 86.62L253.866 85.0731L250.177 86.62ZM256.478 53.14L253.59 50.3724L253.587 50.3751L256.478 53.14ZM266.198 46.48L267.744 50.1688L267.773 50.1569L267.801 50.1446L266.198 46.48ZM291.217 46.48L289.614 50.1446L289.663 50.1659L289.712 50.1859L291.217 46.48ZM300.938 53.14L297.989 55.8429L298.048 55.907L298.109 55.9684L300.938 53.14ZM307.418 86.62L303.729 85.0731L307.418 86.62ZM300.938 96.52L298.05 93.7524L298.047 93.7551L300.938 96.52ZM291.217 103.18L292.723 106.886L292.772 106.866L292.821 106.845L291.217 103.18ZM271.418 59.08L269.793 55.4247H269.793L271.418 59.08ZM265.658 62.86L262.936 59.9288L262.881 59.9792L262.829 60.0316L265.658 62.86ZM262.057 68.26L258.359 66.737V66.737L262.057 68.26ZM262.057 81.22L258.359 82.743L262.057 81.22ZM265.658 86.62L262.829 89.4484L262.881 89.5008L262.936 89.5512L265.658 86.62ZM271.418 90.4L273.042 86.7448L271.418 90.4ZM285.997 90.4L284.445 86.7135L284.409 86.7287L284.373 86.7448L285.997 90.4ZM291.758 86.62L289.036 83.6888L288.981 83.7392L288.929 83.7916L291.758 86.62ZM295.538 68.26L299.236 66.737V66.737L295.538 68.26ZM291.758 62.86L288.929 65.6884L288.981 65.7408L289.036 65.7912L291.758 62.86ZM285.997 59.08L284.373 62.7352L284.409 62.7512L284.445 62.7665L285.997 59.08ZM344.858 174.46L343.211 178.105L343.281 178.137L343.352 178.166L344.858 174.46ZM335.138 167.8L332.189 170.503L332.248 170.567L332.309 170.628L335.138 167.8ZM328.838 157.9L332.526 156.353L328.838 157.9ZM328.838 134.14L332.526 135.687L328.838 134.14ZM335.138 124.42L332.25 121.652L332.247 121.655L335.138 124.42ZM344.858 117.76L346.404 121.449L346.433 121.437L346.461 121.425L344.858 117.76ZM369.878 117.76L368.274 121.425L368.323 121.446L368.372 121.466L369.878 117.76ZM379.598 124.42L376.649 127.123L376.708 127.187L376.769 127.248L379.598 124.42ZM386.078 157.9L382.389 156.353L386.078 157.9ZM379.598 167.8L376.71 165.032L376.707 165.035L379.598 167.8ZM369.878 174.46L371.383 178.166L371.432 178.146L371.481 178.125L369.878 174.46ZM344.318 134.14L341.596 131.209L341.541 131.259L341.489 131.312L344.318 134.14ZM340.717 139.54L344.416 141.063V141.063L340.717 139.54ZM340.717 152.5L344.416 150.977V150.977L340.717 152.5ZM344.318 157.9L341.489 160.728L341.541 160.781L341.596 160.831L344.318 157.9ZM364.658 161.68L363.105 157.993L363.069 158.009L363.033 158.025L364.658 161.68ZM370.418 157.9L367.696 154.969L367.641 155.019L367.589 155.072L370.418 157.9ZM374.198 152.5L377.896 154.023V154.023L374.198 152.5ZM374.198 139.54L377.896 138.017L374.198 139.54ZM370.418 134.14L367.589 136.968L367.641 137.021L367.696 137.071L370.418 134.14ZM364.658 130.36L363.033 134.015L363.069 134.031L363.105 134.047L364.658 130.36ZM276.505 176.994L350.845 47.7544L343.91 43.7656L269.57 173.006L276.505 176.994ZM347.378 49.76H363.217V41.76H347.378V49.76ZM359.75 43.7656L285.41 173.006L292.345 176.994L366.685 47.7544L359.75 43.7656ZM288.878 171H273.038V179H288.878V171ZM278.798 101.52C274.702 101.52 271.019 100.821 267.703 99.4741L264.692 106.886C269.056 108.659 273.773 109.52 278.798 109.52V101.52ZM267.844 99.5345C264.544 98.0441 261.709 96.0946 259.306 93.6916L253.649 99.3484C256.766 102.465 260.411 104.956 264.551 106.825L267.844 99.5345ZM259.426 93.8171C257.108 91.2879 255.254 88.382 253.866 85.0731L246.489 88.1669C248.221 92.298 250.567 95.9921 253.529 99.2229L259.426 93.8171ZM253.866 85.0731C252.52 81.8631 251.837 78.4311 251.837 74.74H243.838C243.838 79.4489 244.715 83.9369 246.489 88.1669L253.866 85.0731ZM251.837 74.74C251.837 71.0489 252.52 67.6169 253.866 64.4069L246.489 61.3131C244.715 65.5431 243.838 70.0311 243.838 74.74H251.837ZM253.866 64.4069C255.248 61.1127 257.085 58.2916 259.368 55.9049L253.587 50.3751C250.59 53.5084 248.227 57.1673 246.489 61.3131L253.866 64.4069ZM259.365 55.9076C261.742 53.4278 264.524 51.5193 267.744 50.1688L264.651 42.7912C260.431 44.5607 256.733 47.0921 253.59 50.3724L259.365 55.9076ZM267.801 50.1446C271.092 48.7046 274.74 47.96 278.798 47.96V39.96C273.735 39.96 268.983 40.8953 264.594 42.8154L267.801 50.1446ZM278.798 47.96C282.719 47.96 286.309 48.6988 289.614 50.1446L292.821 42.8154C288.446 40.9012 283.756 39.96 278.798 39.96V47.96ZM289.712 50.1859C293.037 51.5365 295.774 53.4265 297.989 55.8429L303.886 50.4371C300.821 47.0935 297.078 44.5434 292.723 42.7741L289.712 50.1859ZM298.109 55.9684C300.489 58.3488 302.363 61.1495 303.729 64.4069L311.106 61.3131C309.352 57.1305 306.906 53.4512 303.766 50.3116L298.109 55.9684ZM303.729 64.4069C305.075 67.6169 305.758 71.0489 305.758 74.74H313.758C313.758 70.0311 312.88 65.5431 311.106 61.3131L303.729 64.4069ZM305.758 74.74C305.758 78.4311 305.075 81.8631 303.729 85.0731L311.106 88.1669C312.88 83.9369 313.758 79.4489 313.758 74.74H305.758ZM303.729 85.0731C302.356 88.3457 300.466 91.2308 298.05 93.7524L303.825 99.2876C306.929 96.0492 309.359 92.3343 311.106 88.1669L303.729 85.0731ZM298.047 93.7551C295.807 96.0974 293.017 98.0265 289.614 99.5154L292.821 106.845C297.098 104.973 300.788 102.463 303.828 99.2849L298.047 93.7551ZM289.712 99.4741C286.383 100.826 282.759 101.52 278.798 101.52V109.52C283.716 109.52 288.372 108.654 292.723 106.886L289.712 99.4741ZM278.798 53.64C275.571 53.64 272.543 54.2025 269.793 55.4247L273.042 62.7352C274.612 62.0375 276.504 61.64 278.798 61.64V53.64ZM269.793 55.4247C267.242 56.5583 264.949 58.0593 262.936 59.9288L268.379 65.7912C269.726 64.5407 271.273 63.5217 273.042 62.7352L269.793 55.4247ZM262.829 60.0316C260.896 61.965 259.4 64.2087 258.359 66.737L265.756 69.783C266.395 68.2313 267.299 66.875 268.486 65.6884L262.829 60.0316ZM258.359 66.737C257.313 69.2763 256.798 71.9554 256.798 74.74H264.798C264.798 72.9646 265.122 71.3236 265.756 69.783L258.359 66.737ZM256.798 74.74C256.798 77.5246 257.313 80.2036 258.359 82.743L265.756 79.697C265.122 78.1563 264.798 76.5154 264.798 74.74H256.798ZM258.359 82.743C259.4 85.2713 260.896 87.515 262.829 89.4484L268.486 83.7916C267.299 82.605 266.395 81.2487 265.756 79.697L258.359 82.743ZM262.936 89.5512C264.949 91.4207 267.242 92.9217 269.793 94.0552L273.042 86.7448C271.273 85.9583 269.726 84.9393 268.379 83.6888L262.936 89.5512ZM269.793 94.0552C272.543 95.2775 275.571 95.84 278.798 95.84V87.84C276.504 87.84 274.612 87.4425 273.042 86.7448L269.793 94.0552ZM278.798 95.84C281.932 95.84 284.894 95.2678 287.622 94.0552L284.373 86.7448C282.781 87.4522 280.943 87.84 278.798 87.84V95.84ZM287.55 94.0865C290.249 92.95 292.618 91.4161 294.586 89.4484L288.929 83.7916C287.777 84.9439 286.306 85.9299 284.445 86.7135L287.55 94.0865ZM294.479 89.5512C296.566 87.6137 298.167 85.3385 299.236 82.743L291.839 79.697C291.228 81.1815 290.309 82.5063 289.036 83.6888L294.479 89.5512ZM299.236 82.743C300.282 80.2036 300.798 77.5246 300.798 74.74H292.798C292.798 76.5154 292.473 78.1563 291.839 79.697L299.236 82.743ZM300.798 74.74C300.798 71.9554 300.282 69.2763 299.236 66.737L291.839 69.783C292.473 71.3236 292.798 72.9646 292.798 74.74H300.798ZM299.236 66.737C298.167 64.1415 296.566 61.8663 294.479 59.9288L289.036 65.7912C290.309 66.9737 291.228 68.2985 291.839 69.783L299.236 66.737ZM294.586 60.0316C292.618 58.0639 290.249 56.5299 287.55 55.3934L284.445 62.7665C286.306 63.55 287.777 64.5361 288.929 65.6884L294.586 60.0316ZM287.622 55.4247C284.894 54.2122 281.932 53.64 278.798 53.64V61.64C280.943 61.64 282.781 62.0278 284.373 62.7352L287.622 55.4247ZM357.458 172.8C353.362 172.8 349.679 172.101 346.363 170.754L343.352 178.166C347.716 179.939 352.433 180.8 357.458 180.8V172.8ZM346.504 170.815C343.204 169.324 340.369 167.375 337.966 164.972L332.309 170.628C335.426 173.745 339.071 176.236 343.211 178.105L346.504 170.815ZM338.086 165.097C335.768 162.568 333.914 159.662 332.526 156.353L325.149 159.447C326.881 163.578 329.227 167.272 332.189 170.503L338.086 165.097ZM332.526 156.353C331.18 153.143 330.497 149.711 330.497 146.02H322.497C322.497 150.729 323.375 155.217 325.149 159.447L332.526 156.353ZM330.497 146.02C330.497 142.329 331.18 138.897 332.526 135.687L325.149 132.593C323.375 136.823 322.497 141.311 322.497 146.02H330.497ZM332.526 135.687C333.908 132.393 335.745 129.572 338.028 127.185L332.247 121.655C329.25 124.788 326.887 128.447 325.149 132.593L332.526 135.687ZM338.025 127.188C340.402 124.708 343.184 122.799 346.404 121.449L343.311 114.071C339.091 115.841 335.393 118.372 332.25 121.652L338.025 127.188ZM346.461 121.425C349.752 119.985 353.4 119.24 357.458 119.24V111.24C352.395 111.24 347.643 112.175 343.254 114.095L346.461 121.425ZM357.458 119.24C361.379 119.24 364.969 119.979 368.274 121.425L371.481 114.095C367.106 112.181 362.416 111.24 357.458 111.24V119.24ZM368.372 121.466C371.697 122.817 374.434 124.706 376.649 127.123L382.546 121.717C379.481 118.374 375.738 115.823 371.383 114.054L368.372 121.466ZM376.769 127.248C379.149 129.629 381.023 132.43 382.389 135.687L389.766 132.593C388.012 128.41 385.566 124.731 382.426 121.592L376.769 127.248ZM382.389 135.687C383.735 138.897 384.418 142.329 384.418 146.02H392.418C392.418 141.311 391.54 136.823 389.766 132.593L382.389 135.687ZM384.418 146.02C384.418 149.711 383.735 153.143 382.389 156.353L389.766 159.447C391.54 155.217 392.418 150.729 392.418 146.02H384.418ZM382.389 156.353C381.016 159.626 379.126 162.511 376.71 165.032L382.485 170.568C385.589 167.329 388.019 163.614 389.766 159.447L382.389 156.353ZM376.707 165.035C374.467 167.377 371.677 169.307 368.274 170.795L371.481 178.125C375.758 176.253 379.449 173.743 382.488 170.565L376.707 165.035ZM368.372 170.754C365.043 172.106 361.419 172.8 357.458 172.8V180.8C362.376 180.8 367.032 179.934 371.383 178.166L368.372 170.754ZM357.458 124.92C354.231 124.92 351.203 125.483 348.453 126.705L351.702 134.015C353.272 133.317 355.164 132.92 357.458 132.92V124.92ZM348.453 126.705C345.902 127.838 343.609 129.339 341.596 131.209L347.039 137.071C348.386 135.821 349.933 134.802 351.702 134.015L348.453 126.705ZM341.489 131.312C339.556 133.245 338.06 135.489 337.019 138.017L344.416 141.063C345.055 139.511 345.959 138.155 347.146 136.968L341.489 131.312ZM337.019 138.017C335.973 140.556 335.458 143.235 335.458 146.02H343.458C343.458 144.245 343.782 142.604 344.416 141.063L337.019 138.017ZM335.458 146.02C335.458 148.805 335.973 151.484 337.019 154.023L344.416 150.977C343.782 149.436 343.458 147.795 343.458 146.02H335.458ZM337.019 154.023C338.06 156.551 339.556 158.795 341.489 160.728L347.146 155.072C345.959 153.885 345.055 152.529 344.416 150.977L337.019 154.023ZM341.596 160.831C343.609 162.701 345.902 164.202 348.453 165.335L351.702 158.025C349.933 157.238 348.386 156.219 347.039 154.969L341.596 160.831ZM348.453 165.335C351.203 166.557 354.231 167.12 357.458 167.12V159.12C355.164 159.12 353.272 158.723 351.702 158.025L348.453 165.335ZM357.458 167.12C360.592 167.12 363.554 166.548 366.282 165.335L363.033 158.025C361.441 158.732 359.603 159.12 357.458 159.12V167.12ZM366.21 165.367C368.909 164.23 371.278 162.696 373.246 160.728L367.589 155.072C366.437 156.224 364.966 157.21 363.105 157.993L366.21 165.367ZM373.139 160.831C375.226 158.894 376.827 156.619 377.896 154.023L370.499 150.977C369.888 152.461 368.969 153.786 367.696 154.969L373.139 160.831ZM377.896 154.023C378.942 151.484 379.458 148.805 379.458 146.02H371.458C371.458 147.795 371.133 149.436 370.499 150.977L377.896 154.023ZM379.458 146.02C379.458 143.235 378.942 140.556 377.896 138.017L370.499 141.063C371.133 142.604 371.458 144.245 371.458 146.02H379.458ZM377.896 138.017C376.827 135.421 375.226 133.146 373.139 131.209L367.696 137.071C368.969 138.254 369.888 139.579 370.499 141.063L377.896 138.017ZM373.246 131.312C371.278 129.344 368.909 127.81 366.21 126.673L363.105 134.047C364.966 134.83 366.437 135.816 367.589 136.968L373.246 131.312ZM366.282 126.705C363.554 125.492 360.592 124.92 357.458 124.92V132.92C359.603 132.92 361.441 133.308 363.033 134.015L366.282 126.705Z" fill="white"/>
</svg>
