<svg width="48" height="48" viewBox="0 0 48 48" fill="none" xmlns="http://www.w3.org/2000/svg">
<path d="M0.249998 24C0.249997 10.8832 10.8832 0.250007 24 0.250006C37.1168 0.250005 47.75 10.8832 47.75 24C47.75 37.1168 37.1168 47.75 24 47.75C10.8832 47.75 0.249999 37.1168 0.249998 24Z" stroke="#1B2AC9" stroke-width="0.5"/>
<path fill-rule="evenodd" clip-rule="evenodd" d="M12 23.7771C12 23.4795 12.2413 23.2382 12.5389 23.2382H35.1706C35.4682 23.2382 35.7095 23.4795 35.7095 23.7771C35.7095 24.0747 35.4682 24.316 35.1706 24.316H12.5389C12.2413 24.316 12 24.0747 12 23.7771Z" fill="#1B2AC9"/>
<path fill-rule="evenodd" clip-rule="evenodd" d="M26.7406 13.1268C26.9681 12.935 27.3081 12.964 27.4999 13.1916L35.7716 23.0054C36.076 23.3666 36.076 23.8945 35.7716 24.2556L27.4999 34.0695C27.3081 34.2971 26.9681 34.326 26.7406 34.1342C26.513 33.9424 26.484 33.6025 26.6758 33.3749L34.889 23.6305L26.6758 13.8861C26.484 13.6586 26.513 13.3186 26.7406 13.1268Z" fill="#1B2AC9"/>
</svg>
