<svg width="59" height="124" viewBox="0 0 59 124" fill="none" xmlns="http://www.w3.org/2000/svg">
<path d="M29.8985 2.00017C32.8167 1.98801 37.0732 2.63544 37.2319 3.42851C37.3905 4.22159 36.6577 4.55844 36.4348 5.33298C36.09 6.53052 36.5409 7.33535 36.1159 8.50708C35.851 9.23752 35.2061 9.47764 35.1594 10.2528C35.1158 10.977 35.1594 11.522 35.7971 11.9986C36.4348 12.4752 46.9888 16.0473 51.4203 21.6796C55.0203 26.2552 57 30.3489 57 35.4869V99.4451C57 102.39 55.9575 104.75 52.9122 108.5C49.8669 112.25 48.5701 111.954 47.3378 113.75C46.1056 115.546 42.9864 121.091 40.277 121.25C37.5677 121.409 32.7673 117.855 30.5362 118.172C28.3051 118.49 25.595 122.299 22.0869 121.981C18.5789 121.664 16.6667 117.379 16.6667 117.379C16.6667 117.379 13.4678 117.486 12.0338 116.375C10.5998 115.264 10.5473 113.375 9.06082 112.25C7.57433 111.125 1.99923 105.317 2.00001 99.4451C2.00079 93.573 2.00006 55.25 2.00001 35.4869C2 30.5 4.60135 23.75 10.5473 19.25C16.4932 14.75 22.7246 12.3159 24 11.9986C25.2753 11.6813 24.9565 11.0294 24.9565 10.2528C24.9565 9.47625 24.2933 9.22667 24 8.50708C23.4535 7.16636 23.3623 4.85686 23.3623 4.85686C23.3623 4.85686 23.3623 3.90471 22.7246 3.42851C22.0869 2.95232 27.0415 2.01207 29.8985 2.00017Z" stroke="url(#paint0_linear_1630_4499)" stroke-width="4" stroke-linejoin="round"/>
<path fill-rule="evenodd" clip-rule="evenodd" d="M28.1313 50.5162C28.0134 50.7443 28.012 51.0353 28.1266 51.4994C28.3505 52.4063 28.4244 53.4482 28.3175 54.1927L28.2859 54.4127L27.7753 54.457C26.2488 54.5896 24.8966 54.9501 23.7287 55.5359C22.8752 55.964 22.405 56.2993 21.6456 57.0212C20.9603 57.6726 20.6722 58.0124 20.2142 58.7092C19.3386 60.0414 18.6675 61.9172 18.4998 63.5012L18.4721 63.7626L18.799 63.7668C20.3669 63.7868 22.9335 63.2579 24.4482 62.6027C24.6658 62.5085 24.8635 62.4299 24.8875 62.428C24.9115 62.4261 24.977 62.4997 25.033 62.5916C25.2293 62.9133 25.7451 63.5653 26.0276 63.849C26.6749 64.4987 27.8843 65.3905 28.6394 65.7749L28.9512 65.9337L29.1969 65.8098C29.5617 65.6258 30.4235 65.0751 30.8371 64.7616C31.404 64.3318 32.3885 63.3245 32.6975 62.858C32.8374 62.6468 32.9644 62.4608 32.9795 62.4448C32.9947 62.4288 33.1776 62.4872 33.3859 62.5746C34.377 62.9905 35.0895 63.2048 36.28 63.4452C37.193 63.6295 38.1514 63.746 38.8972 63.763L39.4261 63.7751L39.4089 63.567C39.3808 63.2296 39.2524 62.5297 39.1341 62.0701C38.7358 60.5221 38.0939 59.1854 37.1731 57.9868C36.7734 57.4666 35.7025 56.4673 35.1529 56.1018C33.9711 55.3159 32.4883 54.7691 30.9655 54.5578C30.6555 54.5148 30.3544 54.4726 30.2963 54.4641C30.2028 54.4504 30.193 54.4214 30.2096 54.2094C30.3061 52.9797 30.1835 51.7656 29.8656 50.8023C29.6976 50.2934 29.4746 50.0887 29.0411 50.0457C28.6973 50.0116 28.2808 50.227 28.1313 50.5162ZM19.7054 65.8964C19.0802 67.376 18.9641 68.7034 19.3407 70.0653C19.4836 70.5819 19.6778 71.027 19.9719 71.5122L20.2107 71.9061L20.4916 71.8881C22.5315 71.757 24.3043 70.5503 25.3629 68.5724C25.6819 67.9764 25.8985 67.4041 26.0452 66.7694L26.1505 66.3143L25.9452 66.1498C25.8324 66.0593 25.4052 65.6688 24.996 65.282L24.252 64.5787L23.7629 64.7336C22.8469 65.0237 21.5073 65.3009 20.4043 65.4284C20.1181 65.4615 19.8796 65.4953 19.8745 65.5035C19.8693 65.5117 19.7933 65.6885 19.7054 65.8964ZM27.6254 67.8343C27.3593 68.7264 26.8178 69.8072 26.2793 70.5211C26.1522 70.6897 26.0073 70.8828 25.9574 70.9502C25.8805 71.0541 25.8816 71.1411 25.9647 71.5215C26.2514 72.8337 26.9058 73.9216 27.8945 74.7299C28.2644 75.0322 28.8606 75.423 28.952 75.423C29.0481 75.423 29.6557 75.0208 30.042 74.7015C30.9899 73.918 31.6305 72.8608 31.9184 71.6047C31.9944 71.2732 32.0147 71.0654 31.9777 70.9983C31.9467 70.9421 31.7956 70.7345 31.6419 70.537C31.0959 69.8353 30.565 68.7825 30.2703 67.8168C30.1893 67.5514 30.1154 67.3358 30.1061 67.3375C30.0967 67.3392 29.8443 67.4588 29.5451 67.6032C29.2459 67.7476 28.9653 67.8606 28.9215 67.8542C28.8778 67.8479 28.6056 67.727 28.3169 67.5856C28.0281 67.4443 27.7856 67.3376 27.7781 67.3485C27.7705 67.3595 27.7018 67.5781 27.6254 67.8343ZM21.5623 74.1025C21.5572 75.144 21.8132 76.1463 22.3268 77.0959C22.6281 77.6529 23.2825 78.4466 23.6686 78.7232C23.7981 78.8159 23.8395 78.8156 24.0905 78.7202C24.8699 78.4237 25.4988 77.9831 26.1873 77.2512C26.465 76.956 26.7491 76.62 26.8185 76.5045L26.9446 76.2946L26.251 75.6009C25.6491 74.9989 25.5218 74.8511 25.2883 74.4829C24.9344 73.9249 24.7105 73.4744 24.5053 72.9069C24.4129 72.6515 24.33 72.443 24.3209 72.4435C24.3119 72.4442 24.1516 72.5349 23.9648 72.6453C23.3583 73.0037 22.6081 73.312 21.9359 73.4792C21.7692 73.5206 21.6175 73.5699 21.5987 73.5887C21.58 73.6074 21.5636 73.8386 21.5623 74.1025ZM31.8587 66.7684C32.0146 67.4299 32.1512 67.8072 32.4463 68.3908C32.8597 69.2082 33.104 69.5448 33.7601 70.2004C34.273 70.7129 34.3779 70.7988 34.7813 71.0372C35.4529 71.434 36.0276 71.6621 36.6756 71.7889C37.1801 71.8877 37.6574 71.9163 37.7221 71.8517C37.7536 71.8202 37.8983 71.583 38.0437 71.3245C38.9645 69.688 39.0125 67.7793 38.1813 65.8593L38.0227 65.493L37.3818 65.4152C36.2766 65.2808 34.8024 64.9647 33.9823 64.6862L33.6547 64.575L32.9084 65.2804C32.498 65.6684 32.0698 66.0599 31.957 66.1503L31.7518 66.3148L31.8587 66.7684ZM28.2836 77.5664C27.9428 78.1044 27.4519 78.6529 26.8969 79.1158C26.6083 79.3565 26.3328 79.5893 26.2846 79.6332C26.2059 79.7048 26.2152 79.7528 26.3762 80.1052C26.847 81.1365 27.7607 82.1247 28.7248 82.6453C28.9456 82.7645 28.9597 82.7645 29.1805 82.6453C30.1478 82.1231 31.0563 81.1405 31.5286 80.1057C31.6894 79.7536 31.6988 79.7052 31.6204 79.6334C31.5724 79.5893 31.3101 79.3678 31.0377 79.1411C30.4049 78.6146 29.9739 78.1195 29.4512 77.3185C29.3702 77.1944 29.356 77.1921 29.1675 77.2729C29.0085 77.341 28.9277 77.3413 28.7602 77.2743C28.5286 77.1817 28.5263 77.1831 28.2836 77.5664ZM33.3947 72.9112C33.2217 73.4111 32.9721 73.9167 32.6218 74.4775C32.4119 74.8135 32.2735 74.9739 31.6679 75.5828L30.9595 76.2949L31.0857 76.5049C31.1551 76.6204 31.4392 76.9564 31.717 77.2518C32.4057 77.9838 33.0346 78.4244 33.8141 78.7211C34.0651 78.8166 34.1065 78.8169 34.236 78.7241C34.6271 78.444 35.2328 77.7091 35.5923 77.0783C35.8554 76.6167 36.1846 75.6414 36.2722 75.0641C36.3475 74.5677 36.3692 73.6544 36.3072 73.5924C36.2872 73.5723 36.1344 73.522 35.9677 73.4805C35.2904 73.3119 34.4575 72.9661 33.8832 72.615C33.7168 72.5133 33.5728 72.4406 33.5629 72.4535C33.5531 72.4664 33.4774 72.6724 33.3947 72.9112Z" fill="url(#paint1_linear_1630_4499)"/>
<defs>
<linearGradient id="paint0_linear_1630_4499" x1="57.8385" y1="85.6225" x2="0.55831" y2="84.7994" gradientUnits="userSpaceOnUse">
<stop stop-color="#1B2AC9"/>
<stop offset="1" stop-color="#0073F0"/>
</linearGradient>
<linearGradient id="paint1_linear_1630_4499" x1="41.2008" y1="61.3718" x2="22.7422" y2="78.7083" gradientUnits="userSpaceOnUse">
<stop stop-color="#1B2AC9"/>
<stop offset="1" stop-color="#0073F0"/>
</linearGradient>
</defs>
</svg>
