<svg width="37" height="119" viewBox="0 0 37 119" fill="none" xmlns="http://www.w3.org/2000/svg">
<path fill-rule="evenodd" clip-rule="evenodd" d="M23.2441 2.28785H13.7277V6.40625L23.2441 6.40625V2.28785ZM25.6232 6.40625V2.28785C25.6232 1.0243 24.558 0 23.2441 0H13.7277C12.4137 0 11.3485 1.0243 11.3485 2.28785V15.5574C11.3485 16.1975 11.6219 16.7762 12.0625 17.1914V19.3936C12.0625 22.2639 11.833 25.13 11.376 27.9664C10.9822 30.4106 10.3639 32.8163 9.49348 35.13C8.32709 38.2301 7.25971 40.9216 6.29919 43.3435C2.5292 52.8495 0.405636 58.2041 0.404846 67.8286V67.834L0.000387308 109.737C-0.0450269 114.442 3.90918 118.28 8.80272 118.28H18.4861V118.28H28.1695C33.063 118.28 37.0172 114.442 36.9718 109.736L36.5673 67.8338V67.8284C36.5665 58.2039 34.443 52.8494 30.673 43.3434L30.6729 43.3432C29.7124 40.9214 28.645 38.23 27.4787 35.13C26.6082 32.8163 25.99 30.4106 25.5962 27.9665C25.1392 25.13 24.9097 22.264 24.9097 19.3937V17.191C25.35 16.7758 25.6232 16.1973 25.6232 15.5574V8.69336H25.6236V6.40625H25.6232ZM23.2441 8.69336L13.7277 8.69336L13.7277 15.5574H23.2441V8.69336ZM14.4416 19.3936V17.8452H22.5306V19.3937C22.5306 22.3813 22.7695 25.3644 23.2451 28.3167C23.6603 30.8937 24.3143 33.4439 25.2415 35.9083C26.4473 39.1132 27.5361 41.8621 28.5051 44.3082L28.5052 44.3086C28.8423 45.1597 29.165 45.9742 29.4729 46.7584C28.2105 47.0004 27.0231 47.2066 25.8875 47.3769L25.8019 47.3897C24.8857 44.8605 21.9572 43.0107 18.4863 43.0107C15.0014 43.0107 12.0635 44.8753 11.1597 47.42L11.0759 47.4078C9.93988 47.2419 8.7495 47.0396 7.48292 46.8001C7.79585 46.0029 8.12395 45.1746 8.4671 44.3083C9.43602 41.8622 10.5249 39.1132 11.7307 35.9083C12.6578 33.444 13.3119 30.8937 13.7271 28.3167C14.2027 25.3644 14.4416 22.3812 14.4416 19.3936ZM6.83275 48.4706C6.83276 48.4705 6.83277 48.4705 6.83278 48.4705C7.06604 48.5152 7.29688 48.5588 7.52545 48.6012C7.29687 48.5588 7.06602 48.5153 6.83275 48.4706ZM6.52581 49.2732C4.06195 55.7641 2.78396 60.4084 2.78396 67.834V67.8393L2.3794 109.758C2.34626 113.192 5.23176 115.992 8.80272 115.992H18.4861V115.992H28.1695C31.7404 115.992 34.6259 113.191 34.5928 109.758L34.1882 67.8391V67.8338C34.1882 60.392 32.9046 55.7437 30.4302 49.2304C28.9504 49.5194 27.5618 49.7634 26.2335 49.9613L26.0122 49.9942C25.4551 52.9056 22.2978 55.1362 18.4863 55.1362C14.6887 55.1362 11.5406 52.922 10.9666 50.0262L10.7429 49.9938C9.41114 49.8008 8.01535 49.5606 6.52581 49.2732ZM26.0994 49.057C26.0994 49.0625 26.0994 49.068 26.0994 49.0735L26.0991 49.1263C26.0991 49.1263 26.0991 49.1263 26.0991 49.1263L26.0994 49.0746C26.0994 49.0687 26.0994 49.0629 26.0994 49.057ZM29.6713 48.515C29.8114 48.4883 29.9524 48.4613 30.0942 48.4338C30.1038 48.4319 30.1135 48.43 30.1231 48.4282C30.1231 48.4281 30.1231 48.4281 30.1231 48.4281C29.9715 48.4575 29.8209 48.4865 29.6713 48.515ZM18.4863 52.8484C21.8165 52.8484 23.7203 50.7734 23.7203 49.0735C23.7203 47.3735 21.8165 45.2986 18.4863 45.2986C15.156 45.2986 13.2522 47.3735 13.2522 49.0735C13.2522 50.7734 15.156 52.8484 18.4863 52.8484Z" fill="url(#paint0_linear_1196_4258)"/>
<path fill-rule="evenodd" clip-rule="evenodd" d="M13.9414 68.614C14.0033 68.5451 14.0934 68.4725 14.1416 68.4527C14.2678 68.4009 15.0147 68.4381 15.4098 68.5158C16.2316 68.6775 16.8506 68.9883 17.4122 69.5212C17.7312 69.824 17.8523 69.9734 18.0079 70.2557C18.3275 70.8355 18.4845 71.3679 18.5351 72.043C18.581 72.6567 18.4124 72.8421 17.8076 72.8423C17.1076 72.8426 16.2262 72.6176 15.6324 72.2869C15.2503 72.0742 14.7648 71.6403 14.5156 71.289C14.0992 70.7018 13.8289 69.8464 13.8289 69.1153C13.8289 68.7656 13.8368 68.7306 13.9414 68.614ZM20.4659 69.4691C20.489 69.4502 20.514 69.4335 20.5463 69.4114C20.7621 69.2641 20.9521 69.3066 21.8539 69.7037C22.719 70.0846 22.8259 70.1628 22.7093 70.3296C22.6728 70.3818 22.4951 70.5366 22.3145 70.6735C21.8401 71.0331 21.1321 71.6196 20.9047 71.8413C20.5538 72.1833 19.9433 72.9272 19.4714 73.5878C19.2173 73.9433 19.0159 74.2403 19.0238 74.2477C19.0317 74.2551 19.2079 74.198 19.4152 74.1209C20.2147 73.8233 21.0912 73.6619 21.9228 73.6591C22.5435 73.6571 22.9827 73.7163 23.5036 73.8726C24.2286 74.0901 24.787 74.4089 25.353 74.9284C26.2005 75.7063 26.7224 76.7317 26.9459 78.0581C27.0182 78.4869 27.018 79.9234 26.9456 80.4288C26.7009 82.1362 26.1621 83.7351 25.3611 85.1307C24.3095 86.963 22.9515 88.1342 21.435 88.5168C21.0724 88.6083 20.9348 88.6224 20.4052 88.6226C19.7491 88.6228 19.3718 88.5604 18.792 88.3558L18.5111 88.2567L18.1776 88.3708C17.6091 88.5653 17.2207 88.6201 16.5728 88.5975C15.6974 88.567 15.0843 88.3727 14.2803 87.8711C12.68 86.8725 11.2743 84.8063 10.5032 82.3193C9.99535 80.6814 9.86484 79.0221 10.1439 77.7523C10.4298 76.4516 11.2546 75.2424 12.3324 74.5441C13.8215 73.5792 15.6561 73.4181 17.553 74.0855C17.7811 74.1657 17.9726 74.2256 17.9784 74.2185C17.9842 74.2115 18.0944 73.9567 18.2233 73.6525C18.7321 72.4517 19.4305 71.0793 20.0129 70.1359C20.321 69.6368 20.3806 69.5386 20.4659 69.4691ZM20.9903 75.7247C20.9903 75.7247 23.2553 75.5196 24.3632 76.2593C25.6209 77.099 25.118 80.545 25.118 80.545C25.118 80.545 24.3356 78.7925 23.5701 77.8676C22.7292 76.8516 20.9903 75.7247 20.9903 75.7247Z" fill="url(#paint1_linear_1196_4258)"/>
<defs>
<linearGradient id="paint0_linear_1196_4258" x1="37.5358" y1="82.4241" x2="-0.973386" y2="82.0467" gradientUnits="userSpaceOnUse">
<stop stop-color="#1B2AC9"/>
<stop offset="1" stop-color="#0073F0"/>
</linearGradient>
<linearGradient id="paint1_linear_1196_4258" x1="27.2592" y1="82.5009" x2="9.56306" y2="82.0339" gradientUnits="userSpaceOnUse">
<stop stop-color="#1B2AC9"/>
<stop offset="1" stop-color="#0073F0"/>
</linearGradient>
</defs>
</svg>
