<svg width="40" height="120" viewBox="0 0 40 120" fill="none" xmlns="http://www.w3.org/2000/svg">
<path d="M38.6998 68.8C38.6998 59.1 36.4998 53.6 32.7998 44.1C31.7998 41.7 30.7998 39 29.5998 35.9C28.6998 33.6 28.0998 31.3 27.6998 28.9C27.1998 26.1 26.9998 23.3 26.9998 20.4V18.4C27.3998 17.9 27.6998 17.3 27.6998 16.5V10.2V9.70002V7.40002V6.80002V3.30002C27.6998 1.70002 26.2998 0.400024 24.6998 0.400024H15.1998C13.5998 0.400024 12.1998 1.70002 12.1998 3.30002V16.6C12.1998 17.3 12.4998 18 12.8998 18.5V20.5C12.8998 23.3 12.6998 26.2 12.1998 29C11.7998 31.4 11.1998 33.8 10.2998 36C9.0998 39.1 8.0998 41.8 7.0998 44.2C3.2998 53.7 1.1998 59.2 1.1998 68.9L0.799805 110.8C0.799805 115.9 4.9998 119.9 10.1998 119.9H19.8998H20.4998H29.5998C34.7998 119.9 39.0998 115.8 38.9998 110.8L38.6998 68.8ZM15.7998 3.90002H24.0998V6.80002H15.7998V3.90002ZM15.7998 10.3H24.0998V16H15.7998V10.3ZM10.3998 45.5C11.3998 43.1 12.4998 40.3 13.6998 37.1C14.5998 34.6 15.2998 32 15.6998 29.4C16.1998 26.4 16.3998 23.4 16.3998 20.4V19.5H23.2998V20.4C23.2998 23.4 23.4998 26.4 23.9998 29.4C24.3998 32 25.0998 34.6 25.9998 37.1C27.1998 40.3 28.2998 43.1 29.2998 45.5L29.9998 45.3L29.3998 45.5C29.5998 46.1 29.8998 46.7 30.0998 47.3C29.1998 47.5 28.3998 47.6 27.5998 47.7C26.3998 45.1 23.3998 43.4 19.8998 43.4C16.3998 43.4 13.3998 45.2 12.1998 47.7C11.3998 47.6 10.5998 47.4 9.6998 47.3C9.8998 46.7 10.1998 46.1 10.3998 45.5ZM24.5998 50.1C24.5998 51.4 23.0998 53.3 19.9998 53.3C16.8998 53.2 15.3998 51.3 15.3998 50.1C15.3998 48.8 16.8998 46.9 19.9998 46.9C23.0998 46.9 24.5998 48.8 24.5998 50.1ZM29.6998 116.4H19.9998H19.3998H10.2998C6.9998 116.4 4.3998 113.9 4.4998 110.8L4.8998 68.9C4.8998 61.8 6.0998 57.2 8.3998 51C9.5998 51.2 10.7998 51.4 11.9998 51.6C12.7998 54.6 16.1998 56.8 19.9998 56.8C23.7998 56.8 27.1998 54.6 27.9998 51.6C29.0998 51.4 30.2998 51.2 31.4998 51C33.7998 57.2 34.9998 61.8 34.9998 68.9L35.3998 110.8C35.4998 113.8 32.8998 116.4 29.6998 116.4Z" fill="white"/>
<path d="M26.9997 75.9C26.4997 75.3 25.8997 75 25.1997 74.8C24.6997 74.7 24.1997 74.6 23.5997 74.6C22.7997 74.6 21.8997 74.8 21.0997 75.1C20.8997 75.2 20.6997 75.2 20.6997 75.2C20.5997 75.2 20.7997 74.9 21.0997 74.5C21.4997 73.9 22.0997 73.1 22.4997 72.8C22.6997 72.5 23.3997 72 23.8997 71.6C24.0997 71.5 24.2997 71.4 24.2997 71.3C24.3997 71.2 24.2997 71.1 23.3997 70.7C22.4997 70.3 22.2997 70.3 21.9997 70.5C21.8997 70.5 21.7997 70.6 21.5997 70.9C20.9997 71.8 20.2997 73.2 19.7997 74.4C19.6997 74.7 19.5997 75 19.5997 75C19.5997 75 19.3997 75 19.1997 74.9C17.2997 74.3 15.4997 74.4 13.9997 75.4C12.8997 76.1 12.0997 77.3 11.7997 78.6C11.5997 79.9 11.6997 81.6 12.1997 83.2C12.9997 85.7 14.3997 87.8 15.9997 88.8C16.7997 89.3 17.3997 89.5 18.2997 89.5C18.8997 89.5 19.2997 89.5 19.8997 89.3L20.1997 89.2L20.4997 89.3C21.0997 89.5 21.3997 89.6 22.0997 89.6C22.5997 89.6 22.6997 89.6 23.0997 89.5C24.5997 89.1 25.8997 87.9 26.9997 86.1C27.7997 84.7 28.3997 83.1 28.5997 81.4C28.6997 80.9 28.6997 79.4 28.5997 79C28.3997 77.7 27.7997 76.7 26.9997 75.9ZM26.6997 81.5C26.6997 81.5 25.8997 79.7 25.1997 78.8C24.1997 77.9 22.4997 76.7 22.4997 76.7C22.4997 76.7 24.7997 76.5 25.8997 77.2C27.1997 78 26.6997 81.5 26.6997 81.5Z" fill="white"/>
<path d="M17.0998 73.2001C17.6998 73.6001 18.5998 73.8001 19.2998 73.8001C19.8998 73.8001 19.9998 73.6001 19.9998 73.0001C19.9998 72.3001 19.7998 71.8001 19.4998 71.2001C19.2998 71.0001 19.1998 70.8001 18.8998 70.5001C18.2998 70.0001 17.6998 69.7001 16.8998 69.5001C16.4998 69.4001 15.6998 69.3001 15.5998 69.4001C15.5998 69.5001 15.4998 69.5001 15.3998 69.6001C15.2998 69.7001 15.2998 69.8001 15.2998 70.0001C15.2998 70.8001 15.5998 71.6001 15.9998 72.2001C16.1998 72.6001 16.6998 73.0001 17.0998 73.2001Z" fill="white"/>
</svg>
