<svg width="40" height="120" viewBox="0 0 40 120" fill="none" xmlns="http://www.w3.org/2000/svg">
<mask id="path-1-outside-1_1402_2476" maskUnits="userSpaceOnUse" x="0.513916" y="-0.140137" width="39" height="120" fill="black">
<rect fill="white" x="0.513916" y="-0.140137" width="39" height="120"/>
<path fill-rule="evenodd" clip-rule="evenodd" d="M24.758 3.14771H15.2416V7.26611L24.758 7.26611V3.14771ZM27.1371 7.26611V3.14771C27.1371 1.88417 26.072 0.859863 24.758 0.859863H15.2416C13.9276 0.859863 12.8625 1.88417 12.8625 3.14771V16.4172C12.8625 17.0573 13.1358 17.636 13.5764 18.0513V20.2535C13.5764 23.1238 13.3469 25.9898 12.8899 28.8263C12.4961 31.2705 11.8779 33.6762 11.0074 35.9898C9.84101 39.09 8.77362 41.7814 7.81311 44.2034C4.04312 53.7094 1.91955 59.0639 1.91876 68.6885V68.6938L1.5143 110.597C1.46889 115.302 5.4231 119.14 10.3166 119.14H20V119.14H29.6834C34.5769 119.14 38.5311 115.302 38.4857 110.596L38.0812 68.6936V68.6883C38.0804 59.0638 35.9569 53.7093 32.1869 44.2033L32.1868 44.2031C31.2263 41.7812 30.159 39.0899 28.9926 35.9898C28.1221 33.6762 27.5039 31.2705 27.1101 28.8263C26.6531 25.9899 26.4236 23.1239 26.4236 20.2536V18.0509C26.8639 17.6357 27.1371 17.0571 27.1371 16.4172V9.55322H27.1375V7.26611H27.1371ZM24.758 9.55322L15.2416 9.55322L15.2416 16.4172H24.758V9.55322ZM15.9555 20.2535V18.7051H24.0445V20.2536C24.0445 23.2411 24.2834 26.2243 24.759 29.1766C25.1742 31.7536 25.8282 34.3038 26.7554 36.7682C27.9612 39.973 29.0501 42.722 30.019 45.1681L30.0191 45.1684C30.3563 46.0196 30.6789 46.834 30.9868 47.6183C29.7245 47.8603 28.537 48.0664 27.4014 48.2367L27.3159 48.2496C26.3996 45.7204 23.4711 43.8706 20.0002 43.8706C16.5154 43.8706 13.5774 45.7352 12.6736 48.2799L12.5898 48.2676C11.4538 48.1018 10.2634 47.8995 8.99684 47.66C9.30976 46.8628 9.63787 46.0345 9.98102 45.1682C10.9499 42.722 12.0388 39.9731 13.2446 36.7682C14.1718 34.3038 14.8258 31.7536 15.241 29.1766C15.7166 26.2242 15.9555 23.2411 15.9555 20.2535ZM8.34667 49.3304C8.34668 49.3304 8.34669 49.3304 8.3467 49.3303C8.57995 49.3751 8.8108 49.4187 9.03936 49.461C8.81079 49.4187 8.57993 49.3752 8.34667 49.3304ZM8.03972 50.133C5.57586 56.624 4.29787 61.2682 4.29787 68.6938V68.6991L3.89331 110.618C3.86017 114.052 6.74567 116.852 10.3166 116.852H20V116.852H29.6834C33.2543 116.852 36.1398 114.051 36.1067 110.617L35.7021 68.6989V68.6936C35.7021 61.2518 34.4185 56.6036 31.9441 50.0903C30.4643 50.3793 29.0758 50.6233 27.7475 50.8211L27.5261 50.8541C26.9691 53.7655 23.8117 55.9961 20.0002 55.9961C16.2026 55.9961 13.0545 53.7818 12.4805 50.8861L12.2568 50.8537C10.9251 50.6607 9.52927 50.4205 8.03972 50.133ZM27.6133 49.9168C27.6133 49.9223 27.6133 49.9278 27.6133 49.9333L27.613 49.9862C27.613 49.9862 27.6131 49.9861 27.6131 49.9861L27.6133 49.9345C27.6133 49.9286 27.6133 49.9227 27.6133 49.9168ZM31.1852 49.3748C31.3253 49.3482 31.4663 49.3211 31.6081 49.2936C31.6178 49.2918 31.6274 49.2899 31.637 49.288C31.637 49.288 31.637 49.288 31.637 49.2879C31.4854 49.3174 31.3348 49.3464 31.1852 49.3748ZM20.0002 53.7083C23.3305 53.7083 25.2342 51.6333 25.2342 49.9333C25.2342 48.2334 23.3305 46.1584 20.0002 46.1584C16.6699 46.1584 14.7662 48.2334 14.7662 49.9333C14.7662 51.6333 16.6699 53.7083 20.0002 53.7083Z"/>
</mask>
<path fill-rule="evenodd" clip-rule="evenodd" d="M24.758 3.14771H15.2416V7.26611L24.758 7.26611V3.14771ZM27.1371 7.26611V3.14771C27.1371 1.88417 26.072 0.859863 24.758 0.859863H15.2416C13.9276 0.859863 12.8625 1.88417 12.8625 3.14771V16.4172C12.8625 17.0573 13.1358 17.636 13.5764 18.0513V20.2535C13.5764 23.1238 13.3469 25.9898 12.8899 28.8263C12.4961 31.2705 11.8779 33.6762 11.0074 35.9898C9.84101 39.09 8.77362 41.7814 7.81311 44.2034C4.04312 53.7094 1.91955 59.0639 1.91876 68.6885V68.6938L1.5143 110.597C1.46889 115.302 5.4231 119.14 10.3166 119.14H20V119.14H29.6834C34.5769 119.14 38.5311 115.302 38.4857 110.596L38.0812 68.6936V68.6883C38.0804 59.0638 35.9569 53.7093 32.1869 44.2033L32.1868 44.2031C31.2263 41.7812 30.159 39.0899 28.9926 35.9898C28.1221 33.6762 27.5039 31.2705 27.1101 28.8263C26.6531 25.9899 26.4236 23.1239 26.4236 20.2536V18.0509C26.8639 17.6357 27.1371 17.0571 27.1371 16.4172V9.55322H27.1375V7.26611H27.1371ZM24.758 9.55322L15.2416 9.55322L15.2416 16.4172H24.758V9.55322ZM15.9555 20.2535V18.7051H24.0445V20.2536C24.0445 23.2411 24.2834 26.2243 24.759 29.1766C25.1742 31.7536 25.8282 34.3038 26.7554 36.7682C27.9612 39.973 29.0501 42.722 30.019 45.1681L30.0191 45.1684C30.3563 46.0196 30.6789 46.834 30.9868 47.6183C29.7245 47.8603 28.537 48.0664 27.4014 48.2367L27.3159 48.2496C26.3996 45.7204 23.4711 43.8706 20.0002 43.8706C16.5154 43.8706 13.5774 45.7352 12.6736 48.2799L12.5898 48.2676C11.4538 48.1018 10.2634 47.8995 8.99684 47.66C9.30976 46.8628 9.63787 46.0345 9.98102 45.1682C10.9499 42.722 12.0388 39.9731 13.2446 36.7682C14.1718 34.3038 14.8258 31.7536 15.241 29.1766C15.7166 26.2242 15.9555 23.2411 15.9555 20.2535ZM8.34667 49.3304C8.34668 49.3304 8.34669 49.3304 8.3467 49.3303C8.57995 49.3751 8.8108 49.4187 9.03936 49.461C8.81079 49.4187 8.57993 49.3752 8.34667 49.3304ZM8.03972 50.133C5.57586 56.624 4.29787 61.2682 4.29787 68.6938V68.6991L3.89331 110.618C3.86017 114.052 6.74567 116.852 10.3166 116.852H20V116.852H29.6834C33.2543 116.852 36.1398 114.051 36.1067 110.617L35.7021 68.6989V68.6936C35.7021 61.2518 34.4185 56.6036 31.9441 50.0903C30.4643 50.3793 29.0758 50.6233 27.7475 50.8211L27.5261 50.8541C26.9691 53.7655 23.8117 55.9961 20.0002 55.9961C16.2026 55.9961 13.0545 53.7818 12.4805 50.8861L12.2568 50.8537C10.9251 50.6607 9.52927 50.4205 8.03972 50.133ZM27.6133 49.9168C27.6133 49.9223 27.6133 49.9278 27.6133 49.9333L27.613 49.9862C27.613 49.9862 27.6131 49.9861 27.6131 49.9861L27.6133 49.9345C27.6133 49.9286 27.6133 49.9227 27.6133 49.9168ZM31.1852 49.3748C31.3253 49.3482 31.4663 49.3211 31.6081 49.2936C31.6178 49.2918 31.6274 49.2899 31.637 49.288C31.637 49.288 31.637 49.288 31.637 49.2879C31.4854 49.3174 31.3348 49.3464 31.1852 49.3748ZM20.0002 53.7083C23.3305 53.7083 25.2342 51.6333 25.2342 49.9333C25.2342 48.2334 23.3305 46.1584 20.0002 46.1584C16.6699 46.1584 14.7662 48.2334 14.7662 49.9333C14.7662 51.6333 16.6699 53.7083 20.0002 53.7083Z" fill="url(#paint0_linear_1402_2476)"/>
<path d="M15.2416 3.14771V2.54771H14.6416V3.14771H15.2416ZM24.758 3.14771H25.358V2.54771H24.758V3.14771ZM15.2416 7.26611H14.6416V7.86611H15.2416V7.26611ZM24.758 7.26611V7.86611H25.358V7.26611H24.758ZM27.1371 7.26611H26.5371V7.86611H27.1371V7.26611ZM13.5764 18.0513H14.1764V17.7923L13.9879 17.6146L13.5764 18.0513ZM12.8899 28.8263L12.2975 28.7309L12.8899 28.8263ZM11.0074 35.9898L10.4458 35.7786L11.0074 35.9898ZM7.81311 44.2034L7.25537 43.9822L7.81311 44.2034ZM1.91876 68.6885L1.31876 68.6884V68.6885H1.91876ZM1.91876 68.6938L2.51876 68.6996V68.6938H1.91876ZM1.5143 110.597L0.914331 110.591L1.5143 110.597ZM20 119.14V119.74H20.6V119.14H20ZM20 119.14V118.54H19.4V119.14H20ZM38.4857 110.596L39.0857 110.59L38.4857 110.596ZM38.0812 68.6936H37.4812L37.4813 68.6994L38.0812 68.6936ZM38.0812 68.6883H38.6812V68.6882L38.0812 68.6883ZM32.1869 44.2033L31.6277 44.4208L31.6292 44.4245L32.1869 44.2033ZM32.1868 44.2031L32.746 43.9856L32.7445 43.9819L32.1868 44.2031ZM28.9926 35.9898L28.431 36.2011L28.9926 35.9898ZM27.1101 28.8263L27.7025 28.7309V28.7309L27.1101 28.8263ZM26.4236 18.0509L26.012 17.6143L25.8236 17.792V18.0509H26.4236ZM27.1371 9.55322V8.95322H26.5371V9.55322H27.1371ZM27.1375 9.55322V10.1532H27.7375V9.55322H27.1375ZM27.1375 7.26611H27.7375V6.66611H27.1375V7.26611ZM15.2416 9.55322V8.95322H14.6416V9.55322H15.2416ZM24.758 9.55322H25.358V8.95322H24.758V9.55322ZM15.2416 16.4172H14.6416V17.0172H15.2416V16.4172ZM24.758 16.4172V17.0172H25.358V16.4172H24.758ZM15.9555 18.7051V18.1051H15.3555V18.7051H15.9555ZM24.0445 18.7051H24.6445V18.1051H24.0445V18.7051ZM24.759 29.1766L25.3514 29.0812V29.0812L24.759 29.1766ZM26.7554 36.7682L27.317 36.5569L26.7554 36.7682ZM30.019 45.1681L29.4611 45.389L29.4619 45.3909L30.019 45.1681ZM30.0191 45.1684L30.577 44.9475L30.5762 44.9456L30.0191 45.1684ZM30.9868 47.6183L31.0998 48.2076L31.8094 48.0715L31.5453 47.399L30.9868 47.6183ZM27.4014 48.2367L27.4904 48.8301H27.4904L27.4014 48.2367ZM27.3159 48.2496L26.7517 48.4539L26.9191 48.9158L27.4048 48.8429L27.3159 48.2496ZM12.6736 48.2799L12.5869 48.8736L13.0742 48.9447L13.239 48.4807L12.6736 48.2799ZM12.5898 48.2676L12.5031 48.8614L12.5031 48.8614L12.5898 48.2676ZM8.99684 47.66L8.43833 47.4407L8.17366 48.1149L8.88535 48.2495L8.99684 47.66ZM9.98102 45.1682L9.42319 44.9472H9.42319L9.98102 45.1682ZM13.2446 36.7682L12.683 36.5569L13.2446 36.7682ZM15.241 29.1766L14.6486 29.0811L15.241 29.1766ZM8.3467 49.3303L8.45978 48.7411L7.96264 48.6457L7.7849 49.1197L8.3467 49.3303ZM8.34667 49.3304L7.78487 49.1197L7.53513 49.7857L8.23366 49.9197L8.34667 49.3304ZM9.03936 49.461L8.93006 50.051L9.14873 48.8711L9.03936 49.461ZM8.03972 50.133L8.15341 49.5439L7.65788 49.4483L7.47878 49.9201L8.03972 50.133ZM4.29787 68.6991L4.89787 68.7049V68.6991H4.29787ZM3.89331 110.618L4.49328 110.624L3.89331 110.618ZM20 116.852V117.452H20.6V116.852H20ZM20 116.852V116.252H19.4V116.852H20ZM36.1067 110.617L35.5067 110.623L36.1067 110.617ZM35.7021 68.6989H35.1021L35.1022 68.7047L35.7021 68.6989ZM31.9441 50.0903L32.505 49.8772L32.3254 49.4045L31.8291 49.5014L31.9441 50.0903ZM27.7475 50.8211L27.6591 50.2277L27.7475 50.8211ZM27.5261 50.8541L27.4377 50.2606L27.0167 50.3233L26.9368 50.7413L27.5261 50.8541ZM12.4805 50.8861L13.0691 50.7695L12.9866 50.3532L12.5666 50.2923L12.4805 50.8861ZM12.2568 50.8537L12.1707 51.4475H12.1707L12.2568 50.8537ZM27.6133 49.9168L28.2133 49.9147L27.0133 49.9189L27.6133 49.9168ZM27.6133 49.9333L28.2133 49.9366V49.9333H27.6133ZM27.613 49.9862L27.013 49.9829L27.0098 50.5862H27.613V49.9862ZM27.6131 49.9861V50.5861H28.2099L28.2131 49.9893L27.6131 49.9861ZM27.6133 49.9345L28.2133 49.9376V49.9345H27.6133ZM31.1852 49.3748L31.073 48.7854L31.2973 49.9643L31.1852 49.3748ZM31.6081 49.2936L31.7224 49.8827L31.7224 49.8826L31.6081 49.2936ZM31.637 49.288L31.7515 49.877L32.4369 49.7438L32.2021 49.0862L31.637 49.288ZM31.637 49.2879L32.202 49.0861L32.0286 48.6006L31.5226 48.699L31.637 49.2879ZM15.2416 3.74771H24.758V2.54771H15.2416V3.74771ZM15.8416 7.26611V3.14771H14.6416V7.26611H15.8416ZM24.758 6.66611L15.2416 6.66611V7.86611L24.758 7.86611V6.66611ZM24.158 3.14771V7.26611H25.358V3.14771H24.158ZM26.5371 3.14771V7.26611H27.7371V3.14771H26.5371ZM24.758 1.45986C25.7629 1.45986 26.5371 2.23744 26.5371 3.14771H27.7371C27.7371 1.53089 26.381 0.259863 24.758 0.259863V1.45986ZM15.2416 1.45986H24.758V0.259863H15.2416V1.45986ZM13.4625 3.14771C13.4625 2.23744 14.2367 1.45986 15.2416 1.45986V0.259863C13.6186 0.259863 12.2625 1.53089 12.2625 3.14771H13.4625ZM13.4625 16.4172V3.14771H12.2625V16.4172H13.4625ZM13.9879 17.6146C13.6598 17.3054 13.4625 16.8816 13.4625 16.4172H12.2625C12.2625 17.2331 12.6118 17.9667 13.1649 18.4879L13.9879 17.6146ZM14.1764 20.2535V18.0513H12.9764V20.2535H14.1764ZM13.4823 28.9217C13.9443 26.0538 14.1764 23.1558 14.1764 20.2535H12.9764C12.9764 23.0918 12.7495 25.9259 12.2975 28.7309L13.4823 28.9217ZM11.569 36.2011C12.4547 33.8469 13.0827 31.4021 13.4823 28.9217L12.2975 28.7309C11.9096 31.1389 11.301 33.5055 10.4458 35.7786L11.569 36.2011ZM8.37085 44.4245C9.33129 42.0028 10.4005 39.3069 11.569 36.2011L10.4458 35.7786C9.28154 38.8732 8.21596 41.56 7.25537 43.9822L8.37085 44.4245ZM2.51876 68.6885C2.51954 59.1881 4.6024 53.9267 8.37085 44.4245L7.25537 43.9822C3.48383 53.4921 1.31956 58.9398 1.31876 68.6884L2.51876 68.6885ZM2.51876 68.6938V68.6885H1.31876V68.6938H2.51876ZM2.11428 110.602L2.51873 68.6996L1.31879 68.688L0.914331 110.591L2.11428 110.602ZM10.3166 118.54C5.73406 118.54 2.0723 114.952 2.11428 110.602L0.914331 110.591C0.865483 115.652 5.11213 119.74 10.3166 119.74V118.54ZM20 118.54H10.3166V119.74H20V118.54ZM19.4 119.14V119.14H20.6V119.14H19.4ZM29.6834 118.54H20V119.74H29.6834V118.54ZM37.8857 110.602C37.9277 114.952 34.2659 118.54 29.6834 118.54V119.74C34.8879 119.74 39.1345 115.652 39.0857 110.59L37.8857 110.602ZM37.4813 68.6994L37.8857 110.602L39.0857 110.59L38.6812 68.6878L37.4813 68.6994ZM37.4812 68.6883V68.6936H38.6812V68.6883H37.4812ZM31.6292 44.4245C35.3976 53.9265 37.4805 59.1879 37.4812 68.6883L38.6812 68.6882C38.6804 58.9396 36.5162 53.492 32.7446 43.9821L31.6292 44.4245ZM31.6276 44.4205L31.6277 44.4208L32.7461 43.9858L32.746 43.9856L31.6276 44.4205ZM28.431 36.2011C29.5995 39.3067 30.6687 42.0026 31.6291 44.4243L32.7445 43.9819C31.784 41.5598 30.7184 38.873 29.5542 35.7785L28.431 36.2011ZM26.5177 28.9218C26.9173 31.4021 27.5453 33.8469 28.431 36.2011L29.5542 35.7785C28.699 33.5055 28.0904 31.1389 27.7025 28.7309L26.5177 28.9218ZM25.8236 20.2536C25.8236 23.1558 26.0557 26.0538 26.5177 28.9218L27.7025 28.7309C27.2505 25.926 27.0236 23.0919 27.0236 20.2536H25.8236ZM25.8236 18.0509V20.2536H27.0236V18.0509H25.8236ZM26.5371 16.4172C26.5371 16.8814 26.3399 17.3051 26.012 17.6143L26.8352 18.4874C27.388 17.9662 27.7371 17.2328 27.7371 16.4172H26.5371ZM26.5371 9.55322V16.4172H27.7371V9.55322H26.5371ZM27.1375 8.95322H27.1371V10.1532H27.1375V8.95322ZM26.5375 7.26611V9.55322H27.7375V7.26611H26.5375ZM27.1371 7.86611H27.1375V6.66611H27.1371V7.86611ZM15.2416 10.1532L24.758 10.1532V8.95322L15.2416 8.95322V10.1532ZM15.8416 16.4172L15.8416 9.55322H14.6416L14.6416 16.4172H15.8416ZM24.758 15.8172H15.2416V17.0172H24.758V15.8172ZM24.158 9.55322V16.4172H25.358V9.55322H24.158ZM15.3555 18.7051V20.2535H16.5555V18.7051H15.3555ZM24.0445 18.1051H15.9555V19.3051H24.0445V18.1051ZM24.6445 20.2536V18.7051H23.4445V20.2536H24.6445ZM25.3514 29.0812C24.8808 26.1604 24.6445 23.2091 24.6445 20.2536H23.4445C23.4445 23.2731 23.6859 26.2882 24.1667 29.272L25.3514 29.0812ZM27.317 36.5569C26.4051 34.1331 25.7608 31.622 25.3514 29.0812L24.1667 29.272C24.5877 31.8852 25.2514 34.4745 26.1938 36.9794L27.317 36.5569ZM30.5768 44.9471C29.6078 42.5009 28.5207 39.7563 27.317 36.5569L26.1938 36.9794C27.4017 40.1897 28.4923 42.9431 29.4611 45.389L30.5768 44.9471ZM30.5762 44.9456L30.5761 44.9453L29.4619 45.3909L29.462 45.3913L30.5762 44.9456ZM31.5453 47.399C31.237 46.6138 30.914 45.7984 30.5769 44.9475L29.4613 45.3894C29.7985 46.2407 30.1208 47.0543 30.4283 47.8376L31.5453 47.399ZM27.4904 48.8301C28.6355 48.6584 29.8311 48.4508 31.0998 48.2076L30.8739 47.029C29.6179 47.2698 28.4385 47.4745 27.3124 47.6434L27.4904 48.8301ZM27.4048 48.8429L27.4904 48.8301L27.3125 47.6434L27.2269 47.6562L27.4048 48.8429ZM20.0002 44.4706C23.2853 44.4706 25.9422 46.2194 26.7517 48.4539L27.88 48.0452C26.857 45.2214 23.657 43.2706 20.0002 43.2706V44.4706ZM13.239 48.4807C14.0372 46.2334 16.7016 44.4706 20.0002 44.4706V43.2706C16.3292 43.2706 13.1176 45.2369 12.1082 48.0791L13.239 48.4807ZM12.5031 48.8614L12.5869 48.8736L12.7603 47.6862L12.6765 47.6739L12.5031 48.8614ZM8.88535 48.2495C10.1587 48.4903 11.3574 48.6941 12.5031 48.8614L12.6765 47.6739C11.5501 47.5095 10.3681 47.3086 9.10832 47.0704L8.88535 48.2495ZM9.42319 44.9472C9.08011 45.8133 8.75165 46.6426 8.43833 47.4407L9.55535 47.8792C9.86787 47.0831 10.1956 46.2556 10.5389 45.3891L9.42319 44.9472ZM12.683 36.5569C11.4793 39.7564 10.3922 42.5009 9.42319 44.9472L10.5389 45.3891C11.5077 42.9431 12.5983 40.1898 13.8062 36.9795L12.683 36.5569ZM14.6486 29.0811C14.2392 31.622 13.5949 34.1331 12.683 36.5569L13.8062 36.9795C14.7486 34.4745 15.4123 31.8852 15.8333 29.272L14.6486 29.0811ZM15.3555 20.2535C15.3555 23.2091 15.1192 26.1603 14.6486 29.0811L15.8333 29.272C16.3141 26.2881 16.5555 23.2731 16.5555 20.2535H15.3555ZM7.7849 49.1197C7.78692 49.1143 7.78871 49.1098 7.7885 49.1103H7.7885C7.7885 49.1103 7.78849 49.1103 7.78849 49.1103C7.78849 49.1103 7.78849 49.1103 7.78849 49.1103C7.78849 49.1103 7.78848 49.1104 7.78848 49.1104C7.78847 49.1104 7.78845 49.1104 7.78843 49.1105C7.78839 49.1106 7.78833 49.1108 7.78825 49.111C7.78809 49.1114 7.78783 49.112 7.78752 49.1128C7.7869 49.1144 7.78597 49.1168 7.78487 49.1197L8.90847 49.5411C8.90645 49.5465 8.90466 49.551 8.90487 49.5504C8.90488 49.5504 8.90488 49.5504 8.90488 49.5504C8.90488 49.5504 8.90488 49.5504 8.90488 49.5504C8.90488 49.5504 8.90489 49.5504 8.90489 49.5504C8.9049 49.5504 8.90492 49.5503 8.90494 49.5503C8.90498 49.5502 8.90504 49.55 8.90512 49.5498C8.90528 49.5494 8.90554 49.5488 8.90585 49.548C8.90647 49.5464 8.9074 49.5439 8.9085 49.541L7.7849 49.1197ZM9.14873 48.8711C8.92145 48.829 8.69184 48.7856 8.45978 48.7411L8.23362 49.9196C8.46807 49.9646 8.70015 50.0084 8.92999 50.051L9.14873 48.8711ZM8.23366 49.9197C8.46812 49.9646 8.70021 50.0084 8.93006 50.051L9.14866 48.8711C8.92137 48.829 8.69175 48.7857 8.45968 48.7412L8.23366 49.9197ZM7.47878 49.9201C4.99902 56.453 3.69787 61.172 3.69787 68.6938H4.89787C4.89787 61.3645 6.15271 56.7951 8.60067 50.346L7.47878 49.9201ZM3.69787 68.6938V68.6991H4.89787V68.6938H3.69787ZM3.6979 68.6934L3.29334 110.612L4.49328 110.624L4.89785 68.7049L3.6979 68.6934ZM3.29334 110.612C3.25677 114.402 6.43471 117.452 10.3166 117.452V116.252C7.05664 116.252 4.46358 113.702 4.49328 110.624L3.29334 110.612ZM10.3166 117.452H20V116.252H10.3166V117.452ZM20.6 116.852V116.852H19.4V116.852H20.6ZM20 117.452H29.6834V116.252H20V117.452ZM29.6834 117.452C33.5653 117.452 36.7432 114.401 36.7067 110.612L35.5067 110.623C35.5364 113.701 32.9434 116.252 29.6834 116.252V117.452ZM36.7067 110.612L36.3021 68.6931L35.1022 68.7047L35.5067 110.623L36.7067 110.612ZM36.3021 68.6989V68.6936H35.1021V68.6989H36.3021ZM36.3021 68.6936C36.3021 61.1553 34.9952 56.4321 32.505 49.8772L31.3832 50.3034C33.8418 56.775 35.1021 61.3484 35.1021 68.6936H36.3021ZM31.8291 49.5014C30.3561 49.7891 28.9766 50.0314 27.6591 50.2277L27.8358 51.4146C29.1749 51.2151 30.5725 50.9695 32.0591 50.6792L31.8291 49.5014ZM27.6591 50.2277L27.4377 50.2606L27.6145 51.4476L27.8358 51.4146L27.6591 50.2277ZM26.9368 50.7413C26.4499 53.2862 23.6186 55.3961 20.0002 55.3961V56.5961C24.0049 56.5961 27.4882 54.2448 28.1154 50.9669L26.9368 50.7413ZM20.0002 55.3961C16.3955 55.3961 13.571 53.3017 13.0691 50.7695L11.892 51.0028C12.538 54.262 16.0097 56.5961 20.0002 56.5961V55.3961ZM12.5666 50.2923L12.3428 50.2599L12.1707 51.4475L12.3945 51.4799L12.5666 50.2923ZM12.3428 50.2599C11.0221 50.0685 9.63565 49.8299 8.15341 49.5439L7.92604 50.7222C9.42289 51.011 10.828 51.2529 12.1707 51.4475L12.3428 50.2599ZM27.0133 49.9189C27.0133 49.9232 27.0133 49.9249 27.0133 49.9333H28.2133C28.2133 49.9308 28.2133 49.9215 28.2133 49.9148L27.0133 49.9189ZM27.0133 49.9301L27.013 49.9829L28.213 49.9894L28.2133 49.9366L27.0133 49.9301ZM27.613 50.5862C27.6413 50.5862 27.6658 50.5841 27.6852 50.5818C27.7046 50.5794 27.7208 50.5765 27.7326 50.5741C27.7444 50.5717 27.7537 50.5694 27.7591 50.5681C27.7619 50.5674 27.7642 50.5668 27.7655 50.5664C27.7662 50.5663 27.7668 50.5661 27.7671 50.566C27.7673 50.566 27.7674 50.5659 27.7675 50.5659C27.7676 50.5659 27.7676 50.5659 27.7676 50.5659C27.7676 50.5659 27.7676 50.5659 27.7676 50.5659C27.7676 50.5659 27.7676 50.5659 27.7676 50.5659C27.7676 50.5659 27.7676 50.5659 27.7676 50.5659C27.7684 50.5657 27.7641 50.5668 27.7591 50.5681C27.7538 50.5694 27.7444 50.5717 27.7326 50.5741C27.7208 50.5765 27.7047 50.5794 27.6853 50.5818C27.6658 50.5841 27.6414 50.5861 27.6131 50.5861V49.3861C27.5848 49.3861 27.5603 49.3881 27.5409 49.3905C27.5215 49.3929 27.5053 49.3958 27.4935 49.3982C27.4817 49.4006 27.4723 49.4029 27.467 49.4042C27.4642 49.4049 27.4619 49.4055 27.4606 49.4058C27.4599 49.406 27.4593 49.4062 27.459 49.4063C27.4588 49.4063 27.4587 49.4063 27.4586 49.4064C27.4585 49.4064 27.4585 49.4064 27.4585 49.4064C27.4585 49.4064 27.4585 49.4064 27.4585 49.4064C27.4585 49.4064 27.4585 49.4064 27.4584 49.4064H27.4584C27.4577 49.4066 27.462 49.4055 27.4669 49.4042C27.4723 49.4029 27.4817 49.4006 27.4934 49.3982C27.5052 49.3958 27.5214 49.3929 27.5408 49.3905C27.5602 49.3882 27.5847 49.3862 27.613 49.3862V50.5862ZM28.2131 49.9893L28.2133 49.9376L27.0133 49.9313L27.0131 49.983L28.2131 49.9893ZM28.2133 49.9345C28.2133 49.9278 28.2133 49.9212 28.2133 49.9147L27.0133 49.919C27.0133 49.9242 27.0133 49.9294 27.0133 49.9345H28.2133ZM31.2973 49.9643C31.4381 49.9375 31.5798 49.9103 31.7224 49.8827L31.4939 48.7046C31.3528 48.732 31.2126 48.7589 31.0731 48.7854L31.2973 49.9643ZM31.7224 49.8826C31.732 49.8808 31.7417 49.8789 31.7515 49.877L31.5226 48.699C31.5131 48.7009 31.5035 48.7027 31.4938 48.7046L31.7224 49.8826ZM32.2021 49.0862C32.1984 49.0761 32.1952 49.0678 32.193 49.0625C32.1919 49.0598 32.191 49.0576 32.1905 49.0563C32.1902 49.0556 32.19 49.0551 32.1898 49.0547C32.1897 49.0546 32.1897 49.0544 32.1897 49.0543C32.1896 49.0543 32.1896 49.0543 32.1896 49.0542C32.1896 49.0542 32.1896 49.0542 32.1896 49.0542C32.1896 49.0542 32.1896 49.0542 32.1896 49.0542C32.1896 49.0542 32.1896 49.0542 32.1896 49.0542C32.1893 49.0536 32.1911 49.0576 32.193 49.0624C32.1952 49.0678 32.1984 49.076 32.202 49.0861L31.072 49.4897C31.0756 49.4999 31.0788 49.5081 31.081 49.5135C31.0821 49.5162 31.083 49.5184 31.0836 49.5197C31.0838 49.5204 31.0841 49.5209 31.0842 49.5212C31.0843 49.5214 31.0843 49.5216 31.0844 49.5216C31.0844 49.5217 31.0844 49.5217 31.0844 49.5217C31.0844 49.5217 31.0844 49.5218 31.0844 49.5218C31.0844 49.5218 31.0844 49.5218 31.0844 49.5218C31.0844 49.5218 31.0844 49.5218 31.0844 49.5218H31.0844C31.0847 49.5224 31.083 49.5184 31.081 49.5135C31.0789 49.5082 31.0756 49.5 31.072 49.4898L32.2021 49.0862ZM31.5226 48.699C31.3717 48.7283 31.2219 48.7571 31.073 48.7854L31.2974 49.9643C31.4478 49.9356 31.5991 49.9065 31.7514 49.8769L31.5226 48.699ZM24.6342 49.9333C24.6342 51.1958 23.1163 53.1083 20.0002 53.1083V54.3083C23.5447 54.3083 25.8342 52.0708 25.8342 49.9333H24.6342ZM20.0002 46.7584C23.1163 46.7584 24.6342 48.6709 24.6342 49.9333H25.8342C25.8342 47.7959 23.5447 45.5584 20.0002 45.5584V46.7584ZM15.3662 49.9333C15.3662 48.6709 16.8841 46.7584 20.0002 46.7584V45.5584C16.4557 45.5584 14.1662 47.7959 14.1662 49.9333H15.3662ZM20.0002 53.1083C16.8841 53.1083 15.3662 51.1958 15.3662 49.9333H14.1662C14.1662 52.0708 16.4557 54.3083 20.0002 54.3083V53.1083Z" fill="url(#paint1_linear_1402_2476)" mask="url(#path-1-outside-1_1402_2476)"/>
<path fill-rule="evenodd" clip-rule="evenodd" d="M15.4553 69.4739C15.5172 69.4049 15.6073 69.3324 15.6556 69.3125C15.7817 69.2608 16.5286 69.2979 16.9237 69.3757C17.7456 69.5374 18.3645 69.8482 18.9261 70.3811C19.2451 70.6839 19.3663 70.8333 19.5219 71.1155C19.8414 71.6954 19.9984 72.2278 20.049 72.9029C20.095 73.5166 19.9263 73.702 19.3215 73.7022C18.6215 73.7025 17.7402 73.4774 17.1463 73.1468C16.7643 72.934 16.2787 72.5002 16.0295 72.1489C15.6131 71.5617 15.3429 70.7063 15.3429 69.9752C15.3429 69.6254 15.3507 69.5904 15.4553 69.4739ZM21.9798 70.329C22.0029 70.3101 22.0279 70.2934 22.0602 70.2713C22.2761 70.124 22.466 70.1664 23.3678 70.5635C24.2329 70.9445 24.3398 71.0227 24.2232 71.1895C24.1867 71.2417 24.009 71.3964 23.8284 71.5333C23.3541 71.8929 22.646 72.4794 22.4186 72.7012C22.0678 73.0432 21.4573 73.7871 20.9853 74.4476C20.7312 74.8032 20.5298 75.1002 20.5377 75.1076C20.5456 75.115 20.7218 75.0579 20.9291 74.9807C21.7287 74.6832 22.6052 74.5218 23.4367 74.519C24.0575 74.5169 24.4966 74.5762 25.0176 74.7325C25.7425 74.9499 26.3009 75.2687 26.867 75.7883C27.7144 76.5662 28.2363 77.5915 28.4599 78.9179C28.5321 79.3467 28.5319 80.7833 28.4595 81.2887C28.2148 82.9961 27.6761 84.595 26.8751 85.9906C25.8234 87.8229 24.4654 88.9941 22.9489 89.3766C22.5863 89.4681 22.4487 89.4823 21.9191 89.4824C21.263 89.4827 20.8858 89.4203 20.3059 89.2157L20.025 89.1166L19.6915 89.2307C19.123 89.4251 18.7346 89.48 18.0868 89.4574C17.2114 89.4269 16.5982 89.2326 15.7943 88.7309C14.1939 87.7324 12.7882 85.6662 12.0171 83.1792C11.5093 81.5413 11.3788 79.882 11.6578 78.6121C11.9437 77.3114 12.7685 76.1023 13.8463 75.404C15.3354 74.4391 17.17 74.2779 19.0669 74.9453C19.2951 75.0256 19.4865 75.0855 19.4923 75.0784C19.4981 75.0713 19.6083 74.8166 19.7372 74.5123C20.246 73.3116 20.9444 71.9392 21.5268 70.9958C21.8349 70.4967 21.8946 70.3985 21.9798 70.329ZM22.5042 76.5845C22.5042 76.5845 24.7692 76.3795 25.8771 77.1192C27.1348 77.9589 26.6319 81.4049 26.6319 81.4049C26.6319 81.4049 25.8495 79.6524 25.084 78.7275C24.2431 77.7114 22.5042 76.5845 22.5042 76.5845Z" fill="url(#paint2_linear_1402_2476)"/>
<defs>
<linearGradient id="paint0_linear_1402_2476" x1="39.0497" y1="83.2839" x2="0.54053" y2="82.9066" gradientUnits="userSpaceOnUse">
<stop stop-color="#1B2AC9"/>
<stop offset="1" stop-color="#0073F0"/>
</linearGradient>
<linearGradient id="paint1_linear_1402_2476" x1="39.0497" y1="83.2839" x2="0.54053" y2="82.9066" gradientUnits="userSpaceOnUse">
<stop stop-color="#1B2AC9"/>
<stop offset="1" stop-color="#0073F0"/>
</linearGradient>
<linearGradient id="paint2_linear_1402_2476" x1="28.7731" y1="83.3607" x2="11.077" y2="82.8937" gradientUnits="userSpaceOnUse">
<stop stop-color="#1B2AC9"/>
<stop offset="1" stop-color="#0073F0"/>
</linearGradient>
</defs>
</svg>
