<svg width="58" height="86" viewBox="0 0 58 86" fill="none" xmlns="http://www.w3.org/2000/svg">
<path fill-rule="evenodd" clip-rule="evenodd" d="M31.9685 32.5985C31.3424 32.7652 30.9515 32.9925 30.2995 33.569C29.2505 34.4964 28.2351 36.0755 27.7538 37.5282C27.6611 37.8081 27.5852 38.0686 27.5852 38.107C27.5852 38.1454 27.7893 38.3883 28.0387 38.6468C28.2882 38.9052 28.6361 39.2924 28.8119 39.5072C29.2374 40.0272 29.9986 41.1878 30.3462 41.8464C30.6656 42.4518 30.6136 42.4512 30.9595 41.8533C31.2272 41.3904 31.5046 40.7275 31.6312 40.2477C31.7421 39.8275 31.7491 39.6319 31.717 37.847C31.6918 36.4481 32.0116 35.1018 32.8002 33.2869C32.9705 32.895 33.1099 32.5576 33.1099 32.5372C33.1099 32.4639 32.3134 32.5066 31.9685 32.5985ZM33.7626 32.9313C33.5178 33.4223 33.0672 34.5469 32.8789 35.137C32.5063 36.3045 32.3477 37.4465 32.4364 38.3245C32.4982 38.9372 32.4983 39.5193 32.4365 39.9061C32.3015 40.7517 31.8824 41.7699 31.2882 42.6962C30.9597 43.2082 30.9496 43.2329 31.0025 43.3935C31.087 43.6505 31.113 43.658 31.4137 43.5115C32.1906 43.1333 32.9957 42.9497 33.878 42.9497H34.4414L34.6083 42.6934C35.5422 41.2596 36.2034 39.4647 36.3756 37.8959C36.6197 35.6725 35.7897 33.7012 34.2714 32.8984L33.8817 32.6923L33.7626 32.9313ZM21.2365 36.4829C20.5347 36.6121 19.806 36.9449 19.353 37.3434L19.1677 37.5065L19.5181 37.9698C21.1603 40.141 22.6828 41.4505 24.2704 42.0572C25.659 42.5878 26.7682 43.6542 27.7554 45.4075C27.9495 45.7522 28.1165 46.0591 28.1264 46.0895C28.1364 46.1199 28.3268 45.9573 28.5494 45.7281C29.0293 45.2343 29.595 44.7285 30.0972 44.3443L30.461 44.066L30.3988 43.8559C29.9259 42.2588 28.5485 40.1147 27.1198 38.7516C25.2263 36.9452 23.1262 36.1354 21.2365 36.4829ZM18.5931 38.1715C18.4198 38.4404 18.2109 38.9182 18.1117 39.2729C17.9713 39.7747 17.962 40.6819 18.0911 41.2895C18.3245 42.3883 18.9037 43.7657 19.5489 44.7564C20.6809 46.4945 22.1906 47.8531 24.0051 48.7665C24.6648 49.0986 25.5946 49.444 25.8287 49.444C25.9307 49.444 25.9821 49.3757 26.1902 48.9639C26.4537 48.4425 27.0534 47.4918 27.4096 47.0308L27.633 46.7416L27.3454 46.1897C26.3422 44.2651 25.3577 43.2634 23.9347 42.7193C22.8025 42.2865 21.6045 41.4193 20.415 40.1713C19.9105 39.642 19.1518 38.7323 18.7663 38.1945L18.6673 38.0564L18.5931 38.1715ZM32.9657 43.775C29.7724 44.4975 26.4698 48.3254 25.9261 51.9343C25.6659 53.662 26.195 55.4501 27.2902 56.544L27.5788 56.8322L27.8252 56.5582C28.8589 55.4085 29.6066 54.3708 30.0525 53.4669C30.3515 52.8609 30.4692 52.527 30.8571 51.1838C31.3233 49.5701 31.5268 49.0706 32.0336 48.2965C32.7723 47.1682 33.8359 46.2104 35.7173 44.9788L36.3791 44.5456L36.2697 44.4268C36.1312 44.2762 35.3856 43.9083 35.0075 43.8041C34.5457 43.6768 33.4677 43.6614 32.9657 43.775ZM36.3261 45.4694C35.0847 46.24 34.3514 46.8111 33.5141 47.6596C32.8295 48.3532 32.4917 48.8035 32.1754 49.444C31.9117 49.978 31.8473 50.1836 31.6477 51.1297C31.5571 51.5588 31.4144 52.1077 31.3305 52.3494C30.8439 53.7514 29.8869 55.3108 28.5846 56.8238C28.4313 57.0019 28.3058 57.1595 28.3058 57.1738C28.3058 57.215 28.8776 57.3931 29.1914 57.4496C30.1249 57.6176 31.1244 57.3683 32.3493 56.6617C35.1115 55.0683 37.2184 51.9123 37.6942 48.6548C37.8311 47.7181 37.7772 46.9281 37.5229 46.1447C37.3875 45.7277 37.0513 45.0982 36.9639 45.0982C36.942 45.0982 36.655 45.2653 36.3261 45.4694Z" fill="url(#paint0_linear_1630_9980)"/>
<path d="M7.05023 9.14925C8.19376 7.93031 7.66214 5.82463 8.27405 5.06903C8.88596 4.31343 17.9117 2.5 30.3029 2.5C42.6942 2.5 49.4252 3.55784 50.0371 5.06903C50.649 6.58022 49.9818 8.06974 51.2609 9.14925C52.2094 9.94971 53.4026 9.45149 54.3205 10.056C55.2384 10.6604 56.6152 15.3452 55.6973 15.9496C54.7794 16.5541 51.2609 17.6119 51.2609 17.6119C51.2609 17.6119 50.0371 28.7948 50.0371 29.2481C50.0371 29.7015 51.7199 28.7948 51.7199 29.2481C51.7199 29.7015 47.7424 67.3302 47.7424 67.7836C47.7424 68.237 46.3656 67.4814 46.2127 68.3881C46.0597 69.2948 45.2948 81.2332 45.2948 81.2332C45.2948 81.2332 41.6233 83.5 30.9148 83.5C20.2064 83.5 12.8634 81.2332 12.8634 81.2332C12.8634 81.2332 11.9455 68.9926 11.6396 68.3881C11.3336 67.7836 10.2628 68.5392 10.1098 67.7836C9.95681 67.028 5.97938 29.8526 5.97938 29.2481C5.97938 28.6437 7.66214 29.5504 7.66214 29.2481C7.66214 28.9459 6.43831 17.6119 6.43831 17.6119C6.43831 17.6119 2.61386 17.1586 2.15492 16.403C1.69599 15.6474 2.24189 12.2562 3.99066 10.6604C4.97194 9.76503 6.1422 10.1172 7.05023 9.14925Z" stroke="url(#paint1_linear_1630_9980)" stroke-width="4"/>
<defs>
<linearGradient id="paint0_linear_1630_9980" x1="38.0688" y1="49.9213" x2="17.4902" y2="49.4113" gradientUnits="userSpaceOnUse">
<stop stop-color="#1B2AC9"/>
<stop offset="1" stop-color="#0073F0"/>
</linearGradient>
<linearGradient id="paint1_linear_1630_9980" x1="56.8232" y1="58.9452" x2="0.597471" y2="57.7701" gradientUnits="userSpaceOnUse">
<stop stop-color="#1B2AC9"/>
<stop offset="1" stop-color="#0073F0"/>
</linearGradient>
</defs>
</svg>
