<svg width="59" height="86" viewBox="0 0 59 86" fill="none" xmlns="http://www.w3.org/2000/svg">
<path d="M29.3313 39.5C29.7313 40 30.5313 41.2 30.8313 41.8C31.1313 42.4 31.1313 42.4 31.4313 41.8C31.7313 41.3 31.9313 40.7 32.1313 40.2C32.2313 39.8 32.2313 39.6 32.2313 37.8C32.2313 36.4 32.5313 35.1 33.3313 33.2C33.5313 32.8 33.6313 32.5 33.6313 32.5C33.6313 32.4 32.8313 32.5 32.5313 32.6C31.9313 32.8 31.5313 33 30.8313 33.6C29.8313 34.5 28.7313 36.1 28.3313 37.6C28.2313 37.9 28.1313 38.1 28.1313 38.2C28.1313 38.3 28.3313 38.5 28.6313 38.7C28.8313 38.9 29.1313 39.3 29.3313 39.5Z" fill="white"/>
<path d="M24.8314 42.1C26.2314 42.6 27.3314 43.7 28.3314 45.5C28.5314 45.8 28.7314 46.2 28.7314 46.2C28.7314 46.2 28.9314 46.1 29.1314 45.8C29.6314 45.3 30.1314 44.8 30.6314 44.4L31.0314 44.1L30.9314 43.9C30.4314 42.3 29.0314 40.2 27.6314 38.8C25.7314 37 23.6314 36.2 21.7314 36.5C21.0314 36.6 20.3314 37 19.8314 37.4L19.7314 37.5L20.1314 38C21.7314 40.1 23.2314 41.5 24.8314 42.1Z" fill="white"/>
<path d="M26.7316 49C27.0316 48.5 27.6316 47.5 27.9316 47.1L28.1316 46.8L27.8316 46.2C26.8316 44.3 25.8316 43.3 24.4316 42.7C23.3316 42.3 22.1316 41.4 20.9316 40.2C20.4316 39.7 19.6316 38.8 19.3316 38.2L19.2316 38.1L19.1316 38.2C18.9316 38.5 18.7316 38.9 18.6316 39.3C18.5316 39.8 18.5316 40.7 18.6316 41.3C18.8316 42.4 19.4316 43.8 20.1316 44.8C21.2316 46.5 22.7316 47.9 24.6316 48.8C25.3316 49.1 26.2316 49.5 26.4316 49.5C26.4316 49.4 26.5316 49.4 26.7316 49Z" fill="white"/>
<path d="M32.9317 38.3C33.0317 38.9 33.0317 39.5 32.9317 39.9C32.8317 40.7 32.3317 41.8 31.8317 42.7C31.5317 43.2 31.5317 43.2 31.5317 43.4C31.6317 43.7 31.6317 43.7 31.9317 43.5C32.7317 43.1 33.5317 42.9 34.4317 42.9H35.0317L35.2317 42.6C36.1317 41.2 36.8317 39.4 37.0317 37.8C37.2317 35.6 36.4317 33.6 34.9317 32.8L34.5317 32.6L34.4317 32.8C34.2317 33.3 33.7317 34.4 33.5317 35C33.0317 36.3 32.8317 37.4 32.9317 38.3Z" fill="white"/>
<path d="M31.4316 51.2C31.9316 49.6 32.1316 49.0999 32.6316 48.2999C33.3316 47.1999 34.4316 46.1999 36.3316 44.9999L37.0317 44.5999L36.9317 44.4999C36.8317 44.2999 36.0316 44 35.6316 43.9C35.1316 43.8 34.1316 43.8 33.6316 43.9C30.4316 44.6 27.1317 48.4999 26.6317 52.0999C26.3317 53.7999 26.9317 55.5999 28.0317 56.7L28.3316 56.9999L28.5317 56.7C29.5317 55.5999 30.3317 54.4999 30.7317 53.5999C30.9317 52.8999 31.0316 52.5 31.4316 51.2Z" fill="white"/>
<path d="M37.5317 45.1C37.5317 45.1 37.2317 45.3 36.9317 45.5C35.7317 46.3 34.9317 46.8 34.1317 47.7C33.4317 48.4 33.1317 48.8 32.8317 49.5C32.5317 50 32.5317 50.2 32.3317 51.2C32.2317 51.6 32.1317 52.2 32.0317 52.4C31.5317 53.8 30.6317 55.4 29.3317 56.9C29.1317 57.1 29.0317 57.2 29.0317 57.3C29.0317 57.3 29.6317 57.5 29.9317 57.6C30.8317 57.8 31.8317 57.5 33.1317 56.8C35.9317 55.2 38.0317 52.1 38.4317 48.8C38.5317 47.9 38.5317 47.1 38.2317 46.3C37.9317 45.7 37.6317 45.1 37.5317 45.1Z" fill="white"/>
<path d="M55.9315 8.4C55.1315 7.8 54.2315 7.8 53.6315 7.7C53.4315 7.7 53.1315 7.7 53.0315 7.6C52.9315 7.5 52.9315 7.4 52.8315 6.6C52.8315 5.9 52.7315 5.1 52.3315 4.2C51.9315 3.1 50.8315 0.5 30.8315 0.5C22.0315 0.5 9.03154 1.7 7.23153 3.8C6.63154 4.6 6.53154 5.5 6.43154 6.4C6.43154 6.9 6.33153 7.6 6.13154 7.8C6.03154 7.9 5.93154 7.9 5.53154 8C4.83154 8.2 4.03154 8.4 3.13154 9.2C0.931535 11.2 -0.168465 15.6 0.931535 17.5C1.23154 18 1.73153 18.8 5.13154 19.4C5.43154 22 5.73154 25.2 5.93154 27.2C5.73154 27.2 5.53154 27.3 5.33154 27.5C4.83154 27.9 4.53154 28.5 4.53154 29.2C4.53154 29.9 8.53154 67.4 8.73153 68.1C8.83154 68.5 9.13153 69.6 10.4315 70C10.6315 72.2 11.1315 77 11.4315 81.3L11.5315 82.7L12.8315 83.1C13.1315 83.2 20.5315 85.5 31.4315 85.5C42.4315 85.5 46.4315 83.2 46.8315 82.9L47.7315 82.4L47.8315 81.4C48.0315 77.8 48.4315 72.3 48.6315 69.9C48.9315 69.8 49.3315 69.7 49.6315 69.4C50.0315 69 50.3315 68.5 50.3315 67.9C50.4315 67.1 51.4315 57.4 52.3315 48.8C54.2315 30.5 54.3315 29.6 54.3315 29.3C54.3315 28.6 54.0315 28 53.5315 27.6C53.3315 27.4 53.1315 27.3 52.8315 27.3C53.0315 25.2 53.4315 21.9 53.7315 19.2C55.0315 18.8 56.6315 18.2 57.4315 17.7C57.9315 17.3 58.6315 16.6 58.6315 15C58.5315 13.2 57.5315 9.4 55.9315 8.4ZM51.2315 15.7L49.9315 16.1L49.8315 17.4C49.0315 24.9 48.5315 28.9 48.5315 29.2C48.5315 29.9 48.8315 30.5 49.3315 30.9C49.5315 31.1 49.7315 31.2 49.9315 31.2C49.5315 34.7 48.8315 41.8 48.1315 48.2C47.0315 59.2 46.5315 63.9 46.3315 66C45.0315 66.4 44.7315 67.6 44.6315 68C44.5315 68.8 44.0315 76.2 43.7315 79.8C42.3315 80.5 38.5315 81.5 31.4315 81.5C23.7315 81.5 17.7315 80.3 15.2315 79.7C14.3315 68.4 14.1315 67.9 13.9315 67.5C13.7315 67 13.2315 66.5 12.4315 66.3C11.8315 60.8 9.33154 38.2 8.63154 31.3C8.83154 31.2 9.13154 31.1 9.33154 31L10.1315 30.4V29.4C10.1315 29.3 10.1315 29 8.93153 17.5L8.73153 15.9L7.13154 15.7C6.23153 15.6 5.13154 15.4 4.43154 15.2C4.53154 14.3 5.03154 12.9 5.73153 12.2C5.83153 12.1 6.03154 12 6.43154 11.9C7.03154 11.7 8.03153 11.5 8.93153 10.5C10.0315 9.3 10.2315 7.8 10.3315 6.8C10.3315 6.7 10.3315 6.6 10.3315 6.5C12.5315 5.8 20.2315 4.5 30.7315 4.5C42.5315 4.5 47.5315 5.5 48.7315 6.1C48.8315 6.3 48.8315 6.6 48.8315 7C48.9315 8 49.0315 9.5 50.4315 10.7C51.4315 11.5 52.5315 11.6 53.2315 11.7C53.3315 11.7 53.5315 11.7 53.6315 11.7C53.9315 12.3 54.4315 13.7 54.5315 14.6C53.7315 14.9 52.4315 15.3 51.2315 15.7Z" fill="white"/>
</svg>
