<svg width="112" height="112" viewBox="0 0 112 112" fill="none" xmlns="http://www.w3.org/2000/svg">
<path fill-rule="evenodd" clip-rule="evenodd" d="M50.3261 111.704C8.82853 107.524 -13.7608 60.2146 9.10257 25.3697C32.8979 -10.8958 87.1565 -7.67142 106.187 31.1392C125.53 70.586 93.9706 116.102 50.3261 111.704ZM61.8627 107.762C105.173 102.692 123.606 49.8943 92.8208 19.0877C63.3899 -10.3637 12.959 5.00925 4.84151 45.9069C-1.98639 80.3066 27.0771 111.834 61.8627 107.762ZM31.1296 80.8507C29.2847 80.245 27.8382 78.9504 27.0455 77.1961C26.5694 76.1426 26.5541 75.6683 26.5513 61.9743L26.5484 47.8398L27.1167 46.6182C28.0856 44.5362 30.6071 42.8867 32.8212 42.8867C35.0352 42.8867 37.5567 44.5362 38.5256 46.6182L39.094 47.8398L39.0911 61.9743C39.0879 77.7742 39.1473 77.1939 37.3345 79.0898C35.8506 80.642 32.9771 81.4574 31.1296 80.8507ZM47.6185 80.7149C45.0466 79.9017 43.1631 78.1108 42.312 75.6695C41.7233 73.9811 41.6366 46.2469 42.2137 44.2579C42.4291 43.5159 43.4934 41.7685 45.142 39.4503C49.5561 33.2439 50.3686 31.497 50.6013 27.7131C51.0673 20.1428 55.9566 17.6921 63.2351 21.3808C68.5933 24.0966 69.4263 26.454 67.7197 34.0763C65.8874 42.261 66.3196 42.7055 76.2817 42.8867L82.9215 43.0075L84.2837 43.6768C89.1909 46.0884 89.4186 47.6391 87.1635 63.2778C85.089 77.6646 84.8026 78.4737 81.1495 80.2692L79.7827 80.9411L64.2093 80.9889C51.8083 81.0269 48.4288 80.9711 47.6185 80.7149ZM33.8632 76.9262C35.2856 76.1982 35.2243 76.8583 35.2303 62.1669C35.2339 52.9935 35.1521 48.5251 34.9737 48.1327C34.1861 46.4032 31.4563 46.4032 30.6687 48.1327C30.171 49.2257 30.3268 75.5142 30.8345 76.1378C31.6634 77.1555 32.8245 77.4577 33.8632 76.9262ZM79.251 76.8696C80.5903 76.3096 81.5006 75.029 81.806 73.2749C82.2505 70.7193 82.4557 70.9141 79.3196 70.9141C76.1376 70.9141 75.9055 70.8549 75.4226 69.9203C74.3895 67.9209 75.679 67.0482 79.6668 67.0482H82.7452L82.9116 65.6589C83.0031 64.895 83.1361 64.0251 83.2071 63.726L83.3361 63.1824H79.9621C75.7759 63.1824 74.3487 62.3396 75.3495 60.4592C75.907 59.4118 76.237 59.3323 80.0587 59.3243C84.2181 59.3156 83.8885 59.5091 84.143 56.9251L84.3118 55.2091H80.3506C76.0632 55.2091 75.5151 55.0694 75.2225 53.9027C74.7205 51.9011 76.0021 51.3433 81.1029 51.3433H84.9738V50.7549C84.9738 49.4997 83.9515 47.8952 82.6801 47.1546C82.3589 46.9676 79.9314 46.8326 75.4366 46.7516L68.6761 46.6298L67.4003 45.9582C63.0702 43.6783 62.2787 40.7639 63.9536 33.2642C65.2942 27.2615 65.064 26.4999 61.3769 24.739C56.6829 22.4973 54.8882 23.2737 54.5138 27.7078C54.1096 32.4898 52.9212 35.2058 48.5394 41.3622C45.3371 45.8615 45.6234 44.0272 45.622 60.0414C45.6203 75.4439 45.6418 75.5891 48.0862 76.7947C49.1787 77.3335 77.9757 77.4029 79.251 76.8696Z" fill="url(#paint0_linear_1386_11468)"/>
<defs>
<linearGradient id="paint0_linear_1386_11468" x1="113.707" y1="33.9524" x2="-2.84534" y2="37.6062" gradientUnits="userSpaceOnUse">
<stop stop-color="#1B2AC9"/>
<stop offset="1" stop-color="#0073F0"/>
</linearGradient>
</defs>
</svg>
