<svg width="39" height="126" viewBox="0 0 39 126" fill="none" xmlns="http://www.w3.org/2000/svg">
<path d="M14.2223 2V0H12.2223V2H14.2223ZM14.2223 2.63809V4.63809H16.2223V2.63809H14.2223ZM13.7272 2.63809V0.638088H11.7272V2.63809H13.7272ZM13.7272 3.06348H11.7272V5.06348H13.7272V3.06348ZM14.2223 3.06348H16.2223V1.06348H14.2223V3.06348ZM14.2223 3.63067V5.63067H16.2223V3.63067H14.2223ZM13.7272 3.63067V1.63067H11.7272V3.63067H13.7272ZM13.7272 4.26876H11.7272V6.26876H13.7272V4.26876ZM14.2223 4.26876H16.2223V2.26876H14.2223V4.26876ZM14.2223 4.76505V6.76505H16.2223V4.76505H14.2223ZM13.7272 4.76505V2.76505H11.7272V4.76505H13.7272ZM13.7272 5.47403H11.7272V7.47403H13.7272V5.47403ZM14.2223 5.47403H16.2223V3.47403H14.2223V5.47403ZM14.2223 6.60841V8.60841H16.2223V6.60841H14.2223ZM13.7272 6.60841V4.60841H11.7272V6.60841H13.7272ZM13.7272 7.3883H11.7272V9.3883H13.7272V7.3883ZM14.2223 7.3883H16.2223V5.3883H14.2223V7.3883ZM14.2223 9.16076V11.1608H16.2223V9.16076H14.2223ZM12.8078 9.16076V7.16076H10.8078V9.16076H12.8078ZM12.8078 10.0824H10.8078V12.0824H12.8078V10.0824ZM14.2223 10.0824H16.2223V8.08245H14.2223V10.0824ZM14.2223 12.4221L15.655 13.8176L16.2223 13.2352V12.4221H14.2223ZM6.65495 21.7098L8.36643 22.7446L6.65495 21.7098ZM2.55303 34.0462L0.642037 34.6362L2.55303 34.0462ZM3.04814 60.066L3.94467 61.8538L5.05873 61.2951L5.04807 60.0489L3.04814 60.066ZM6.44278 84.8096L4.50215 84.3259L4.46115 84.4905L4.44842 84.6595L6.44278 84.8096ZM3.68459 98.9184L1.70914 98.6061L1.69624 98.6876L1.69011 98.77L3.68459 98.9184ZM2.97736 108.419L4.39333 109.831L4.91682 109.307L4.97185 108.567L2.97736 108.419ZM3.26037 114.729L1.26624 114.882L3.26037 114.729ZM8.70591 121.961L10.6038 121.33L9.74018 118.732L7.52778 120.344L8.70591 121.961ZM16.839 122.599L18.3403 123.92L18.4013 123.851L18.4556 123.776L16.839 122.599ZM30.9129 121.677L31.8862 119.93L30.2365 119.011L29.2244 120.605L30.9129 121.677ZM35.0855 117.068L33.2249 116.335L35.0855 117.068ZM36.2171 108.135L34.2172 108.156L34.23 109.376L35.3206 109.923L36.2171 108.135ZM32.5395 81.2647L30.5417 81.1708L32.5395 81.2647ZM35.6513 67.9357L33.6682 67.6768L35.6513 67.9357ZM35.6513 60.066H33.6513V61.0647L34.4497 61.6648L35.6513 60.066ZM35.6513 34.6843L35.1649 32.7443L33.6513 33.1238V34.6843H35.6513ZM35.4392 29.4378L33.4897 29.8844L35.4392 29.4378ZM31.7616 21.7098L30.0569 22.7558L31.7616 21.7098ZM23.9113 12.4221H21.9113V13.2646L22.5142 13.8532L23.9113 12.4221ZM23.9113 10.1533V8.15334H21.9113V10.1533H23.9113ZM25.1843 10.1533V12.1533H27.1843V10.1533H25.1843ZM25.1843 9.30256H27.1843V7.49303L25.3838 7.31254L25.1843 9.30256ZM23.7699 9.16076H21.7699V10.9703L23.5704 11.1508L23.7699 9.16076ZM23.7699 7.3883V5.3883H21.7699V7.3883H23.7699ZM24.2649 7.3883V9.3883H26.2649V7.3883H24.2649ZM24.2649 6.60841H26.2649V4.60841H24.2649V6.60841ZM23.7699 6.60841L21.7853 6.85588L22.0038 8.60841H23.7699V6.60841ZM23.5577 4.90684V2.90684H21.2928L21.5731 5.15431L23.5577 4.90684ZM23.9821 4.90684V6.90684H25.9821V4.90684H23.9821ZM23.9821 4.12696H25.9821V2.12696H23.9821V4.12696ZM23.5577 4.12696H21.5577V6.12696H23.5577V4.12696ZM23.5577 3.63067V1.63067H21.5577V3.63067H23.5577ZM23.9821 3.63067V5.63067H25.9821V3.63067H23.9821ZM23.9821 3.06348H25.9821V1.06348H23.9821V3.06348ZM23.5577 3.06348H21.5577V5.06348H23.5577V3.06348ZM23.5577 2H25.5577V0H23.5577V2ZM23.4163 0H14.2223V4H23.4163V0ZM12.2223 2V2.63809H16.2223V2H12.2223ZM14.2223 0.638088H13.7272V4.63809H14.2223V0.638088ZM11.7272 2.63809V3.06348H15.7272V2.63809H11.7272ZM13.7272 5.06348H14.2223V1.06348H13.7272V5.06348ZM12.2223 3.06348V3.63067H16.2223V3.06348H12.2223ZM14.2223 1.63067H13.7272V5.63067H14.2223V1.63067ZM11.7272 3.63067V4.26876H15.7272V3.63067H11.7272ZM13.7272 6.26876H14.2223V2.26876H13.7272V6.26876ZM12.2223 4.26876V4.76505H16.2223V4.26876H12.2223ZM14.2223 2.76505H13.7272V6.76505H14.2223V2.76505ZM11.7272 4.76505V5.47403H15.7272V4.76505H11.7272ZM13.7272 7.47403H14.2223V3.47403H13.7272V7.47403ZM12.2223 5.47403V6.60841H16.2223V5.47403H12.2223ZM14.2223 4.60841H13.7272V8.60841H14.2223V4.60841ZM11.7272 6.60841V7.3883H15.7272V6.60841H11.7272ZM13.7272 9.3883H14.2223V5.3883H13.7272V9.3883ZM12.2223 7.3883V9.16076H16.2223V7.3883H12.2223ZM14.2223 7.16076H12.8078V11.1608H14.2223V7.16076ZM10.8078 9.16076V10.0824H14.8078V9.16076H10.8078ZM12.8078 12.0824H14.2223V8.08245H12.8078V12.0824ZM12.2223 10.0824V12.4221H16.2223V10.0824H12.2223ZM14.2223 12.4221C12.7896 11.0266 12.7895 11.0267 12.7894 11.0268C12.7893 11.0269 12.7892 11.0271 12.789 11.0272C12.7887 11.0275 12.7884 11.0279 12.7879 11.0283C12.787 11.0293 12.7858 11.0305 12.7843 11.032C12.7813 11.0352 12.7771 11.0395 12.7716 11.0451C12.7607 11.0564 12.745 11.0726 12.7247 11.0936C12.6842 11.1356 12.6253 11.1968 12.5502 11.2755C12.3998 11.433 12.1839 11.6607 11.9178 11.946C11.3862 12.516 10.652 13.3183 9.8397 14.2492C8.23688 16.0862 6.24876 18.5162 4.94347 20.675L8.36643 22.7446C9.48266 20.8985 11.2782 18.6846 12.8537 16.879C13.6306 15.9886 14.3342 15.2199 14.8431 14.6742C15.0973 14.4016 15.3023 14.1854 15.4428 14.0383C15.513 13.9647 15.5671 13.9085 15.6031 13.8712C15.6211 13.8525 15.6346 13.8386 15.6433 13.8296C15.6477 13.8251 15.6509 13.8218 15.6528 13.8198C15.6538 13.8188 15.6545 13.8182 15.6548 13.8178C15.655 13.8176 15.6551 13.8175 15.6551 13.8175C15.6551 13.8175 15.6551 13.8175 15.6551 13.8175C15.655 13.8175 15.655 13.8176 14.2223 12.4221ZM4.94347 20.675C3.30279 23.3885 1.50965 26.1553 1.00598 29.1007L4.94875 29.7749C5.29375 27.7574 6.54922 25.7501 8.36643 22.7446L4.94347 20.675ZM1.00598 29.1007C0.788561 30.3721 0.638213 31.4658 0.561114 32.3212C0.522742 32.747 0.500002 33.1407 0.5 33.4818C0.499998 33.7614 0.511268 34.2127 0.642037 34.6362L4.46402 33.4562C4.52408 33.6507 4.5 33.7215 4.5 33.4819C4.5 33.3037 4.51262 33.0392 4.54497 32.6803C4.60931 31.9664 4.74183 30.9849 4.94875 29.7749L1.00598 29.1007ZM0.642037 34.6362C0.684148 34.7726 0.741123 34.9267 0.82162 35.0856C0.904029 35.2483 1.01531 35.4244 1.16772 35.5944C1.24367 35.6791 1.32382 35.7556 1.40687 35.8243C1.48972 35.8928 1.5671 35.9466 1.63239 35.9881C1.69433 36.0274 1.74599 36.0558 1.76255 36.0649C1.76657 36.0671 1.7709 36.0695 1.7713 36.0697C1.77275 36.0705 1.77125 36.0697 1.76891 36.0684C1.76448 36.0659 1.74937 36.0576 1.72947 36.0458C1.68945 36.0221 1.61347 35.9752 1.52477 35.9049C1.43242 35.8318 1.33446 35.74 1.24088 35.6266C1.14775 35.5137 1.07403 35.3976 1.01663 35.2849C0.960453 35.1746 0.923504 35.0746 0.898946 34.9943C0.87461 34.9146 0.860571 34.8481 0.852331 34.8014C0.844042 34.7544 0.840063 34.7184 0.838148 34.6978C0.834626 34.6599 0.83592 34.6497 0.835919 34.6842L4.83592 34.6844C4.83592 34.5771 4.8328 34.4549 4.82099 34.3278C4.80972 34.2065 4.78597 34.027 4.72428 33.8251C4.65823 33.609 4.54074 33.3409 4.32653 33.0812C4.11025 32.819 3.88122 32.6712 3.76555 32.6028C3.52392 32.4599 3.91082 32.6619 4.14606 32.9243C4.38109 33.1865 4.45541 33.4283 4.46402 33.4562L0.642037 34.6362ZM0.835919 34.6842C0.835908 34.9791 0.889123 41.3405 0.942094 47.6047C0.968624 50.7421 0.995154 53.8616 1.01505 56.1969C1.025 57.3645 1.03329 58.3361 1.0391 59.0157C1.042 59.3555 1.04428 59.6224 1.04583 59.8043C1.04661 59.8952 1.04721 59.9649 1.04761 60.0119C1.04781 60.0354 1.04796 60.0532 1.04806 60.0651C1.04811 60.0711 1.04815 60.0756 1.04818 60.0786C1.04819 60.0801 1.0482 60.0812 1.04821 60.082C1.04821 60.0823 1.04821 60.0826 1.04821 60.0828C1.04822 60.083 1.04822 60.0831 3.04814 60.066C5.04807 60.0489 5.04807 60.0488 5.04807 60.0486C5.04807 60.0484 5.04806 60.0481 5.04806 60.0478C5.04805 60.047 5.04804 60.0459 5.04803 60.0444C5.04801 60.0414 5.04797 60.0369 5.04792 60.0309C5.04781 60.019 5.04766 60.0012 5.04746 59.9777C5.04706 59.9307 5.04646 59.861 5.04569 59.7701C5.04413 59.5882 5.04185 59.3214 5.03895 58.9816C5.03315 58.3019 5.02486 57.3304 5.01491 56.1628C4.99501 53.8276 4.96848 50.7081 4.94195 47.5709C4.8888 41.286 4.83591 34.9566 4.83592 34.6844L0.835919 34.6842ZM3.04814 60.066C2.15162 58.2782 2.14987 58.2791 2.14812 58.2799C2.14754 58.2802 2.14579 58.2811 2.14462 58.2817C2.14229 58.2829 2.13996 58.2841 2.13763 58.2853C2.13297 58.2877 2.12831 58.2901 2.12365 58.2925C2.11433 58.2973 2.10502 58.3023 2.09572 58.3073C2.07711 58.3174 2.05856 58.3278 2.04006 58.3386C2.00305 58.3601 1.9664 58.383 1.93016 58.4073C1.85758 58.4558 1.78747 58.5091 1.72011 58.567C1.58508 58.6831 1.46469 58.8143 1.35817 58.9567C1.14769 59.2382 0.988755 59.5665 0.867478 59.9312L4.66315 61.1933C4.68332 61.1327 4.6658 61.2129 4.56137 61.3525C4.50788 61.424 4.43168 61.5109 4.32757 61.6004C4.27568 61.645 4.21772 61.6895 4.15342 61.7325C4.12133 61.7539 4.08785 61.7749 4.05298 61.7952C4.03556 61.8053 4.01781 61.8153 3.99975 61.8251C3.99072 61.83 3.98161 61.8348 3.97243 61.8396C3.96784 61.842 3.96323 61.8444 3.9586 61.8467C3.95629 61.8479 3.95397 61.8491 3.95165 61.8503C3.95049 61.8509 3.94874 61.8517 3.94816 61.852C3.94641 61.8529 3.94467 61.8538 3.04814 60.066ZM0.867478 59.9312C0.773932 60.2126 0.755161 60.4837 0.75056 60.5389C0.740438 60.6603 0.735034 60.7895 0.731863 60.9114C0.725426 61.1588 0.726121 61.4641 0.731264 61.7953C0.741626 62.4626 0.771283 63.3072 0.811663 64.1577C0.85208 65.0091 0.904007 65.8826 0.960062 66.6086C1.01056 67.2626 1.07609 67.9776 1.16984 68.3846L5.06778 67.4868C5.07037 67.4981 5.05278 67.408 5.02501 67.1542C5.00041 66.9294 4.97437 66.6397 4.94819 66.3007C4.89596 65.6242 4.84626 64.7917 4.80716 63.9681C4.76802 63.1436 4.74027 62.3442 4.73078 61.7332C4.726 61.4252 4.72616 61.1827 4.73051 61.0155C4.73273 60.9301 4.73555 60.8853 4.73673 60.8713C4.74342 60.791 4.73902 60.9652 4.66315 61.1933L0.867478 59.9312ZM1.16984 68.3846C1.28529 68.8859 2.10247 71.6891 2.85008 74.457C3.23663 75.8882 3.61891 77.3588 3.91637 78.6306C4.2237 79.9445 4.40938 80.9189 4.44895 81.4216L8.43662 81.1078C8.37016 80.2634 8.11387 79.0133 7.81124 77.7195C7.49875 76.3836 7.1031 74.8631 6.7117 73.414C5.9034 70.4214 5.16462 67.9073 5.06778 67.4868L1.16984 68.3846ZM4.44895 81.4216C4.54977 82.7026 4.54626 83.5025 4.52463 83.9511C4.51384 84.1746 4.49874 84.307 4.49083 84.3652C4.4869 84.3941 4.48485 84.4039 4.48618 84.3969C4.48685 84.3933 4.48839 84.3854 4.49098 84.3735C4.49227 84.3676 4.49384 84.3606 4.49569 84.3527C4.49662 84.3487 4.49762 84.3445 4.49869 84.34C4.49923 84.3378 4.49979 84.3355 4.50036 84.3332C4.50065 84.332 4.50095 84.3308 4.50124 84.3296C4.50139 84.329 4.50162 84.3281 4.50169 84.3278C4.50192 84.3269 4.50215 84.3259 6.44278 84.8096C8.38342 85.2933 8.38365 85.2924 8.38388 85.2914C8.38396 85.2911 8.38419 85.2902 8.38434 85.2896C8.38465 85.2883 8.38497 85.287 8.38528 85.2858C8.38591 85.2832 8.38654 85.2806 8.38718 85.2779C8.38846 85.2726 8.38976 85.2672 8.39108 85.2615C8.39372 85.2502 8.39645 85.2381 8.39925 85.2253C8.40484 85.1996 8.41072 85.1708 8.41678 85.1387C8.42888 85.0746 8.44174 84.9969 8.45437 84.904C8.4796 84.7185 8.50425 84.4698 8.51998 84.1438C8.55135 83.4935 8.54784 82.5209 8.43662 81.1078L4.44895 81.4216ZM6.44278 84.8096C4.44842 84.6595 4.44843 84.6594 4.44844 84.6593C4.44845 84.6592 4.44845 84.6591 4.44846 84.6591C4.44846 84.659 4.44847 84.6589 4.44847 84.659C4.44846 84.659 4.44844 84.6593 4.44841 84.6597C4.44833 84.6607 4.44819 84.6625 4.44798 84.6653C4.44756 84.6707 4.44686 84.6796 4.44587 84.6918C4.4439 84.7163 4.4408 84.7539 4.43652 84.8035C4.42796 84.9028 4.41468 85.0495 4.39632 85.2337C4.3595 85.6029 4.30261 86.1183 4.22274 86.6999C4.058 87.8995 3.81299 89.2457 3.4901 90.1872L7.27378 91.4848C7.72897 90.1575 8.01438 88.4905 8.18554 87.2441C8.27362 86.6028 8.33605 86.0369 8.37657 85.6307C8.39687 85.4271 8.41177 85.2626 8.4217 85.1475C8.42667 85.0899 8.43041 85.0446 8.43296 85.0129C8.43424 84.9971 8.43522 84.9846 8.43592 84.9757C8.43627 84.9712 8.43654 84.9676 8.43674 84.965C8.43685 84.9636 8.43693 84.9625 8.437 84.9616C8.43703 84.9612 8.43706 84.9608 8.43708 84.9605C8.4371 84.9603 8.43711 84.9601 8.43712 84.9601C8.43713 84.9599 8.43714 84.9597 6.44278 84.8096ZM3.4901 90.1872C3.04658 91.4805 2.59894 93.643 2.27603 95.3579C2.10964 96.2416 1.96824 97.0517 1.86848 97.6405C1.81856 97.9353 1.77894 98.1753 1.75171 98.3422C1.73809 98.4257 1.72756 98.4909 1.72038 98.5357C1.71679 98.558 1.71404 98.5753 1.71215 98.5871C1.71121 98.593 1.71048 98.5976 1.70998 98.6008C1.70973 98.6023 1.70953 98.6036 1.70939 98.6045C1.70932 98.6049 1.70926 98.6053 1.70922 98.6055C1.7092 98.6057 1.70918 98.6058 1.70917 98.6059C1.70915 98.606 1.70914 98.6061 3.68459 98.9184C5.66005 99.2308 5.66004 99.2309 5.66004 99.2309C5.66004 99.2309 5.66004 99.2309 5.66005 99.2308C5.66006 99.2307 5.66009 99.2306 5.66013 99.2303C5.66021 99.2298 5.66035 99.2289 5.66054 99.2277C5.66093 99.2253 5.66154 99.2214 5.66236 99.2163C5.664 99.206 5.6665 99.1903 5.66984 99.1695C5.6765 99.128 5.68648 99.0661 5.69952 98.9862C5.7256 98.8264 5.76388 98.5944 5.81229 98.3087C5.90922 97.7365 6.04627 96.9514 6.20695 96.0981C6.5382 94.3389 6.93924 92.4603 7.27378 91.4848L3.4901 90.1872ZM1.69011 98.77L0.982883 108.27L4.97185 108.567L5.67907 99.0669L1.69011 98.77ZM2.97736 108.419C1.5614 107.006 1.56036 107.007 1.55933 107.008C1.55898 107.009 1.55794 107.01 1.55725 107.011C1.55587 107.012 1.55449 107.013 1.5531 107.015C1.55033 107.018 1.54755 107.02 1.54477 107.023C1.53921 107.029 1.53362 107.035 1.52802 107.041C1.51682 107.052 1.50554 107.065 1.49422 107.077C1.47156 107.102 1.44872 107.128 1.42584 107.156C1.38003 107.212 1.33436 107.273 1.28982 107.34C1.20028 107.475 1.11808 107.629 1.04896 107.802C0.909339 108.152 0.835916 108.549 0.836037 108.987L4.83604 108.985C4.83604 108.998 4.83328 109.111 4.76435 109.284C4.73058 109.369 4.68373 109.46 4.62071 109.555C4.58943 109.602 4.55481 109.649 4.51673 109.695C4.49772 109.718 4.47792 109.741 4.45734 109.764C4.44705 109.775 4.43656 109.787 4.4259 109.798C4.42056 109.804 4.41518 109.809 4.40975 109.815C4.40704 109.817 4.40431 109.82 4.40158 109.823C4.40021 109.824 4.39884 109.826 4.39746 109.827C4.39678 109.828 4.39574 109.829 4.3954 109.829C4.39437 109.83 4.39333 109.831 2.97736 108.419ZM0.836037 108.987C0.836124 109.299 0.909272 110.282 0.988895 111.32C1.03121 111.872 1.07895 112.481 1.12684 113.092C1.17479 113.703 1.22291 114.317 1.26624 114.882L5.25451 114.576C5.21089 114.007 5.1625 113.39 5.11461 112.779C5.06665 112.167 5.01919 111.562 4.97718 111.014C4.9351 110.466 4.89886 109.98 4.87323 109.607C4.86039 109.42 4.85056 109.267 4.84405 109.15C4.83663 109.018 4.83603 108.976 4.83604 108.985L0.836037 108.987ZM1.26624 114.882C1.39697 116.586 2.02407 118.497 2.7544 120.029C3.12541 120.808 3.55291 121.552 4.00941 122.169C4.41439 122.717 5.0283 123.425 5.84093 123.787L7.46898 120.134C7.64516 120.212 7.54304 120.22 7.22536 119.791C6.9592 119.431 6.65739 118.921 6.36539 118.309C5.76969 117.058 5.33595 115.637 5.25451 114.576L1.26624 114.882ZM5.84093 123.787C6.87012 124.246 7.806 124.284 8.55092 124.134C8.91056 124.062 9.20457 123.951 9.42599 123.845C9.53685 123.792 9.63058 123.74 9.70662 123.694C9.7447 123.671 9.77853 123.649 9.80807 123.63C9.82284 123.62 9.83656 123.61 9.84922 123.602C9.85555 123.597 9.86162 123.593 9.86742 123.589C9.87032 123.587 9.87316 123.585 9.87593 123.583C9.87732 123.582 9.87869 123.581 9.88004 123.58C9.88072 123.579 9.88172 123.578 9.88206 123.578C9.88306 123.577 9.88405 123.577 8.70591 121.961C7.52778 120.344 7.52877 120.344 7.52975 120.343C7.53008 120.343 7.53107 120.342 7.53172 120.341C7.53302 120.341 7.53432 120.34 7.53561 120.339C7.53819 120.337 7.54075 120.335 7.54327 120.333C7.54832 120.33 7.55325 120.326 7.55807 120.323C7.56771 120.316 7.5769 120.31 7.58567 120.304C7.60318 120.292 7.61906 120.282 7.63337 120.273C7.66189 120.256 7.68489 120.244 7.70291 120.235C7.73867 120.218 7.75861 120.213 7.76461 120.212C7.80228 120.205 7.71268 120.242 7.46898 120.134L5.84093 123.787ZM8.70591 121.961C6.80803 122.591 6.80823 122.592 6.80844 122.593C6.80851 122.593 6.80872 122.593 6.80887 122.594C6.80916 122.595 6.80945 122.596 6.80976 122.597C6.81037 122.598 6.81101 122.6 6.81168 122.602C6.81303 122.606 6.8145 122.611 6.8161 122.615C6.8193 122.625 6.82302 122.635 6.82726 122.647C6.83575 122.671 6.84638 122.7 6.85925 122.733C6.8849 122.8 6.9199 122.886 6.96502 122.986C7.05398 123.184 7.18899 123.452 7.37902 123.741C7.73534 124.283 8.42199 125.109 9.55729 125.488L10.8249 121.694C10.8992 121.719 10.8433 121.729 10.7223 121.545C10.6736 121.471 10.6363 121.397 10.6125 121.345C10.6013 121.32 10.5949 121.303 10.5932 121.299C10.5924 121.297 10.5929 121.298 10.5946 121.303C10.5955 121.305 10.5967 121.309 10.5982 121.313C10.599 121.315 10.5998 121.318 10.6008 121.321C10.6012 121.322 10.6017 121.323 10.6022 121.325C10.6025 121.326 10.6027 121.326 10.603 121.327C10.6031 121.328 10.6033 121.328 10.6034 121.328C10.6036 121.329 10.6038 121.33 8.70591 121.961ZM9.55729 125.488C10.3101 125.74 11.2542 125.881 12.1115 125.948C12.9866 126.017 13.9317 126.022 14.7266 125.933L14.2838 121.958C13.8058 122.011 13.1243 122.016 12.4259 121.961C11.7095 121.904 11.1331 121.797 10.8249 121.694L9.55729 125.488ZM14.7266 125.933C15.8814 125.805 16.8086 125.226 17.3513 124.818C17.6429 124.598 17.8779 124.387 18.0424 124.228C18.1255 124.148 18.1928 124.079 18.2426 124.026C18.2676 124 18.2883 123.978 18.3046 123.96C18.3128 123.951 18.3199 123.943 18.3258 123.936C18.3288 123.933 18.3315 123.93 18.3339 123.927C18.3351 123.926 18.3362 123.925 18.3373 123.923C18.3378 123.923 18.3383 123.922 18.3388 123.922C18.3391 123.921 18.3395 123.921 18.3396 123.921C18.3399 123.92 18.3403 123.92 16.839 122.599C15.3378 121.277 15.3382 121.277 15.3385 121.276C15.3386 121.276 15.3389 121.276 15.3392 121.276C15.3396 121.275 15.34 121.275 15.3404 121.274C15.3412 121.273 15.342 121.272 15.3427 121.272C15.344 121.27 15.3452 121.269 15.3461 121.268C15.348 121.266 15.3489 121.265 15.349 121.265C15.3491 121.264 15.3459 121.268 15.3393 121.275C15.3262 121.289 15.3006 121.315 15.2644 121.35C15.1902 121.422 15.0804 121.521 14.9476 121.62C14.6417 121.85 14.4019 121.945 14.2838 121.958L14.7266 125.933ZM16.839 122.599C18.4556 123.776 18.4556 123.776 18.4556 123.776C18.4555 123.776 18.4555 123.776 18.4555 123.776C18.4555 123.776 18.4555 123.776 18.4555 123.776C18.4556 123.776 18.4557 123.776 18.456 123.776C18.4565 123.775 18.4575 123.774 18.4588 123.772C18.4616 123.768 18.4659 123.762 18.4717 123.754C18.4834 123.738 18.5012 123.714 18.5244 123.683C18.5707 123.62 18.6384 123.529 18.7215 123.419C18.8887 123.197 19.1147 122.902 19.3549 122.602C19.599 122.297 19.8391 122.011 20.0375 121.796C20.1375 121.688 20.2065 121.621 20.2454 121.586C20.3186 121.52 20.2301 121.617 20.0258 121.713L18.32 118.095C17.9743 118.258 17.7068 118.49 17.575 118.608C17.4089 118.757 17.247 118.923 17.1017 119.079C16.8094 119.395 16.5014 119.766 16.2328 120.101C15.9602 120.442 15.7089 120.77 15.5268 121.012C15.4354 121.133 15.3604 121.234 15.3079 121.305C15.2816 121.34 15.2608 121.369 15.2464 121.388C15.2391 121.398 15.2335 121.406 15.2294 121.411C15.2274 121.414 15.2258 121.416 15.2247 121.418C15.2241 121.419 15.2236 121.419 15.2232 121.42C15.2231 121.42 15.2229 121.42 15.2228 121.421C15.2227 121.421 15.2226 121.421 15.2226 121.421C15.2225 121.421 15.2225 121.421 16.839 122.599ZM20.0258 121.713C20.0976 121.68 20.0955 121.697 20.0197 121.698C19.9322 121.699 19.7769 121.674 19.6177 121.567L21.8399 118.241C20.6378 117.438 19.2766 117.644 18.32 118.095L20.0258 121.713ZM19.6177 121.567C19.5109 121.496 19.4807 121.456 19.6048 121.573C19.6912 121.654 19.8086 121.77 19.958 121.92C20.2689 122.233 20.6151 122.591 21.0379 123.019C21.44 123.427 21.8784 123.865 22.2868 124.247C22.6655 124.601 23.1212 125.005 23.5351 125.272L25.7021 121.91C25.621 121.858 25.396 121.678 25.0188 121.325C24.6714 121 24.2788 120.609 23.8853 120.21C23.5125 119.832 23.0984 119.406 22.7949 119.1C22.6371 118.942 22.4836 118.79 22.3496 118.663C22.2532 118.572 22.0529 118.384 21.8399 118.241L19.6177 121.567ZM23.5351 125.272C24.1518 125.67 24.8661 125.821 25.3846 125.892C25.9531 125.969 26.5517 125.983 27.0987 125.962C27.6501 125.941 28.198 125.884 28.6769 125.802C29.0942 125.73 29.6555 125.608 30.1119 125.379L28.3192 121.803C28.422 121.752 28.3557 121.798 27.9994 121.859C27.7048 121.91 27.3333 121.95 26.9475 121.965C26.5575 121.98 26.2013 121.966 25.9255 121.929C25.5997 121.884 25.5803 121.832 25.7021 121.91L23.5351 125.272ZM30.1119 125.379C30.5883 125.14 30.9684 124.786 31.2071 124.543C31.4738 124.271 31.7166 123.977 31.9113 123.725C32.1094 123.469 32.2786 123.23 32.3975 123.056C32.4576 122.968 32.5062 122.895 32.5408 122.842C32.5581 122.816 32.5721 122.794 32.5823 122.779C32.5873 122.771 32.5915 122.764 32.5947 122.759C32.5963 122.757 32.5977 122.755 32.5988 122.753C32.5993 122.752 32.5998 122.751 32.6003 122.751C32.6005 122.75 32.6007 122.75 32.6009 122.75C32.601 122.75 32.6011 122.749 32.6011 122.749C32.6012 122.749 32.6014 122.749 30.9129 121.677C29.2244 120.605 29.2245 120.605 29.2246 120.605C29.2247 120.605 29.2248 120.604 29.2248 120.604C29.225 120.604 29.2251 120.604 29.2252 120.604C29.2254 120.603 29.2255 120.603 29.2256 120.603C29.2257 120.603 29.2257 120.603 29.2254 120.604C29.2248 120.604 29.2233 120.607 29.2209 120.61C29.2163 120.618 29.2082 120.63 29.1971 120.647C29.1748 120.681 29.1406 120.732 29.0967 120.796C29.0079 120.926 28.8853 121.099 28.7475 121.277C28.6063 121.46 28.4689 121.622 28.3511 121.742C28.2052 121.891 28.1963 121.865 28.3192 121.803L30.1119 125.379ZM30.9129 121.677C29.9396 123.424 29.9406 123.425 29.9415 123.425C29.9418 123.425 29.9427 123.426 29.9434 123.426C29.9446 123.427 29.9459 123.428 29.9472 123.428C29.9498 123.43 29.9524 123.431 29.9551 123.433C29.9604 123.436 29.966 123.439 29.9718 123.442C29.9833 123.448 29.9957 123.454 30.0089 123.461C30.0353 123.475 30.0651 123.489 30.0981 123.505C30.1641 123.535 30.2437 123.569 30.3361 123.603C30.5207 123.671 30.7592 123.741 31.0453 123.786C31.6286 123.877 32.376 123.86 33.2136 123.56L31.8654 119.794C31.7128 119.849 31.6469 119.831 31.6644 119.834C31.6676 119.834 31.6852 119.838 31.7195 119.85C31.7368 119.857 31.7589 119.866 31.7862 119.878C31.7999 119.885 31.815 119.892 31.8316 119.901C31.8399 119.905 31.8486 119.909 31.8577 119.914C31.8623 119.917 31.8669 119.919 31.8716 119.922C31.874 119.923 31.8764 119.924 31.8788 119.926C31.88 119.926 31.8812 119.927 31.8825 119.928C31.8831 119.928 31.884 119.928 31.8843 119.929C31.8852 119.929 31.8862 119.93 30.9129 121.677ZM33.2136 123.56C34.0029 123.277 34.5291 122.7 34.8444 122.282C35.1853 121.832 35.4683 121.312 35.7029 120.825C36.1636 119.869 36.5985 118.684 36.9462 117.802L33.2249 116.335C32.8183 117.366 32.4753 118.308 32.0992 119.089C31.9153 119.471 31.7651 119.723 31.6536 119.87C31.5166 120.051 31.5713 119.899 31.8654 119.794L33.2136 123.56ZM36.9462 117.802C37.6291 116.07 38.008 113.998 38.2205 112.362C38.4346 110.713 38.5001 109.338 38.5 108.915L34.5 108.916C34.5 109.131 34.4507 110.33 34.2538 111.846C34.0553 113.375 33.7269 115.062 33.2249 116.335L36.9462 117.802ZM38.5 108.915C38.4999 108.294 38.3593 107.722 38.0631 107.24C37.9184 107.004 37.751 106.814 37.5804 106.664C37.4961 106.59 37.4129 106.528 37.334 106.475C37.2945 106.449 37.2562 106.426 37.2194 106.404C37.201 106.394 37.1829 106.384 37.1653 106.374C37.1565 106.37 37.1477 106.365 37.1391 106.36C37.1348 106.358 37.1305 106.356 37.1263 106.354C37.1242 106.353 37.122 106.352 37.1199 106.351C37.1189 106.35 37.1173 106.349 37.1168 106.349C37.1152 106.348 37.1136 106.347 36.2171 108.135C35.3206 109.923 35.319 109.922 35.3175 109.922C35.3169 109.921 35.3154 109.92 35.3143 109.92C35.3122 109.919 35.3101 109.918 35.308 109.917C35.3039 109.915 35.2997 109.912 35.2955 109.91C35.2872 109.906 35.2789 109.902 35.2706 109.897C35.254 109.888 35.2375 109.879 35.2212 109.87C35.1885 109.851 35.1562 109.831 35.1245 109.81C35.0611 109.768 35 109.721 34.9422 109.671C34.8246 109.568 34.7279 109.453 34.6539 109.332C34.4991 109.08 34.5 108.898 34.5 108.916L38.5 108.915ZM36.2171 108.135C38.217 108.114 38.217 108.114 38.217 108.114C38.217 108.114 38.217 108.114 38.217 108.113C38.217 108.113 38.217 108.113 38.217 108.112C38.217 108.111 38.2169 108.109 38.2169 108.107C38.2169 108.103 38.2168 108.097 38.2167 108.09C38.2165 108.076 38.2162 108.055 38.2158 108.028C38.215 107.974 38.2137 107.895 38.2116 107.795C38.2074 107.593 38.2003 107.302 38.1884 106.937C38.1647 106.208 38.1218 105.183 38.045 103.992C37.8926 101.628 37.6026 98.5437 37.0448 95.8227L33.1263 96.6259C33.6295 99.0805 33.9052 101.952 34.0533 104.249C34.1268 105.39 34.1679 106.372 34.1906 107.067C34.2019 107.415 34.2086 107.69 34.2124 107.877C34.2144 107.97 34.2156 108.042 34.2163 108.089C34.2167 108.113 34.2169 108.13 34.217 108.142C34.2171 108.147 34.2172 108.151 34.2172 108.154C34.2172 108.155 34.2172 108.156 34.2172 108.156C34.2172 108.156 34.2172 108.157 34.2172 108.157C34.2172 108.157 34.2172 108.156 34.2172 108.156C34.2172 108.156 34.2172 108.156 36.2171 108.135ZM37.0448 95.8227C36.5041 93.1852 35.8733 90.7104 35.3822 88.7323C34.8612 86.6335 34.5625 85.3222 34.5378 84.7267L30.5412 84.8925C30.5871 85.9986 31.031 87.8068 31.5001 89.6961C31.9991 91.706 32.606 94.0878 33.1263 96.6259L37.0448 95.8227ZM34.5378 84.7267C34.4695 83.0804 34.4752 82.679 34.5373 81.3586L30.5417 81.1708C30.4738 82.6161 30.4683 83.1357 30.5412 84.8925L34.5378 84.7267ZM34.5373 81.3586C34.6497 78.9672 35.1841 77.1691 35.8294 75.2117C36.4752 73.2527 37.2593 71.0681 37.6345 68.1947L33.6682 67.6768C33.3512 70.1041 32.7048 71.9139 32.0305 73.9593C31.3558 76.0061 30.6803 78.2222 30.5417 81.1708L34.5373 81.3586ZM37.6345 68.1947C37.8399 66.6218 37.912 64.795 37.9355 63.3556C37.9473 62.6279 37.947 61.9837 37.9437 61.4997C37.942 61.2574 37.9396 61.0551 37.9376 60.9032C37.9366 60.8249 37.9358 60.7666 37.9352 60.7164C37.9349 60.6922 37.9347 60.673 37.9345 60.6578C37.9344 60.6503 37.9344 60.6445 37.9344 60.64C37.9343 60.6378 37.9343 60.6361 37.9343 60.6349C37.9343 60.6337 37.9343 60.6331 37.9343 60.6332H33.9343C33.9343 61.0795 34.0275 64.9249 33.6682 67.6768L37.6345 68.1947ZM37.9343 60.6332C37.9343 59.906 37.6426 59.3604 37.4115 59.0419C37.2931 58.8788 37.1749 58.7526 37.0808 58.6622C37.033 58.6162 36.9889 58.5772 36.9508 58.5452C36.9317 58.5291 36.9138 58.5146 36.8975 58.5016C36.8893 58.4951 36.8815 58.489 36.8741 58.4833C36.8704 58.4804 36.8667 58.4777 36.8632 58.475C36.8614 58.4736 36.8597 58.4723 36.858 58.471C36.8571 58.4704 36.8563 58.4697 36.8554 58.4691C36.855 58.4688 36.8544 58.4683 36.8542 58.4681C36.8535 58.4677 36.8529 58.4672 35.6513 60.066C34.4497 61.6648 34.4491 61.6643 34.4485 61.6639C34.4483 61.6637 34.4477 61.6632 34.4472 61.6629C34.4464 61.6623 34.4456 61.6617 34.4448 61.661C34.4431 61.6598 34.4415 61.6586 34.4399 61.6573C34.4366 61.6548 34.4334 61.6524 34.4302 61.6499C34.4238 61.645 34.4176 61.6401 34.4115 61.6353C34.3993 61.6256 34.3876 61.616 34.3762 61.6065C34.3536 61.5874 34.3316 61.5678 34.3102 61.5473C34.2692 61.5079 34.2218 61.457 34.1742 61.3914C34.0846 61.2679 33.9343 61.0058 33.9343 60.6332H37.9343ZM37.6513 60.066V34.6843H33.6513V60.066H37.6513ZM35.6513 34.6843C36.1377 36.6242 36.1391 36.6239 36.1404 36.6236C36.1409 36.6234 36.1422 36.6231 36.1431 36.6229C36.1449 36.6224 36.1467 36.6219 36.1486 36.6215C36.1522 36.6205 36.1559 36.6196 36.1596 36.6186C36.1671 36.6166 36.1747 36.6146 36.1824 36.6125C36.1979 36.6082 36.214 36.6036 36.2307 36.5986C36.264 36.5885 36.2999 36.5769 36.3379 36.5633C36.4135 36.5362 36.4995 36.5008 36.592 36.4544C36.7762 36.362 36.9965 36.2209 37.2088 36.008C37.6783 35.5372 37.934 34.8941 37.9342 34.1885L33.9342 34.1874C33.9343 33.9073 34.0486 33.5123 34.3766 33.1833C34.5182 33.0413 34.6679 32.9445 34.7991 32.8787C34.865 32.8456 34.9289 32.8191 34.9891 32.7975C35.0193 32.7867 35.0491 32.777 35.0783 32.7682C35.0929 32.7638 35.1074 32.7596 35.1218 32.7556C35.1291 32.7537 35.1363 32.7517 35.1434 32.7498C35.147 32.7489 35.1506 32.748 35.1542 32.747C35.156 32.7466 35.1578 32.7461 35.1596 32.7457C35.1605 32.7454 35.1618 32.7451 35.1623 32.745C35.1636 32.7447 35.1649 32.7443 35.6513 34.6843ZM37.9342 34.1885C37.9343 33.7161 37.8559 31.0305 37.3886 28.9911L33.4897 29.8844C33.8554 31.4808 33.9343 33.8091 33.9342 34.1874L37.9342 34.1885ZM37.3886 28.9911C36.5536 25.3467 35.1619 23.4272 33.4662 20.6638L30.0569 22.7558C31.8564 25.6886 32.8313 27.011 33.4897 29.8844L37.3886 28.9911ZM33.4662 20.6638C32.1205 18.4706 30.0511 16.0339 28.3841 14.2016C27.5385 13.2722 26.7732 12.4731 26.2188 11.9059C25.9413 11.622 25.716 11.3955 25.559 11.2389C25.4805 11.1606 25.419 11.0998 25.3766 11.0579C25.3554 11.037 25.3389 11.0209 25.3275 11.0096C25.3218 11.004 25.3173 10.9997 25.3141 10.9966C25.3125 10.995 25.3113 10.9938 25.3103 10.9928C25.3099 10.9924 25.3095 10.992 25.3092 10.9917C25.309 10.9915 25.3088 10.9914 25.3088 10.9913C25.3086 10.9912 25.3085 10.991 23.9113 12.4221C22.5142 13.8532 22.5141 13.8531 22.514 13.853C22.514 13.853 22.514 13.853 22.514 13.853C22.514 13.853 22.5141 13.8531 22.5143 13.8533C22.5146 13.8536 22.5153 13.8543 22.5163 13.8553C22.5183 13.8572 22.5216 13.8604 22.5261 13.8649C22.5351 13.8737 22.5491 13.8875 22.5678 13.9059C22.6052 13.9428 22.6614 13.9984 22.7345 14.0713C22.8806 14.217 23.0939 14.4314 23.3582 14.7018C23.8875 15.2434 24.6189 16.007 25.4253 16.8934C27.0623 18.6926 28.918 20.8997 30.0569 22.7558L33.4662 20.6638ZM25.9113 12.4221V10.1533H21.9113V12.4221H25.9113ZM23.9113 12.1533H25.1843V8.15334H23.9113V12.1533ZM27.1843 10.1533V9.30256H23.1843V10.1533H27.1843ZM25.3838 7.31254L23.9694 7.17074L23.5704 11.1508L24.9848 11.2926L25.3838 7.31254ZM25.7699 9.16076V7.3883H21.7699V9.16076H25.7699ZM23.7699 9.3883H24.2649V5.3883H23.7699V9.3883ZM26.2649 7.3883V6.60841H22.2649V7.3883H26.2649ZM24.2649 4.60841H23.7699V8.60841H24.2649V4.60841ZM25.7545 6.36095L25.5423 4.65938L21.5731 5.15431L21.7853 6.85588L25.7545 6.36095ZM23.5577 6.90684H23.9821V2.90684H23.5577V6.90684ZM25.9821 4.90684V4.12696H21.9821V4.90684H25.9821ZM23.9821 2.12696H23.5577V6.12696H23.9821V2.12696ZM25.5577 4.12696V3.63067H21.5577V4.12696H25.5577ZM23.5577 5.63067H23.9821V1.63067H23.5577V5.63067ZM25.9821 3.63067V3.06348H21.9821V3.63067H25.9821ZM23.9821 1.06348H23.5577V5.06348H23.9821V1.06348ZM25.5577 3.06348V2H21.5577V3.06348H25.5577ZM23.5577 0H23.4163V4H23.5577V0Z" fill="url(#paint0_linear_1402_2462)"/>
<path fill-rule="evenodd" clip-rule="evenodd" d="M18.9907 56.134C18.5798 56.3294 17.7762 57.1056 17.4562 57.6161C17.1224 58.1487 16.8535 58.7906 16.6684 59.497C16.5572 59.9215 16.5286 60.2152 16.5255 60.967C16.5202 62.2288 16.7118 63.0833 17.1858 63.9114C17.2893 64.0922 17.366 64.2401 17.3563 64.2401C17.3466 64.2401 17.0395 64.1054 16.6739 63.9408C15.7712 63.5344 15.1603 63.3877 14.2024 63.3476C12.9616 63.2955 12.0324 63.5403 11.6594 64.0176C11.5441 64.1651 11.5268 64.2667 11.5356 64.7449C11.5579 65.9569 12.1428 67.2208 13.1691 68.2743C13.42 68.532 13.4226 68.5392 13.2765 68.5679C12.0235 68.8133 11.6892 68.9895 11.5502 69.4782C11.3499 70.182 11.7952 71.7089 12.477 72.6561C12.6053 72.8345 12.7104 73.0017 12.7104 73.0278C12.7104 73.0538 12.5879 73.1049 12.4381 73.1415C12.0034 73.2475 11.7548 73.4267 11.6086 73.7393C11.4962 73.9797 11.4823 74.0954 11.5163 74.5105C11.6201 75.7813 12.2321 76.9484 13.3471 78.0019C14.6341 79.2179 16.284 79.9291 17.8827 79.9573L18.5392 79.9689V83.142C18.5392 86.6484 18.5322 86.5846 18.9474 86.8648C19.0926 86.9628 19.2389 87 19.4793 87C19.8376 87 20.055 86.889 20.2967 86.5827C20.4257 86.4193 20.4292 86.3398 20.4464 83.1914L20.464 79.9673L21.119 79.9556C24.218 79.9005 27.2557 77.3017 27.4838 74.5105C27.5176 74.097 27.5037 73.9794 27.3931 73.7428C27.2409 73.4174 27.057 73.2884 26.5022 73.1183L26.0991 72.9947L26.3323 72.6671C27.1443 71.526 27.5622 69.7583 27.1455 69.2261C26.8853 68.8938 26.5873 68.7721 25.5328 68.5679C25.3918 68.5406 25.4011 68.5218 25.7133 68.1986C26.6436 67.2354 27.1991 66.0645 27.2936 64.8678C27.3277 64.4363 27.3148 64.3395 27.191 64.0974C27.0777 63.8759 26.983 63.79 26.7176 63.6681C25.5442 63.1287 23.5895 63.2465 22.1121 63.9455C21.9105 64.0408 21.7299 64.1189 21.7108 64.1189C21.6917 64.1189 21.7626 63.9565 21.8685 63.758C22.594 62.398 22.6836 60.4248 22.0942 58.7851C21.7619 57.8604 21.0811 56.8945 20.4318 56.4261C19.7848 55.9594 19.4856 55.8988 18.9907 56.134ZM19.7445 58.3758C20.3051 59.1496 20.5335 59.8846 20.5404 60.9367C20.5477 62.0636 20.2108 63.118 19.6505 63.7214L19.4849 63.8998L19.2992 63.6911C19.0438 63.404 18.7037 62.7188 18.5639 62.2096C18.3951 61.5943 18.4081 60.3165 18.5896 59.6848C18.663 59.4296 18.7943 59.0887 18.8814 58.9272C19.0778 58.5628 19.4164 58.1182 19.4973 58.1182C19.5306 58.1182 19.6419 58.2342 19.7445 58.3758ZM14.875 65.246C15.6262 65.4152 16.5282 65.8773 17.1166 66.3946C17.8216 67.0144 18.4752 67.9919 18.4752 68.4267C18.4752 68.5566 18.4601 68.5593 17.8827 68.5303C16.7337 68.4724 15.6012 67.9566 14.6616 67.0632C14.1149 66.5435 13.8116 66.1057 13.6056 65.5389C13.536 65.3475 13.479 65.1815 13.479 65.17C13.479 65.1074 14.5082 65.1634 14.875 65.246ZM25.2933 65.3159C25.2724 65.4076 25.1376 65.7137 24.9937 65.9961C24.7802 66.4151 24.625 66.6116 24.1498 67.0638C23.2058 67.962 22.14 68.4557 20.9893 68.5276L20.4608 68.5606V68.273C20.4608 67.639 21.2846 66.5965 22.2818 65.9686C23.1946 65.3939 23.9203 65.159 24.8017 65.1529L25.3313 65.1493L25.2933 65.3159ZM15.2714 70.567C16.2892 70.9091 17.2711 71.5994 17.871 72.395C18.174 72.7968 18.4752 73.4184 18.4752 73.642C18.4752 73.7686 18.4565 73.7718 17.8827 73.7429C16.7877 73.6878 15.7168 73.2282 14.8044 72.4219C14.1206 71.8176 13.7793 71.3074 13.5121 70.4901L13.4649 70.3454L14.1284 70.3757C14.6229 70.3982 14.9143 70.447 15.2714 70.567ZM25.292 70.5286C25.2118 70.8682 24.827 71.5555 24.5046 71.9347C23.6193 72.9762 22.305 73.6507 20.9893 73.7388L20.4608 73.7742V73.4862C20.4608 72.8517 21.2842 71.8094 22.2815 71.1815C23.16 70.6283 23.9565 70.3703 24.8017 70.3652L25.3313 70.3619L25.292 70.5286ZM15.0183 74.8827C15.5899 75.0417 16.4933 75.4843 16.9203 75.8147C17.6295 76.3634 18.3301 77.3283 18.4511 77.9233L18.4912 78.1203H17.9855C16.1658 78.1203 14.2254 76.7963 13.606 75.1319C13.5189 74.8977 13.5083 74.8055 13.5642 74.7685C13.6738 74.6959 14.6117 74.7696 15.0183 74.8827ZM25.4166 74.7616C25.502 74.7927 25.4954 74.848 25.366 75.1854C24.9113 76.3706 23.7795 77.3988 22.4008 77.8789C21.9458 78.0374 21.7105 78.081 21.1726 78.106L20.5073 78.1369L20.5533 77.9051C20.5786 77.7775 20.6874 77.5079 20.7951 77.3058C21.4347 76.1057 22.8157 75.1144 24.2634 74.8165C24.6827 74.7302 25.255 74.703 25.4166 74.7616Z" fill="url(#paint1_linear_1402_2462)"/>
<defs>
<linearGradient id="paint0_linear_1402_2462" x1="37.0183" y1="87.0162" x2="1.60417" y2="86.7068" gradientUnits="userSpaceOnUse">
<stop stop-color="#1B2AC9"/>
<stop offset="1" stop-color="#0073F0"/>
</linearGradient>
<linearGradient id="paint1_linear_1402_2462" x1="27.7439" y1="77.6025" x2="11.0815" y2="77.3329" gradientUnits="userSpaceOnUse">
<stop stop-color="#1B2AC9"/>
<stop offset="1" stop-color="#0073F0"/>
</linearGradient>
</defs>
</svg>
