<svg width="38" height="126" viewBox="0 0 38 126" fill="none" xmlns="http://www.w3.org/2000/svg">
<path d="M13.7223 2V0H11.7223V2H13.7223ZM13.7223 2.63809V4.63809H15.7223V2.63809H13.7223ZM13.2272 2.63809V0.638088H11.2272V2.63809H13.2272ZM13.2272 3.06348H11.2272V5.06348H13.2272V3.06348ZM13.7223 3.06348H15.7223V1.06348H13.7223V3.06348ZM13.7223 3.63067V5.63067H15.7223V3.63067H13.7223ZM13.2272 3.63067V1.63067H11.2272V3.63067H13.2272ZM13.2272 4.26876H11.2272V6.26876H13.2272V4.26876ZM13.7223 4.26876H15.7223V2.26876H13.7223V4.26876ZM13.7223 4.76505V6.76505H15.7223V4.76505H13.7223ZM13.2272 4.76505V2.76505H11.2272V4.76505H13.2272ZM13.2272 5.47403H11.2272V7.47403H13.2272V5.47403ZM13.7223 5.47403H15.7223V3.47403H13.7223V5.47403ZM13.7223 6.60841V8.60841H15.7223V6.60841H13.7223ZM13.2272 6.60841V4.60841H11.2272V6.60841H13.2272ZM13.2272 7.3883H11.2272V9.3883H13.2272V7.3883ZM13.7223 7.3883H15.7223V5.3883H13.7223V7.3883ZM13.7223 9.16076V11.1608H15.7223V9.16076H13.7223ZM12.3078 9.16076V7.16076H10.3078V9.16076H12.3078ZM12.3078 10.0824H10.3078V12.0824H12.3078V10.0824ZM13.7223 10.0824H15.7223V8.08245H13.7223V10.0824ZM13.7223 12.4221L15.155 13.8176L15.7223 13.2352V12.4221H13.7223ZM6.15495 21.7098L7.86643 22.7446L7.86643 22.7446L6.15495 21.7098ZM2.05303 34.0462L0.142037 34.6362L2.05303 34.0462ZM2.54814 60.066L3.44467 61.8538L4.55873 61.2951L4.54807 60.0489L2.54814 60.066ZM5.94278 84.8096L4.00215 84.3259L3.96115 84.4905L3.94842 84.6595L5.94278 84.8096ZM3.18459 98.9184L1.20914 98.6061L1.19624 98.6876L1.19011 98.77L3.18459 98.9184ZM2.47736 108.419L3.89333 109.831L4.41682 109.307L4.47185 108.567L2.47736 108.419ZM2.76037 114.729L0.766236 114.882L2.76037 114.729ZM8.20591 121.961L10.1038 121.33L9.24018 118.732L7.02778 120.344L8.20591 121.961ZM16.339 122.599L17.8403 123.92L17.9013 123.851L17.9556 123.776L16.339 122.599ZM30.4129 121.677L31.3862 119.93L29.7365 119.011L28.7244 120.605L30.4129 121.677ZM34.5855 117.069L32.7249 116.335L32.7249 116.335L34.5855 117.069ZM35.7171 108.135L33.7172 108.156L33.73 109.376L34.8206 109.923L35.7171 108.135ZM32.0395 81.2647L30.0417 81.1708L32.0395 81.2647ZM35.1513 67.9357L33.1682 67.6768L35.1513 67.9357ZM35.1513 60.066H33.1513V61.0647L33.9497 61.6648L35.1513 60.066ZM35.1513 34.6843L34.6649 32.7443L33.1513 33.1238V34.6843H35.1513ZM34.9392 29.4378L32.9897 29.8844L34.9392 29.4378ZM31.2616 21.7098L29.5569 22.7558L29.5569 22.7558L31.2616 21.7098ZM23.4113 12.4221H21.4113V13.2646L22.0142 13.8532L23.4113 12.4221ZM23.4113 10.1533V8.15334H21.4113V10.1533H23.4113ZM24.6843 10.1533V12.1533H26.6843V10.1533H24.6843ZM24.6843 9.30256H26.6843V7.49303L24.8838 7.31254L24.6843 9.30256ZM23.2699 9.16076H21.2699V10.9703L23.0704 11.1508L23.2699 9.16076ZM23.2699 7.3883V5.3883H21.2699V7.3883H23.2699ZM23.7649 7.3883V9.3883H25.7649V7.3883H23.7649ZM23.7649 6.60841H25.7649V4.60841H23.7649V6.60841ZM23.2699 6.60841L21.2853 6.85588L21.5038 8.60841H23.2699V6.60841ZM23.0577 4.90684V2.90684H20.7928L21.0731 5.15431L23.0577 4.90684ZM23.4821 4.90684V6.90684H25.4821V4.90684H23.4821ZM23.4821 4.12696H25.4821V2.12696H23.4821V4.12696ZM23.0577 4.12696H21.0577V6.12696H23.0577V4.12696ZM23.0577 3.63067V1.63067H21.0577V3.63067H23.0577ZM23.4821 3.63067V5.63067H25.4821V3.63067H23.4821ZM23.4821 3.06348H25.4821V1.06348H23.4821V3.06348ZM23.0577 3.06348H21.0577V5.06348H23.0577V3.06348ZM23.0577 2H25.0577V0H23.0577V2ZM22.9163 0H13.7223V4H22.9163V0ZM11.7223 2V2.63809H15.7223V2H11.7223ZM13.7223 0.638088H13.2272V4.63809H13.7223V0.638088ZM11.2272 2.63809V3.06348H15.2272V2.63809H11.2272ZM13.2272 5.06348H13.7223V1.06348H13.2272V5.06348ZM11.7223 3.06348V3.63067H15.7223V3.06348H11.7223ZM13.7223 1.63067H13.2272V5.63067H13.7223V1.63067ZM11.2272 3.63067V4.26876H15.2272V3.63067H11.2272ZM13.2272 6.26876H13.7223V2.26876H13.2272V6.26876ZM11.7223 4.26876V4.76505H15.7223V4.26876H11.7223ZM13.7223 2.76505H13.2272V6.76505H13.7223V2.76505ZM11.2272 4.76505V5.47403H15.2272V4.76505H11.2272ZM13.2272 7.47403H13.7223V3.47403H13.2272V7.47403ZM11.7223 5.47403V6.60841H15.7223V5.47403H11.7223ZM13.7223 4.60841H13.2272V8.60841H13.7223V4.60841ZM11.2272 6.60841V7.3883H15.2272V6.60841H11.2272ZM13.2272 9.3883H13.7223V5.3883H13.2272V9.3883ZM11.7223 7.3883V9.16076H15.7223V7.3883H11.7223ZM13.7223 7.16076H12.3078V11.1608H13.7223V7.16076ZM10.3078 9.16076V10.0824H14.3078V9.16076H10.3078ZM12.3078 12.0824H13.7223V8.08245H12.3078V12.0824ZM11.7223 10.0824V12.4221H15.7223V10.0824H11.7223ZM13.7223 12.4221C12.2896 11.0266 12.2895 11.0267 12.2894 11.0268C12.2893 11.0269 12.2892 11.0271 12.289 11.0272C12.2887 11.0275 12.2884 11.0279 12.2879 11.0283C12.287 11.0293 12.2858 11.0305 12.2843 11.032C12.2813 11.0352 12.2771 11.0395 12.2716 11.0451C12.2607 11.0564 12.245 11.0726 12.2247 11.0936C12.1842 11.1356 12.1253 11.1968 12.0502 11.2755C11.8998 11.433 11.6839 11.6607 11.4178 11.946C10.8862 12.516 10.152 13.3183 9.3397 14.2492C7.73688 16.0862 5.74876 18.5162 4.44347 20.675L7.86643 22.7446C8.98266 20.8985 10.7782 18.6846 12.3537 16.879C13.1306 15.9886 13.8342 15.2199 14.343 14.6742C14.5973 14.4016 14.8023 14.1854 14.9428 14.0383C15.013 13.9647 15.0671 13.9085 15.1031 13.8712C15.1211 13.8525 15.1346 13.8386 15.1433 13.8296C15.1477 13.8251 15.1509 13.8218 15.1528 13.8198C15.1538 13.8188 15.1545 13.8182 15.1548 13.8178C15.155 13.8176 15.1551 13.8175 15.1551 13.8175C15.1551 13.8175 15.1551 13.8175 15.1551 13.8175C15.155 13.8175 15.155 13.8176 13.7223 12.4221ZM4.44347 20.675C2.80279 23.3885 1.00965 26.1553 0.505981 29.1007L4.44875 29.7749C4.79375 27.7574 6.04922 25.7501 7.86643 22.7446L4.44347 20.675ZM0.505981 29.1007C0.288561 30.3721 0.138213 31.4658 0.0611139 32.3212C0.0227421 32.747 2.12446e-06 33.1407 -1.01504e-09 33.4818C-1.74307e-06 33.7615 0.0112679 34.2127 0.142037 34.6362L3.96402 33.4562C4.02408 33.6507 4 33.7215 4 33.4819C4 33.3037 4.01262 33.0392 4.04497 32.6803C4.10931 31.9664 4.24183 30.9849 4.44875 29.7749L0.505981 29.1007ZM0.142037 34.6362C0.184148 34.7726 0.241123 34.9267 0.32162 35.0856C0.404029 35.2483 0.515307 35.4244 0.667717 35.5944C0.743669 35.6791 0.823815 35.7556 0.906871 35.8243C0.989725 35.8928 1.0671 35.9466 1.13239 35.9881C1.19433 36.0274 1.24599 36.0558 1.26255 36.0649C1.26657 36.0671 1.2709 36.0695 1.2713 36.0697C1.27275 36.0705 1.27125 36.0697 1.26891 36.0684C1.26448 36.0659 1.24937 36.0576 1.22947 36.0458C1.18945 36.0221 1.11347 35.9752 1.02477 35.9049C0.932415 35.8318 0.834461 35.74 0.740882 35.6266C0.647746 35.5137 0.574029 35.3976 0.516632 35.2849C0.460453 35.1746 0.423503 35.0746 0.398946 34.9943C0.37461 34.9146 0.360571 34.8481 0.352331 34.8014C0.344042 34.7544 0.340063 34.7184 0.338148 34.6978C0.334626 34.6599 0.33592 34.6497 0.335919 34.6842L4.33592 34.6844C4.33592 34.5771 4.3328 34.4549 4.32099 34.3278C4.30972 34.2065 4.28597 34.027 4.22428 33.8251C4.15823 33.609 4.04074 33.3409 3.82653 33.0812C3.61025 32.819 3.38122 32.6712 3.26555 32.6028C3.02392 32.4599 3.41082 32.6619 3.64606 32.9243C3.88109 33.1865 3.95541 33.4283 3.96402 33.4562L0.142037 34.6362ZM0.335919 34.6842C0.335908 34.9791 0.389123 41.3405 0.442094 47.6047C0.468624 50.7421 0.495154 53.8617 0.515052 56.1969C0.525001 57.3645 0.533292 58.3361 0.539096 59.0157C0.541998 59.3555 0.544278 59.6224 0.545832 59.8043C0.546609 59.8952 0.547205 59.9649 0.547607 60.0119C0.547808 60.0354 0.54796 60.0532 0.548062 60.0651C0.548113 60.0711 0.548152 60.0756 0.548177 60.0786C0.54819 60.0801 0.5482 60.0812 0.548206 60.082C0.548209 60.0823 0.548212 60.0826 0.548213 60.0828C0.548215 60.083 0.548216 60.0831 2.54814 60.066C4.54807 60.0489 4.54807 60.0488 4.54807 60.0486C4.54807 60.0484 4.54806 60.0481 4.54806 60.0478C4.54805 60.047 4.54804 60.0459 4.54803 60.0444C4.54801 60.0414 4.54797 60.0369 4.54792 60.0309C4.54781 60.019 4.54766 60.0012 4.54746 59.9777C4.54706 59.9307 4.54646 59.861 4.54569 59.7701C4.54413 59.5882 4.54185 59.3214 4.53895 58.9816C4.53315 58.3019 4.52486 57.3304 4.51491 56.1628C4.49501 53.8276 4.46848 50.7081 4.44195 47.5709C4.38881 41.2861 4.33591 34.9566 4.33592 34.6844L0.335919 34.6842ZM2.54814 60.066C1.65162 58.2782 1.64987 58.2791 1.64812 58.2799C1.64754 58.2802 1.64579 58.2811 1.64462 58.2817C1.64229 58.2829 1.63996 58.2841 1.63763 58.2853C1.63297 58.2877 1.62831 58.2901 1.62365 58.2925C1.61433 58.2973 1.60502 58.3023 1.59572 58.3073C1.57711 58.3174 1.55856 58.3278 1.54006 58.3386C1.50305 58.3601 1.4664 58.383 1.43016 58.4073C1.35758 58.4558 1.28747 58.5091 1.22011 58.567C1.08508 58.6831 0.964687 58.8143 0.858172 58.9567C0.647693 59.2382 0.488755 59.5665 0.367478 59.9312L4.16315 61.1933C4.18332 61.1327 4.1658 61.2129 4.06137 61.3525C4.00788 61.424 3.93168 61.5109 3.82757 61.6004C3.77568 61.645 3.71772 61.6895 3.65342 61.7325C3.62133 61.7539 3.58785 61.7749 3.55298 61.7952C3.53556 61.8053 3.51781 61.8153 3.49975 61.8251C3.49072 61.83 3.48161 61.8348 3.47243 61.8396C3.46784 61.842 3.46323 61.8444 3.4586 61.8467C3.45629 61.8479 3.45397 61.8491 3.45165 61.8503C3.45049 61.8509 3.44874 61.8517 3.44816 61.852C3.44641 61.8529 3.44467 61.8538 2.54814 60.066ZM0.367478 59.9312C0.273932 60.2126 0.255161 60.4837 0.25056 60.5389C0.240438 60.6603 0.235034 60.7895 0.231863 60.9114C0.225426 61.1588 0.226121 61.4641 0.231264 61.7953C0.241626 62.4626 0.271283 63.3072 0.311663 64.1577C0.35208 65.0091 0.404007 65.8826 0.460062 66.6086C0.51056 67.2626 0.576095 67.9776 0.669839 68.3846L4.56778 67.4868C4.57037 67.4981 4.55278 67.408 4.52501 67.1542C4.50041 66.9294 4.47437 66.6397 4.44819 66.3007C4.39596 65.6242 4.34626 64.7917 4.30716 63.9681C4.26802 63.1436 4.24027 62.3442 4.23078 61.7332C4.226 61.4252 4.22616 61.1827 4.23051 61.0155C4.23273 60.9301 4.23555 60.8853 4.23673 60.8713C4.24342 60.791 4.23902 60.9652 4.16315 61.1933L0.367478 59.9312ZM0.669839 68.3846C0.785289 68.8859 1.60247 71.6892 2.35008 74.457C2.73663 75.8882 3.11891 77.3588 3.41637 78.6306C3.7237 79.9445 3.90938 80.9189 3.94895 81.4216L7.93662 81.1078C7.87016 80.2634 7.61387 79.0133 7.31124 77.7195C6.99875 76.3836 6.6031 74.8631 6.2117 73.414C5.4034 70.4214 4.66462 67.9073 4.56778 67.4868L0.669839 68.3846ZM3.94895 81.4216C4.04977 82.7026 4.04626 83.5025 4.02463 83.9511C4.01384 84.1746 3.99874 84.307 3.99083 84.3652C3.9869 84.3941 3.98485 84.4039 3.98618 84.3969C3.98685 84.3933 3.98839 84.3854 3.99098 84.3735C3.99227 84.3676 3.99384 84.3606 3.99569 84.3527C3.99662 84.3487 3.99762 84.3445 3.99869 84.34C3.99923 84.3378 3.99979 84.3355 4.00036 84.3332C4.00065 84.332 4.00095 84.3308 4.00124 84.3296C4.00139 84.329 4.00162 84.3281 4.00169 84.3278C4.00192 84.3269 4.00215 84.3259 5.94278 84.8096C7.88342 85.2933 7.88365 85.2924 7.88388 85.2914C7.88396 85.2911 7.88419 85.2902 7.88434 85.2896C7.88465 85.2883 7.88497 85.287 7.88528 85.2858C7.88591 85.2832 7.88654 85.2806 7.88718 85.2779C7.88846 85.2726 7.88976 85.2672 7.89108 85.2615C7.89372 85.2502 7.89645 85.2381 7.89925 85.2253C7.90484 85.1996 7.91072 85.1708 7.91678 85.1387C7.92888 85.0746 7.94174 84.9969 7.95437 84.904C7.9796 84.7185 8.00425 84.4698 8.01998 84.1438C8.05135 83.4935 8.04784 82.5209 7.93662 81.1078L3.94895 81.4216ZM5.94278 84.8096C3.94842 84.6595 3.94843 84.6594 3.94844 84.6593C3.94845 84.6592 3.94845 84.6591 3.94846 84.6591C3.94846 84.659 3.94847 84.6589 3.94847 84.659C3.94846 84.659 3.94844 84.6593 3.94841 84.6597C3.94833 84.6607 3.94819 84.6625 3.94798 84.6653C3.94756 84.6707 3.94686 84.6796 3.94587 84.6918C3.9439 84.7163 3.9408 84.7539 3.93652 84.8035C3.92796 84.9028 3.91468 85.0495 3.89632 85.2337C3.8595 85.6029 3.80261 86.1183 3.72274 86.6999C3.558 87.8995 3.31299 89.2457 2.9901 90.1872L6.77378 91.4848C7.22897 90.1575 7.51438 88.4905 7.68554 87.2441C7.77362 86.6028 7.83605 86.0369 7.87657 85.6307C7.89687 85.4271 7.91177 85.2626 7.9217 85.1475C7.92667 85.0899 7.93041 85.0446 7.93296 85.0129C7.93424 84.9971 7.93522 84.9846 7.93592 84.9757C7.93627 84.9712 7.93654 84.9676 7.93674 84.965C7.93685 84.9636 7.93693 84.9625 7.937 84.9616C7.93703 84.9612 7.93706 84.9608 7.93708 84.9605C7.9371 84.9603 7.93711 84.9601 7.93712 84.9601C7.93713 84.9599 7.93714 84.9597 5.94278 84.8096ZM2.9901 90.1872C2.54658 91.4805 2.09894 93.643 1.77603 95.3579C1.60964 96.2416 1.46824 97.0517 1.36848 97.6405C1.31856 97.9353 1.27894 98.1753 1.25171 98.3422C1.23809 98.4257 1.22756 98.4909 1.22038 98.5357C1.21679 98.558 1.21404 98.5753 1.21215 98.5871C1.21121 98.593 1.21048 98.5976 1.20998 98.6008C1.20973 98.6023 1.20953 98.6036 1.20939 98.6045C1.20932 98.6049 1.20926 98.6053 1.20922 98.6055C1.2092 98.6057 1.20918 98.6058 1.20917 98.6059C1.20915 98.606 1.20914 98.6061 3.18459 98.9184C5.16005 99.2308 5.16004 99.2309 5.16004 99.2309C5.16004 99.2309 5.16004 99.2309 5.16005 99.2308C5.16006 99.2307 5.16009 99.2306 5.16013 99.2303C5.16021 99.2298 5.16035 99.2289 5.16054 99.2277C5.16093 99.2253 5.16154 99.2214 5.16236 99.2163C5.164 99.206 5.1665 99.1903 5.16984 99.1695C5.1765 99.128 5.18648 99.0661 5.19952 98.9862C5.2256 98.8264 5.26388 98.5944 5.31229 98.3087C5.40922 97.7365 5.54627 96.9514 5.70695 96.0981C6.0382 94.3389 6.43924 92.4603 6.77378 91.4848L2.9901 90.1872ZM1.19011 98.77L0.482883 108.27L4.47185 108.567L5.17907 99.0669L1.19011 98.77ZM2.47736 108.419C1.0614 107.006 1.06036 107.007 1.05933 107.008C1.05898 107.009 1.05794 107.01 1.05725 107.011C1.05587 107.012 1.05449 107.013 1.0531 107.015C1.05033 107.018 1.04755 107.02 1.04477 107.023C1.03921 107.029 1.03362 107.035 1.02802 107.041C1.01682 107.052 1.00554 107.065 0.994216 107.077C0.971557 107.102 0.948719 107.128 0.925842 107.156C0.880032 107.212 0.834355 107.273 0.789824 107.34C0.700282 107.475 0.618076 107.629 0.548962 107.802C0.409339 108.152 0.335916 108.549 0.336037 108.987L4.33604 108.985C4.33604 108.998 4.33328 109.111 4.26435 109.284C4.23058 109.369 4.18373 109.46 4.12071 109.555C4.08943 109.602 4.05481 109.649 4.01673 109.695C3.99772 109.718 3.97792 109.741 3.95734 109.764C3.94705 109.775 3.93656 109.787 3.9259 109.798C3.92056 109.804 3.91518 109.809 3.90975 109.815C3.90704 109.817 3.90431 109.82 3.90158 109.823C3.90021 109.824 3.89884 109.826 3.89746 109.827C3.89678 109.828 3.89574 109.829 3.8954 109.829C3.89437 109.83 3.89333 109.831 2.47736 108.419ZM0.336037 108.987C0.336124 109.299 0.409272 110.282 0.488895 111.32C0.531212 111.872 0.578947 112.481 0.626838 113.092C0.67479 113.703 0.722909 114.317 0.766236 114.882L4.75451 114.576C4.71089 114.007 4.6625 113.39 4.61461 112.779C4.56665 112.167 4.51919 111.562 4.47718 111.014C4.4351 110.466 4.39886 109.98 4.37323 109.607C4.36039 109.42 4.35056 109.267 4.34405 109.15C4.33663 109.018 4.33603 108.976 4.33604 108.985L0.336037 108.987ZM0.766236 114.882C0.896965 116.586 1.52407 118.497 2.2544 120.029C2.62541 120.808 3.05291 121.552 3.50941 122.169C3.91439 122.717 4.5283 123.425 5.34093 123.787L6.96898 120.134C7.14516 120.212 7.04304 120.22 6.72536 119.791C6.4592 119.431 6.15739 118.921 5.86539 118.309C5.26969 117.058 4.83595 115.637 4.75451 114.576L0.766236 114.882ZM5.34093 123.787C6.37012 124.246 7.306 124.284 8.05092 124.134C8.41056 124.062 8.70457 123.951 8.92599 123.845C9.03685 123.792 9.13058 123.74 9.20662 123.694C9.2447 123.671 9.27853 123.649 9.30807 123.63C9.32284 123.62 9.33656 123.61 9.34922 123.602C9.35555 123.597 9.36162 123.593 9.36742 123.589C9.37032 123.587 9.37316 123.585 9.37593 123.583C9.37732 123.582 9.37869 123.581 9.38004 123.58C9.38072 123.579 9.38172 123.578 9.38206 123.578C9.38306 123.577 9.38405 123.577 8.20591 121.961C7.02778 120.344 7.02877 120.344 7.02975 120.343C7.03008 120.343 7.03107 120.342 7.03172 120.341C7.03302 120.341 7.03432 120.34 7.03561 120.339C7.03819 120.337 7.04075 120.335 7.04327 120.333C7.04832 120.33 7.05325 120.326 7.05807 120.323C7.06771 120.316 7.0769 120.31 7.08567 120.304C7.10318 120.292 7.11906 120.282 7.13337 120.273C7.16189 120.256 7.18489 120.244 7.20291 120.235C7.23867 120.218 7.25861 120.213 7.26461 120.212C7.30227 120.205 7.21268 120.242 6.96898 120.134L5.34093 123.787ZM8.20591 121.961C6.30803 122.591 6.30823 122.592 6.30844 122.593C6.30851 122.593 6.30872 122.593 6.30887 122.594C6.30916 122.595 6.30945 122.596 6.30976 122.597C6.31037 122.598 6.31101 122.6 6.31168 122.602C6.31303 122.606 6.3145 122.611 6.3161 122.615C6.3193 122.625 6.32302 122.635 6.32726 122.647C6.33575 122.671 6.34638 122.7 6.35925 122.733C6.3849 122.8 6.4199 122.886 6.46502 122.986C6.55398 123.184 6.68899 123.452 6.87902 123.741C7.23534 124.283 7.92199 125.109 9.05729 125.488L10.3249 121.694C10.3992 121.719 10.3433 121.729 10.2223 121.545C10.1736 121.471 10.1363 121.397 10.1125 121.345C10.1013 121.32 10.0949 121.303 10.0932 121.299C10.0924 121.297 10.0929 121.298 10.0946 121.303C10.0955 121.305 10.0967 121.309 10.0982 121.313C10.099 121.315 10.0998 121.318 10.1008 121.321C10.1012 121.322 10.1017 121.323 10.1022 121.325C10.1025 121.326 10.1027 121.326 10.103 121.327C10.1031 121.328 10.1033 121.328 10.1034 121.328C10.1036 121.329 10.1038 121.33 8.20591 121.961ZM9.05729 125.488C9.81009 125.74 10.7542 125.881 11.6115 125.948C12.4866 126.017 13.4317 126.022 14.2266 125.933L13.7838 121.958C13.3058 122.011 12.6243 122.016 11.9259 121.961C11.2095 121.904 10.6331 121.797 10.3249 121.694L9.05729 125.488ZM14.2266 125.933C15.3814 125.805 16.3086 125.226 16.8513 124.818C17.1429 124.598 17.3779 124.387 17.5424 124.228C17.6255 124.148 17.6928 124.079 17.7426 124.026C17.7676 124 17.7883 123.978 17.8046 123.96C17.8128 123.951 17.8199 123.943 17.8258 123.936C17.8288 123.933 17.8315 123.93 17.8339 123.927C17.8351 123.926 17.8362 123.925 17.8373 123.923C17.8378 123.923 17.8383 123.922 17.8388 123.922C17.8391 123.921 17.8395 123.921 17.8396 123.921C17.8399 123.92 17.8403 123.92 16.339 122.599C14.8378 121.277 14.8382 121.277 14.8385 121.276C14.8386 121.276 14.8389 121.276 14.8392 121.276C14.8396 121.275 14.84 121.275 14.8404 121.274C14.8412 121.273 14.842 121.272 14.8427 121.272C14.844 121.27 14.8452 121.269 14.8461 121.268C14.848 121.266 14.8489 121.265 14.849 121.265C14.8491 121.264 14.8459 121.268 14.8393 121.275C14.8262 121.289 14.8006 121.315 14.7644 121.35C14.6902 121.422 14.5804 121.521 14.4476 121.62C14.1417 121.85 13.9019 121.945 13.7838 121.958L14.2266 125.933ZM16.339 122.599C17.9556 123.776 17.9556 123.776 17.9555 123.776C17.9555 123.776 17.9555 123.776 17.9555 123.776C17.9555 123.776 17.9555 123.776 17.9555 123.776C17.9556 123.776 17.9557 123.776 17.956 123.776C17.9565 123.775 17.9575 123.774 17.9588 123.772C17.9616 123.768 17.9659 123.762 17.9717 123.754C17.9834 123.738 18.0012 123.714 18.0244 123.683C18.0707 123.62 18.1384 123.529 18.2215 123.419C18.3887 123.197 18.6147 122.902 18.8549 122.602C19.099 122.297 19.3391 122.011 19.5375 121.796C19.6375 121.688 19.7065 121.621 19.7454 121.586C19.8186 121.52 19.7301 121.617 19.5258 121.713L17.82 118.095C17.4743 118.258 17.2068 118.49 17.075 118.608C16.9089 118.757 16.747 118.923 16.6017 119.079C16.3094 119.395 16.0014 119.766 15.7328 120.101C15.4602 120.442 15.2089 120.77 15.0268 121.012C14.9354 121.133 14.8604 121.234 14.8079 121.305C14.7816 121.34 14.7608 121.369 14.7464 121.388C14.7391 121.398 14.7335 121.406 14.7294 121.411C14.7274 121.414 14.7258 121.416 14.7247 121.418C14.7241 121.419 14.7236 121.419 14.7232 121.42C14.7231 121.42 14.7229 121.42 14.7228 121.421C14.7227 121.421 14.7226 121.421 14.7226 121.421C14.7225 121.421 14.7225 121.421 16.339 122.599ZM19.5258 121.713C19.5976 121.68 19.5955 121.697 19.5197 121.698C19.4322 121.699 19.2769 121.674 19.1177 121.567L21.3399 118.241C20.1378 117.438 18.7766 117.644 17.82 118.095L19.5258 121.713ZM19.1177 121.567C19.0109 121.496 18.9807 121.456 19.1048 121.573C19.1912 121.654 19.3086 121.77 19.458 121.92C19.7689 122.233 20.1151 122.591 20.5379 123.019C20.94 123.427 21.3784 123.865 21.7868 124.247C22.1655 124.601 22.6212 125.005 23.0351 125.272L25.2021 121.91C25.121 121.858 24.896 121.678 24.5188 121.325C24.1714 121 23.7788 120.609 23.3854 120.21C23.0125 119.832 22.5984 119.406 22.2949 119.1C22.1371 118.942 21.9836 118.79 21.8496 118.663C21.7532 118.572 21.5529 118.384 21.3399 118.241L19.1177 121.567ZM23.0351 125.272C23.6518 125.67 24.3661 125.821 24.8846 125.892C25.4531 125.969 26.0517 125.983 26.5987 125.962C27.1501 125.941 27.698 125.884 28.1769 125.802C28.5942 125.73 29.1555 125.608 29.6119 125.379L27.8192 121.803C27.922 121.752 27.8557 121.798 27.4994 121.859C27.2048 121.91 26.8333 121.95 26.4475 121.965C26.0575 121.98 25.7013 121.966 25.4255 121.929C25.0997 121.884 25.0803 121.832 25.2021 121.91L23.0351 125.272ZM29.6119 125.379C30.0883 125.14 30.4684 124.786 30.7071 124.543C30.9738 124.271 31.2166 123.977 31.4113 123.725C31.6094 123.469 31.7786 123.23 31.8975 123.056C31.9576 122.968 32.0062 122.895 32.0408 122.842C32.0581 122.816 32.0721 122.794 32.0823 122.779C32.0873 122.771 32.0915 122.764 32.0947 122.759C32.0963 122.757 32.0977 122.755 32.0988 122.753C32.0993 122.752 32.0998 122.751 32.1003 122.751C32.1005 122.75 32.1007 122.75 32.1009 122.75C32.101 122.75 32.1011 122.749 32.1011 122.749C32.1012 122.749 32.1014 122.749 30.4129 121.677C28.7244 120.605 28.7245 120.605 28.7246 120.605C28.7247 120.605 28.7248 120.604 28.7248 120.604C28.725 120.604 28.7251 120.604 28.7252 120.604C28.7254 120.603 28.7255 120.603 28.7256 120.603C28.7257 120.603 28.7257 120.603 28.7254 120.603C28.7248 120.604 28.7233 120.607 28.7209 120.61C28.7163 120.618 28.7082 120.63 28.6971 120.647C28.6748 120.681 28.6406 120.732 28.5967 120.796C28.5079 120.926 28.3853 121.099 28.2475 121.277C28.1063 121.46 27.9689 121.622 27.8511 121.742C27.7052 121.891 27.6963 121.865 27.8192 121.803L29.6119 125.379ZM30.4129 121.677C29.4396 123.424 29.4406 123.425 29.4415 123.425C29.4418 123.425 29.4427 123.426 29.4434 123.426C29.4446 123.427 29.4459 123.428 29.4472 123.428C29.4498 123.43 29.4524 123.431 29.4551 123.433C29.4604 123.436 29.466 123.439 29.4718 123.442C29.4833 123.448 29.4957 123.454 29.5089 123.461C29.5353 123.475 29.5651 123.489 29.5981 123.505C29.6641 123.535 29.7437 123.569 29.8361 123.603C30.0207 123.671 30.2592 123.741 30.5454 123.786C31.1286 123.877 31.876 123.86 32.7136 123.56L31.3654 119.794C31.2128 119.849 31.1469 119.831 31.1644 119.834C31.1676 119.834 31.1852 119.838 31.2195 119.85C31.2368 119.857 31.2589 119.866 31.2862 119.878C31.2999 119.885 31.315 119.892 31.3316 119.901C31.3399 119.905 31.3486 119.909 31.3577 119.914C31.3623 119.917 31.3669 119.919 31.3716 119.922C31.374 119.923 31.3764 119.924 31.3788 119.926C31.38 119.926 31.3812 119.927 31.3825 119.928C31.3831 119.928 31.384 119.929 31.3843 119.929C31.3852 119.929 31.3862 119.93 30.4129 121.677ZM32.7136 123.56C33.5029 123.277 34.0291 122.7 34.3444 122.282C34.6853 121.832 34.9683 121.312 35.2029 120.825C35.6636 119.869 36.0985 118.684 36.4462 117.802L32.7249 116.335C32.3183 117.366 31.9753 118.308 31.5992 119.089C31.4153 119.471 31.2651 119.723 31.1536 119.87C31.0166 120.051 31.0713 119.899 31.3654 119.794L32.7136 123.56ZM36.4462 117.802C37.1291 116.07 37.508 113.998 37.7205 112.362C37.9346 110.713 38.0001 109.338 38 108.915L34 108.916C34 109.131 33.9507 110.33 33.7538 111.846C33.5553 113.375 33.2269 115.062 32.7249 116.335L36.4462 117.802ZM38 108.915C37.9999 108.294 37.8593 107.722 37.5631 107.24C37.4184 107.004 37.251 106.814 37.0804 106.664C36.9961 106.59 36.9129 106.528 36.834 106.475C36.7945 106.449 36.7562 106.426 36.7194 106.404C36.701 106.394 36.6829 106.384 36.6653 106.374C36.6565 106.37 36.6477 106.365 36.6391 106.36C36.6348 106.358 36.6305 106.356 36.6263 106.354C36.6242 106.353 36.622 106.352 36.6199 106.351C36.6189 106.35 36.6173 106.349 36.6168 106.349C36.6152 106.348 36.6136 106.347 35.7171 108.135C34.8206 109.923 34.819 109.922 34.8175 109.922C34.8169 109.921 34.8154 109.92 34.8143 109.92C34.8122 109.919 34.8101 109.918 34.808 109.917C34.8039 109.915 34.7997 109.912 34.7955 109.91C34.7872 109.906 34.7789 109.902 34.7706 109.897C34.754 109.888 34.7375 109.879 34.7212 109.87C34.6885 109.851 34.6562 109.831 34.6245 109.81C34.5611 109.768 34.5 109.721 34.4422 109.671C34.3246 109.568 34.2279 109.453 34.1539 109.332C33.9991 109.08 34 108.898 34 108.916L38 108.915ZM35.7171 108.135C37.717 108.114 37.717 108.114 37.717 108.114C37.717 108.114 37.717 108.114 37.717 108.113C37.717 108.113 37.717 108.113 37.717 108.112C37.717 108.111 37.7169 108.109 37.7169 108.107C37.7169 108.103 37.7168 108.097 37.7167 108.09C37.7165 108.076 37.7162 108.055 37.7158 108.028C37.715 107.974 37.7137 107.895 37.7116 107.795C37.7074 107.593 37.7003 107.302 37.6884 106.937C37.6647 106.208 37.6218 105.183 37.545 103.992C37.3926 101.628 37.1026 98.5437 36.5448 95.8227L32.6263 96.6259C33.1295 99.0805 33.4052 101.952 33.5533 104.249C33.6268 105.39 33.6679 106.372 33.6906 107.067C33.7019 107.415 33.7086 107.69 33.7124 107.877C33.7144 107.97 33.7156 108.042 33.7163 108.089C33.7167 108.113 33.7169 108.13 33.717 108.142C33.7171 108.147 33.7172 108.151 33.7172 108.154C33.7172 108.155 33.7172 108.156 33.7172 108.156C33.7172 108.156 33.7172 108.157 33.7172 108.157C33.7172 108.157 33.7172 108.156 33.7172 108.156C33.7172 108.156 33.7172 108.156 35.7171 108.135ZM36.5448 95.8227C36.0041 93.1852 35.3733 90.7104 34.8822 88.7323C34.3612 86.6335 34.0625 85.3222 34.0378 84.7267L30.0412 84.8925C30.0871 85.9986 30.531 87.8068 31.0001 89.6961C31.4991 91.706 32.106 94.0878 32.6263 96.6259L36.5448 95.8227ZM34.0378 84.7267C33.9695 83.0804 33.9752 82.679 34.0373 81.3586L30.0417 81.1708C29.9738 82.6161 29.9683 83.1357 30.0412 84.8925L34.0378 84.7267ZM34.0373 81.3586C34.1497 78.9672 34.6841 77.1691 35.3294 75.2117C35.9752 73.2527 36.7593 71.0681 37.1345 68.1947L33.1682 67.6768C32.8512 70.1041 32.2048 71.9139 31.5305 73.9593C30.8558 76.0061 30.1803 78.2222 30.0417 81.1708L34.0373 81.3586ZM37.1345 68.1947C37.3399 66.6218 37.412 64.795 37.4355 63.3556C37.4474 62.6279 37.447 61.9838 37.4437 61.4997C37.442 61.2574 37.4396 61.0551 37.4376 60.9032C37.4366 60.8249 37.4358 60.7666 37.4352 60.7164C37.4349 60.6922 37.4347 60.673 37.4345 60.6578C37.4344 60.6503 37.4344 60.6445 37.4344 60.64C37.4344 60.6378 37.4343 60.6361 37.4343 60.6349C37.4343 60.6337 37.4343 60.6331 37.4343 60.6332H33.4343C33.4343 61.0795 33.5275 64.9249 33.1682 67.6768L37.1345 68.1947ZM37.4343 60.6332C37.4343 59.906 37.1426 59.3604 36.9115 59.0419C36.7931 58.8788 36.6749 58.7526 36.5808 58.6622C36.533 58.6162 36.4889 58.5772 36.4508 58.5452C36.4317 58.5291 36.4138 58.5146 36.3975 58.5016C36.3893 58.4951 36.3815 58.489 36.3741 58.4833C36.3704 58.4804 36.3667 58.4777 36.3632 58.475C36.3614 58.4736 36.3597 58.4723 36.358 58.471C36.3571 58.4704 36.3563 58.4697 36.3554 58.4691C36.355 58.4688 36.3544 58.4683 36.3542 58.4681C36.3535 58.4677 36.3529 58.4672 35.1513 60.066C33.9497 61.6648 33.9491 61.6643 33.9485 61.6639C33.9483 61.6637 33.9477 61.6632 33.9472 61.6629C33.9464 61.6623 33.9456 61.6617 33.9448 61.661C33.9431 61.6598 33.9415 61.6586 33.9399 61.6573C33.9366 61.6548 33.9334 61.6524 33.9302 61.6499C33.9238 61.645 33.9176 61.6401 33.9115 61.6353C33.8993 61.6256 33.8876 61.616 33.8762 61.6065C33.8536 61.5874 33.8316 61.5678 33.8102 61.5473C33.7692 61.5079 33.7218 61.457 33.6742 61.3914C33.5846 61.2679 33.4343 61.0058 33.4343 60.6332H37.4343ZM37.1513 60.066V34.6843H33.1513V60.066H37.1513ZM35.1513 34.6843C35.6377 36.6242 35.6391 36.6239 35.6404 36.6236C35.6409 36.6234 35.6422 36.6231 35.6431 36.6229C35.6449 36.6224 35.6467 36.6219 35.6486 36.6215C35.6522 36.6205 35.6559 36.6196 35.6596 36.6186C35.6671 36.6166 35.6747 36.6146 35.6824 36.6125C35.6979 36.6082 35.714 36.6036 35.7307 36.5986C35.764 36.5885 35.7999 36.5769 35.8379 36.5633C35.9135 36.5362 35.9995 36.5008 36.092 36.4544C36.2762 36.362 36.4965 36.2209 36.7088 36.008C37.1783 35.5372 37.434 34.8941 37.4342 34.1885L33.4342 34.1874C33.4343 33.9073 33.5486 33.5123 33.8766 33.1833C34.0182 33.0413 34.1678 32.9445 34.2991 32.8787C34.365 32.8456 34.4289 32.8191 34.4891 32.7975C34.5193 32.7867 34.5491 32.777 34.5783 32.7682C34.5929 32.7638 34.6074 32.7596 34.6218 32.7556C34.6291 32.7537 34.6363 32.7517 34.6434 32.7498C34.647 32.7489 34.6506 32.748 34.6542 32.747C34.656 32.7466 34.6578 32.7461 34.6596 32.7457C34.6605 32.7454 34.6618 32.7451 34.6622 32.745C34.6636 32.7447 34.6649 32.7443 35.1513 34.6843ZM37.4342 34.1885C37.4343 33.7161 37.3559 31.0305 36.8886 28.9911L32.9897 29.8844C33.3554 31.4808 33.4343 33.8091 33.4342 34.1874L37.4342 34.1885ZM36.8886 28.9911C36.0536 25.3467 34.6619 23.4272 32.9662 20.6638L29.5569 22.7558C31.3564 25.6886 32.3313 27.011 32.9897 29.8844L36.8886 28.9911ZM32.9662 20.6638C31.6205 18.4706 29.5511 16.0339 27.8841 14.2016C27.0385 13.2722 26.2732 12.4731 25.7188 11.9059C25.4413 11.622 25.216 11.3955 25.059 11.2389C24.9805 11.1606 24.919 11.0998 24.8766 11.0579C24.8554 11.037 24.8389 11.0209 24.8275 11.0096C24.8218 11.004 24.8173 10.9997 24.8141 10.9966C24.8125 10.995 24.8113 10.9938 24.8103 10.9928C24.8099 10.9924 24.8095 10.992 24.8092 10.9917C24.809 10.9915 24.8088 10.9914 24.8088 10.9913C24.8086 10.9912 24.8085 10.991 23.4113 12.4221C22.0142 13.8532 22.0141 13.8531 22.014 13.853C22.014 13.853 22.014 13.853 22.014 13.853C22.014 13.853 22.0141 13.8531 22.0143 13.8533C22.0146 13.8536 22.0153 13.8543 22.0163 13.8553C22.0183 13.8572 22.0216 13.8604 22.0261 13.8649C22.0351 13.8737 22.0491 13.8875 22.0678 13.9059C22.1052 13.9428 22.1614 13.9984 22.2345 14.0713C22.3806 14.217 22.5939 14.4314 22.8582 14.7018C23.3875 15.2434 24.1189 16.007 24.9253 16.8934C26.5623 18.6926 28.418 20.8997 29.5569 22.7558L32.9662 20.6638ZM25.4113 12.4221V10.1533H21.4113V12.4221H25.4113ZM23.4113 12.1533H24.6843V8.15334H23.4113V12.1533ZM26.6843 10.1533V9.30256H22.6843V10.1533H26.6843ZM24.8838 7.31254L23.4694 7.17074L23.0704 11.1508L24.4848 11.2926L24.8838 7.31254ZM25.2699 9.16076V7.3883H21.2699V9.16076H25.2699ZM23.2699 9.3883H23.7649V5.3883H23.2699V9.3883ZM25.7649 7.3883V6.60841H21.7649V7.3883H25.7649ZM23.7649 4.60841H23.2699V8.60841H23.7649V4.60841ZM25.2545 6.36095L25.0423 4.65938L21.0731 5.15431L21.2853 6.85588L25.2545 6.36095ZM23.0577 6.90684H23.4821V2.90684H23.0577V6.90684ZM25.4821 4.90684V4.12696H21.4821V4.90684H25.4821ZM23.4821 2.12696H23.0577V6.12696H23.4821V2.12696ZM25.0577 4.12696V3.63067H21.0577V4.12696H25.0577ZM23.0577 5.63067H23.4821V1.63067H23.0577V5.63067ZM25.4821 3.63067V3.06348H21.4821V3.63067H25.4821ZM23.4821 1.06348H23.0577V5.06348H23.4821V1.06348ZM25.0577 3.06348V2H21.0577V3.06348H25.0577ZM23.0577 0H22.9163V4H23.0577V0Z" fill="url(#paint0_linear_1196_4257)"/>
<path fill-rule="evenodd" clip-rule="evenodd" d="M18.4907 56.134C18.0798 56.3294 17.2762 57.1056 16.9562 57.6161C16.6224 58.1487 16.3535 58.7906 16.1684 59.497C16.0572 59.9215 16.0286 60.2152 16.0255 60.967C16.0202 62.2288 16.2118 63.0833 16.6858 63.9114C16.7893 64.0922 16.866 64.2401 16.8563 64.2401C16.8466 64.2401 16.5395 64.1054 16.1739 63.9408C15.2712 63.5344 14.6603 63.3877 13.7024 63.3476C12.4616 63.2955 11.5324 63.5403 11.1594 64.0176C11.0441 64.1651 11.0268 64.2667 11.0356 64.7449C11.0579 65.9569 11.6428 67.2208 12.6691 68.2743C12.92 68.532 12.9226 68.5392 12.7765 68.5679C11.5235 68.8133 11.1892 68.9895 11.0502 69.4782C10.8499 70.182 11.2952 71.7089 11.977 72.6561C12.1053 72.8345 12.2104 73.0017 12.2104 73.0278C12.2104 73.0538 12.0879 73.1049 11.9381 73.1415C11.5034 73.2475 11.2548 73.4267 11.1086 73.7393C10.9962 73.9797 10.9823 74.0954 11.0163 74.5105C11.1201 75.7813 11.7321 76.9484 12.8471 78.0019C14.1341 79.2179 15.784 79.9291 17.3827 79.9573L18.0392 79.9689V83.142C18.0392 86.6484 18.0322 86.5846 18.4474 86.8648C18.5926 86.9628 18.7389 87 18.9793 87C19.3376 87 19.555 86.889 19.7967 86.5827C19.9257 86.4193 19.9292 86.3398 19.9464 83.1914L19.964 79.9673L20.619 79.9556C23.718 79.9005 26.7557 77.3017 26.9838 74.5105C27.0176 74.097 27.0037 73.9794 26.8931 73.7428C26.7409 73.4174 26.557 73.2884 26.0022 73.1183L25.5991 72.9947L25.8323 72.6671C26.6443 71.526 27.0622 69.7583 26.6455 69.2261C26.3853 68.8938 26.0873 68.7721 25.0328 68.5679C24.8918 68.5406 24.9011 68.5218 25.2133 68.1986C26.1436 67.2354 26.6991 66.0645 26.7936 64.8678C26.8277 64.4363 26.8148 64.3395 26.691 64.0974C26.5777 63.8759 26.483 63.79 26.2176 63.6681C25.0442 63.1287 23.0895 63.2465 21.6121 63.9455C21.4105 64.0408 21.2299 64.1189 21.2108 64.1189C21.1917 64.1189 21.2626 63.9565 21.3685 63.758C22.094 62.398 22.1836 60.4248 21.5942 58.7851C21.2619 57.8604 20.5811 56.8945 19.9318 56.4261C19.2848 55.9594 18.9856 55.8988 18.4907 56.134ZM19.2445 58.3758C19.8051 59.1496 20.0335 59.8846 20.0404 60.9367C20.0477 62.0636 19.7108 63.118 19.1505 63.7214L18.9849 63.8998L18.7992 63.6911C18.5438 63.404 18.2037 62.7188 18.0639 62.2096C17.8951 61.5943 17.9081 60.3165 18.0896 59.6848C18.163 59.4296 18.2943 59.0887 18.3814 58.9272C18.5778 58.5628 18.9164 58.1182 18.9973 58.1182C19.0306 58.1182 19.1419 58.2342 19.2445 58.3758ZM14.375 65.246C15.1262 65.4152 16.0282 65.8773 16.6166 66.3946C17.3216 67.0144 17.9752 67.9919 17.9752 68.4267C17.9752 68.5566 17.9601 68.5593 17.3827 68.5303C16.2337 68.4724 15.1012 67.9566 14.1616 67.0632C13.6149 66.5435 13.3116 66.1057 13.1056 65.5389C13.036 65.3475 12.979 65.1815 12.979 65.1701C12.979 65.1074 14.0082 65.1634 14.375 65.246ZM24.7933 65.3159C24.7724 65.4076 24.6376 65.7137 24.4937 65.9961C24.2802 66.4151 24.125 66.6116 23.6498 67.0638C22.7058 67.962 21.64 68.4557 20.4893 68.5276L19.9608 68.5606V68.273C19.9608 67.639 20.7846 66.5965 21.7818 65.9686C22.6946 65.3939 23.4203 65.159 24.3017 65.1529L24.8313 65.1493L24.7933 65.3159ZM14.7714 70.567C15.7892 70.9091 16.7711 71.5994 17.371 72.395C17.674 72.7968 17.9752 73.4184 17.9752 73.642C17.9752 73.7686 17.9565 73.7718 17.3827 73.7429C16.2877 73.6878 15.2168 73.2282 14.3044 72.4219C13.6206 71.8176 13.2793 71.3074 13.0121 70.4901L12.9649 70.3454L13.6284 70.3757C14.1229 70.3982 14.4143 70.447 14.7714 70.567ZM24.792 70.5286C24.7118 70.8682 24.327 71.5555 24.0046 71.9347C23.1193 72.9762 21.805 73.6507 20.4893 73.7388L19.9608 73.7742V73.4862C19.9608 72.8517 20.7842 71.8094 21.7815 71.1815C22.66 70.6283 23.4565 70.3703 24.3017 70.3652L24.8313 70.3619L24.792 70.5286ZM14.5183 74.8827C15.0899 75.0417 15.9933 75.4843 16.4203 75.8147C17.1295 76.3634 17.8301 77.3283 17.9511 77.9233L17.9912 78.1203H17.4855C15.6658 78.1203 13.7254 76.7963 13.106 75.1319C13.0189 74.8977 13.0083 74.8055 13.0642 74.7685C13.1738 74.6959 14.1117 74.7696 14.5183 74.8827ZM24.9166 74.7616C25.002 74.7927 24.9954 74.848 24.866 75.1854C24.4113 76.3706 23.2795 77.3988 21.9008 77.8789C21.4458 78.0374 21.2105 78.081 20.6726 78.106L20.0073 78.1369L20.0533 77.9051C20.0786 77.7775 20.1874 77.5079 20.2951 77.3058C20.9347 76.1057 22.3157 75.1144 23.7634 74.8165C24.1827 74.7302 24.755 74.703 24.9166 74.7616Z" fill="url(#paint1_linear_1196_4257)"/>
<defs>
<linearGradient id="paint0_linear_1196_4257" x1="36.5183" y1="87.0162" x2="1.10417" y2="86.7068" gradientUnits="userSpaceOnUse">
<stop stop-color="#1B2AC9"/>
<stop offset="1" stop-color="#0073F0"/>
</linearGradient>
<linearGradient id="paint1_linear_1196_4257" x1="27.2439" y1="77.6025" x2="10.5815" y2="77.3329" gradientUnits="userSpaceOnUse">
<stop stop-color="#1B2AC9"/>
<stop offset="1" stop-color="#0073F0"/>
</linearGradient>
</defs>
</svg>
