<svg width="39" height="126" viewBox="0 0 39 126" fill="none" xmlns="http://www.w3.org/2000/svg">
<path fill-rule="evenodd" clip-rule="evenodd" d="M38.2 107.5C38.2 107.3 38.2 107.1 38.2 106.9C38.2 106.2 38.1 105.1 38.1 104C37.9 101.6 37.7 98.6 37.1 95.8C36.6 93.2 35.9 90.7 35.4 88.7C34.9 86.6 34.6 85.3 34.6 84.7C34.5 83.1 34.5 82.7 34.6 81.3C34.7 78.9 35.2 77.1 35.9 75.2C36.5 73.2 37.3 71.1 37.7 68.2C37.9 66.6 38 64.8 38 63.4C38 62.7 38 62 38 61.5C38 61.3 38 61.1 38 60.9C38 60.8 38 60.8 38 60.7C38 60.7 38 60.7 38 60.6C38 60.1 37.9 59.7 37.7 59.4V35.4C37.9 35 38 34.6 38 34.2C38 33.7 37.9 31 37.5 29C36.7 25.4 35.3 23.4 33.6 20.7C32.3 18.5 30.2 16.1 28.5 14.2C27.8 13.4 27.1 12.7 26.6 12.2H27.3V10.2V9.3V7.5L26.4 7.4V6.6V4.6H26.1V4.1V3.6V3.1V2.1V1.1H25.7V0H23.7H23.6H14.4H12.4V0.6H11.9V1.6V2.6V2.7V3V3.6V4.2V4.5V4.7V5V5.4V6.2V6.5V7.1H11V9.1V10V12H12C11.5 12.6 10.8 13.3 10 14.2C8.4 16 6.4 18.5 5.1 20.6C3.5 23.3 1.7 26.1 1.2 29C1 30.3 0.8 31.4 0.8 32.2C0.5 32.7 0.5 33.1 0.5 33.5C0.5 33.8 0.5 34.2 0.6 34.7C0.6 34.8 0.7 35 0.8 35.1C0.8 36.7 0.9 42.2 0.9 47.6C0.9 50.7 1 53.9 1 56.2C1 57.4 1 58.3 1 59C1 59.2 1 59.3 1 59.5C0.9 59.6 0.9 59.8 0.8 59.9C0.7 60.2 0.7 60.5 0.7 60.5C0.7 60.6 0.7 60.8 0.7 60.9C0.7 61.1 0.7 61.5 0.7 61.8C0.7 62.5 0.7 63.3 0.8 64.2C0.8 65.1 0.9 65.9 0.9 66.7C1 67.4 1 68.1 1.1 68.5C1.2 69 2 71.8 2.8 74.6C3.2 76 3.6 77.5 3.9 78.8C4.2 80.1 4.4 81.1 4.4 81.6C4.5 82.7 4.5 83.5 4.5 84C4.5 84.2 4.5 84.4 4.5 84.4V84.5V84.7V84.8C4.5 84.9 4.5 85 4.5 85.2C4.5 85.6 4.4 86.1 4.3 86.7C4.1 87.9 3.9 89.2 3.6 90.2C3.2 91.5 2.7 93.7 2.4 95.4C2.2 96.3 2.1 97.1 2 97.7C2 98 1.9 98.2 1.9 98.4C1.9 98.5 1.9 98.5 1.9 98.6C1.9 98.6 1.9 98.6 1.9 98.7C1.9 98.7 1.9 98.7 2.6 98.8L1.9 98.7V98.8V98.9L3.9 99L1.9 98.9L1 108C0.9 108.3 0.8 108.7 0.8 109C0.8 109.3 0.9 110.3 1 111.3C1 111.9 1.1 112.5 1.1 113.1C1.1 113.7 1.2 114.3 1.2 114.9C1.3 116.6 2 118.5 2.7 120C3.1 120.8 3.5 121.5 4 122.1C4.4 122.6 5 123.4 5.8 123.7C6.5 124 7.1 124.1 7.7 124.1C8.1 124.6 8.7 125.1 9.5 125.4C10.3 125.7 11.2 125.8 12.1 125.9C13 126 13.9 126 14.7 125.9C15.9 125.8 16.8 125.2 17.3 124.8C17.6 124.6 17.8 124.4 18 124.2C18.1 124.1 18.2 124.1 18.2 124C18.2 124 18.2 124 18.3 123.9C18.3 123.9 18.3 123.9 16.8 122.6C17.1 122.8 17.4 123 17.6 123.2L16.8 122.6L18.3 123.9L18.4 123.8L18.5 123.7C18.5 123.7 18.5 123.7 18.6 123.6C18.6 123.5 18.7 123.4 18.8 123.3C19 123.1 19.2 122.8 19.4 122.5C19.6 122.2 19.8 122 20 121.8C20.3 122.1 20.7 122.5 21.1 122.9C21.5 123.3 21.9 123.7 22.3 124.1C22.7 124.5 23.1 124.9 23.5 125.1C24.1 125.5 24.8 125.6 25.3 125.7C25.9 125.8 26.5 125.8 27 125.8C27.6 125.8 28.1 125.7 28.6 125.6C29 125.5 29.6 125.4 30 125.2C30.5 125 30.9 124.6 31.1 124.4C31.3 124.2 31.5 123.9 31.7 123.7C32.1 123.7 32.6 123.6 33.1 123.4C33.9 123.1 34.4 122.5 34.7 122.1C35 121.6 35.3 121.1 35.6 120.6C36.1 119.6 36.5 118.5 36.8 117.6C37.5 115.9 37.9 113.8 38.1 112.2C38.3 110.6 38.4 109.2 38.4 108.8C38.5 108.4 38.4 107.9 38.2 107.5ZM34.5 108.2C34.6 108.2 34.6 108.2 34.7 108.2H34.5ZM14.9 13.1C14.7 12.9 14.5 12.7 14.2 12.5L14.9 13.1ZM1.7 36C1.7 36 1.8 36.1 1.7 36C1.7 36.1 1.7 36.1 1.7 36ZM3.7 32.6C3.7 32.5 3.7 32.6 3.7 32.6V32.6ZM18.1 123.6C18.2 123.7 18.3 123.7 18.3 123.7L18.1 123.6ZM29.9 121L30.9 121.7C30.5 121.4 30.1 121.2 29.9 121ZM32.1 119.1C31.9 119.4 31.8 119.7 31.7 119.8L30.2 119L29.2 120.6L29.1 120.7C29 120.8 28.9 121 28.8 121.2C28.7 121.4 28.5 121.5 28.4 121.7C28.4 121.7 28.4 121.7 28.3 121.8C28.2 121.8 28.2 121.8 28 121.9C27.7 122 27.3 122 26.9 122C26.5 122 26.2 122 25.9 122C25.7 122 25.7 122 25.6 121.9C25.5 121.8 25.3 121.7 25 121.3C24.7 121 24.3 120.6 23.9 120.2C23.5 119.8 23.1 119.4 22.8 119.1C22.6 118.9 22.5 118.8 22.4 118.7C22.3 118.6 22.1 118.4 21.9 118.3C20.7 117.5 19.3 117.7 18.4 118.2C18.1 118.4 17.8 118.6 17.7 118.7C17.5 118.8 17.4 119 17.2 119.2C16.9 119.5 16.6 119.9 16.3 120.2C16 120.5 15.8 120.9 15.6 121.1C15.5 121.2 15.4 121.3 15.4 121.4C15.3 121.5 15.2 121.6 15.1 121.7C14.8 121.9 14.6 122 14.4 122C13.9 122.1 13.2 122.1 12.5 122C11.8 121.9 11.2 121.8 10.9 121.7C10.9 121.7 10.8 121.7 10.8 121.5C10.8 121.4 10.7 121.4 10.7 121.3L9.8 118.7L7.8 120.2C7.8 120.2 7.7 120.2 7.6 120.2C7.6 120.2 7.5 120.1 7.3 119.8C7 119.4 6.7 118.9 6.4 118.3C5.8 117 5.4 115.6 5.3 114.6C5.3 114 5.2 113.4 5.2 112.8C5.2 112.2 5.1 111.6 5.1 111C5.1 110.5 5 110 5 109.6C5 109.5 5 109.4 5 109.4L5.1 109.3L5.2 108.6L3.2 108.5L5.2 108.6L5.9 99.2C5.9 99.2 5.9 99.1 5.9 99C5.9 98.8 6 98.6 6 98.3C6.1 97.7 6.2 96.9 6.4 96.1C6.7 94.3 7.1 92.5 7.5 91.5C8 90.2 8.2 88.5 8.4 87.3C8.5 86.7 8.6 86.1 8.6 85.7C8.6 85.5 8.6 85.3 8.6 85.2V85.1C8.6 85.1 8.6 85 8.6 84.9C8.6 84.7 8.6 84.5 8.7 84.1C8.7 83.4 8.7 82.5 8.6 81.1C8.5 80.3 8.3 79 8 77.7C7.7 76.4 7.3 74.8 6.9 73.4C6.1 70.4 5.4 67.9 5.3 67.5C5.3 67.5 5.3 67.4 5.3 67.2C5.3 67 5.2 66.7 5.2 66.3C5.1 65.6 5.1 64.8 5.1 64C5.1 63.2 5 62.4 5 61.8C5 61.7 5 61.6 5 61.5L5.3 61.3V60.1H4.3C5.2 60.1 5.3 60.1 5.3 60.1C5.3 60.1 5.3 60.1 5.3 60C5.3 60 5.3 59.9 5.3 59.8C5.3 59.6 5.3 59.4 5.3 59C5.3 58.3 5.3 57.3 5.3 56.2C5.3 53.9 5.3 50.7 5.2 47.6C4.9 41.3 4.8 35 4.8 34.7C4.8 34.6 4.8 34.5 4.8 34.3C4.8 34.2 4.8 34 4.7 33.8C4.7 33.7 4.6 33.5 4.5 33.3C4.5 33.1 4.5 32.9 4.5 32.6C4.6 32 4.7 31 4.9 29.8C5.2 27.8 6.5 25.8 8.3 22.8C9.4 21 11.2 18.7 12.8 16.9C13.6 16 14.3 15.2 14.8 14.7C15.1 14.4 15.3 14.2 15.4 14.1C15.5 14 15.5 14 15.6 13.9L16.2 13.3V12.5V11.2V10.1V9.2V8.6V8.1V7.4V6.8V6.6V5.6V5.5V5.4V4.8V4.6V4.3V4H21.4L21.5 5V6.1H21.6L21.7 6.7V7.4V9.2V11H21.8V12.4V13.2L22.4 13.8C22.4 13.8 22.5 13.9 22.6 14C22.7 14.1 23 14.4 23.2 14.6C23.7 15.1 24.5 15.9 25.3 16.8C26.9 18.6 28.8 20.8 29.9 22.7C31.7 25.6 32.7 27 33.3 29.8C33.5 30.8 33.6 32.1 33.7 33L33.5 33.1V34.7V60.1V61.1L33.8 61.3C33.8 62.6 33.8 65.5 33.5 67.7C33.2 70.1 32.5 71.9 31.9 74C31.2 76 30.5 78.3 30.4 81.2C30.3 82.6 30.3 83.2 30.4 84.9C30.4 86 30.9 87.8 31.4 89.7C31.9 91.7 32.5 94.1 33 96.6C33.5 99.1 33.8 101.9 33.9 104.2C34 105.3 34 106.3 34 107C34 107.3 34 107.6 34 107.8C34 107.9 34 108 34 108C34 108 34 108 34 108.1V109.3L34.2 109.4C34.2 109.9 34.1 110.8 34 111.7C33.8 113.2 33.5 114.9 33 116.2C32.8 117.4 32.5 118.3 32.1 119.1Z" fill="url(#paint0_linear_1196_4374)"/>
<path fill-rule="evenodd" clip-rule="evenodd" d="M26.4997 73.1L26.0997 73L26.2997 72.7C27.0997 71.6 27.4997 69.8001 27.0997 69.3001C26.7997 69.0001 26.4997 68.8 25.4997 68.6C25.3997 68.6 25.3997 68.6 25.6997 68.2C26.5997 67.2 27.1997 66.1 27.2997 64.9001C27.2997 64.5001 27.2997 64.4 27.1997 64.1C27.0997 63.9 26.9997 63.8 26.6997 63.7C25.4997 63.2 23.5997 63.3 22.0997 64C21.8997 64.1 21.6997 64.2 21.6997 64.2C21.6997 64.2 21.7997 64 21.8997 63.8C22.5997 62.4 22.6997 60.5 22.0997 58.8C21.7997 57.9 21.0997 56.9001 20.3997 56.4001C19.7997 55.9001 19.4997 55.9 18.9997 56.1C18.5997 56.3 17.7997 57.1 17.4997 57.6C17.1997 58.1 16.8997 58.8 16.6997 59.5C16.5997 59.9 16.4997 60.2 16.4997 61C16.4997 62.3 16.6997 63.1 17.1997 63.9001C17.2997 64.1 17.3997 64.2 17.3997 64.2C17.3997 64.2 17.0997 64.1 16.6997 63.9001C15.7997 63.5001 15.1997 63.3 14.1997 63.3C12.9997 63.2 11.9997 63.5 11.6997 64C11.4997 64.2 11.4997 64.3 11.4997 64.7C11.4997 65.9 12.0997 67.2 13.0997 68.2C13.3997 68.5 13.3997 68.5 13.1997 68.5C11.8997 68.7 11.5997 68.9001 11.4997 69.4001C11.2997 70.1 11.6997 71.6 12.3997 72.6C12.4997 72.8 12.5997 72.9 12.5997 73C12.5997 73 12.4997 73.1 12.2997 73.1C11.8997 73.2 11.5997 73.4 11.4997 73.7C11.4997 74 11.4997 74.1 11.4997 74.5C11.5997 75.8 12.1997 76.9 13.2997 78C14.5997 79.2001 16.1997 79.9 17.7997 80H18.4997V83.2C18.4997 86.7 18.4997 86.6001 18.8997 86.9001C19.0997 87.0001 19.1997 87 19.4997 87C19.8997 87 20.0997 86.9 20.2997 86.6C20.3997 86.4 20.3997 86.4 20.3997 83.2V80H21.0997C24.1997 79.9 27.1997 77.3 27.4997 74.6C27.4997 74.2 27.4997 74.1001 27.3997 73.8001C27.1997 73.4001 27.0997 73.3 26.4997 73.1ZM22.2997 66C23.1997 65.4 23.8997 65.2 24.7997 65.2H25.2997V65.4001C25.2997 65.5001 25.0997 65.8 24.9997 66.1C24.7997 66.5 24.5997 66.7 24.1997 67.2C23.2997 68.1 22.1997 68.6 20.9997 68.7H20.4997V68.4001C20.4997 67.6 21.2997 66.6 22.2997 66ZM14.8997 65.2C15.6997 65.4 16.5997 65.8001 17.0997 66.3001C17.7997 66.9001 18.4997 67.9001 18.4997 68.3001C18.4997 68.4001 18.4997 68.4001 17.8997 68.4001C16.7997 68.3 15.5997 67.8 14.6997 66.9001C14.1997 66.4001 13.7997 65.9001 13.5997 65.4001C13.4997 65.3 13.4997 65.2 13.4997 65.2C13.4997 65.1 14.4997 65.2 14.8997 65.2ZM13.4997 70.3001H14.1997C14.6997 70.3001 14.9997 70.4 15.2997 70.5C16.2997 70.8 17.2997 71.5001 17.8997 72.3001C18.1997 72.7001 18.4997 73.3 18.4997 73.5C18.4997 73.6 18.4997 73.6 17.8997 73.6C16.7997 73.5 15.6997 73.1001 14.7997 72.3001C14.0997 71.7001 13.7997 71.2001 13.4997 70.4001V70.3001ZM17.9997 78.1C16.1997 78.1 14.1997 76.8 13.5997 75.1C13.4997 74.9 13.4997 74.8 13.5997 74.7C13.6997 74.6 14.5997 74.7001 15.0997 74.8001C15.6997 75.0001 16.5997 75.4 16.9997 75.7C17.6997 76.2 18.3997 77.2001 18.4997 77.8001V78H17.9997V78.1ZM19.6997 63.7L19.4997 63.9001L19.2997 63.7C18.9997 63.4 18.6997 62.7 18.5997 62.2C18.3997 61.6 18.3997 60.3 18.5997 59.7C18.6997 59.4 18.7997 59.1001 18.8997 58.9001C19.0997 58.5001 19.3997 58.1 19.4997 58.1C19.4997 58.1 19.5997 58.2001 19.6997 58.4001C20.2997 59.2001 20.4997 59.9 20.4997 61C20.4997 62.1 20.1997 63.1 19.6997 63.7ZM20.4997 73.8001V73.5C20.4997 72.9 21.2997 71.8 22.2997 71.2C23.1997 70.6 23.9997 70.4001 24.7997 70.4001H25.2997V70.6C25.1997 70.9 24.7997 71.6 24.4997 72C23.5997 73 22.2997 73.7001 20.9997 73.8001H20.4997ZM25.3997 75.2C24.8997 76.4 23.7997 77.4001 22.3997 77.9001C21.8997 78.1001 21.6997 78.1 21.1997 78.1H20.4997V77.9001C20.4997 77.8001 20.5997 77.5001 20.6997 77.3001C21.2997 76.1001 22.6997 75.1001 24.1997 74.8001C24.5997 74.7001 25.1997 74.7 25.3997 74.7C25.4997 74.8 25.4997 74.8 25.3997 75.2Z" fill="url(#paint1_linear_1196_4374)"/>
<defs>
<linearGradient id="paint0_linear_1196_4374" x1="39.1055" y1="62.6679" x2="-0.4851" y2="63.3084" gradientUnits="userSpaceOnUse">
<stop stop-color="#1B2AC9"/>
<stop offset="1" stop-color="#0073F0"/>
</linearGradient>
<linearGradient id="paint1_linear_1196_4374" x1="27.7504" y1="71.3663" x2="11.2149" y2="71.6339" gradientUnits="userSpaceOnUse">
<stop stop-color="#1B2AC9"/>
<stop offset="1" stop-color="#0073F0"/>
</linearGradient>
</defs>
</svg>
