<svg width="38" height="116" viewBox="0 0 38 116" fill="none" xmlns="http://www.w3.org/2000/svg">
<path fill-rule="evenodd" clip-rule="evenodd" d="M27.0681 63.5543C27.0589 63.5841 27.0413 63.8136 27.0288 64.0642C26.9609 65.4269 26.4617 66.7973 25.6454 67.8621C24.7759 68.9962 23.5781 69.6966 22.3041 69.8159L21.9708 69.8471V70.2326V70.6182H22.2026C22.33 70.6182 22.5946 70.5875 22.7906 70.55C23.7298 70.3701 24.5679 69.9717 25.2728 69.37C25.3981 69.2631 25.5064 69.1828 25.5135 69.1916C25.5206 69.2004 25.5487 69.3483 25.5761 69.5203C25.7888 70.8611 26.6536 72.188 27.814 72.9544C28.6131 73.4822 29.4139 73.7376 30.3873 73.775L31 73.7986L30.9997 73.4346C30.9981 71.1417 29.4819 69.1022 27.3056 68.4656C27.103 68.4063 26.8141 68.3402 26.6637 68.3187C26.5133 68.2972 26.3817 68.2709 26.3711 68.2603C26.3606 68.2497 26.4586 68.0757 26.589 67.8739C27.2845 66.7967 27.7023 65.5371 27.8167 64.1728C27.8407 63.8863 27.8606 63.6177 27.8609 63.576C27.8612 63.5092 27.8143 63.5 27.473 63.5C27.1998 63.5 27.0798 63.5161 27.0681 63.5543ZM13.9091 67.8698C13.4356 67.9266 13.0502 68.1144 12.717 68.4508C12.3994 68.7714 12.2168 69.1518 12.1583 69.6141C12.1054 70.0326 12.1591 70.329 12.3623 70.7381C12.5698 71.156 12.8546 71.4249 13.1795 71.5096C13.3207 71.5463 13.5605 71.6348 13.7124 71.7062C13.9597 71.8225 14.0161 71.833 14.2499 71.8066C15.3018 71.6879 16.0442 70.873 16.0442 69.8369C16.0442 68.8107 15.2828 67.967 14.2745 67.8757C14.1445 67.864 13.98 67.8613 13.9091 67.8698ZM18.1012 67.8843C17.595 67.9725 17.1097 68.2773 16.8372 68.6784L16.684 68.9037L16.754 69.1642C16.8452 69.5033 16.8457 70.1683 16.755 70.5075C16.6886 70.756 16.6893 70.7712 16.7731 70.9082C16.8361 71.011 16.9101 71.0634 17.04 71.0971C17.4194 71.1957 17.6224 71.2767 17.8459 71.4189C18.0853 71.5713 18.1442 71.5774 18.1442 71.4499C18.1442 71.3172 18.44 70.7477 18.6473 70.4813C18.9922 70.0381 19.6067 69.6406 20.1179 69.5299C20.3398 69.4819 20.3418 69.4801 20.3141 69.3445C20.2146 68.8569 19.7811 68.3218 19.2898 68.0801C19.1208 67.997 18.8568 67.9092 18.7031 67.885C18.3935 67.8363 18.3768 67.8362 18.1012 67.8843ZM20.423 70.2764C19.9083 70.3607 19.3392 70.7709 19.075 71.2481C18.8832 71.5945 18.8202 71.8845 18.8404 72.328C18.8612 72.7832 18.9935 73.1383 19.2663 73.4716C19.4808 73.7336 19.6354 73.8294 19.8443 73.8297C20.0686 73.8301 20.4678 73.9355 20.766 74.0729C21.0502 74.204 21.2141 74.1886 21.6269 73.9919C22.4899 73.5806 22.9264 72.5578 22.6406 71.6165C22.4363 70.9437 21.793 70.387 21.0846 70.2699C20.7971 70.2224 20.7503 70.2228 20.423 70.2764ZM16.0347 71.8747C15.9741 71.8932 15.829 71.9825 15.7122 72.0731C15.5955 72.1637 15.3838 72.2926 15.242 72.3596C15.1001 72.4266 14.9509 72.5287 14.9104 72.5865C14.8393 72.6882 14.8417 72.7013 14.9841 72.987C15.1726 73.3653 15.2635 73.7727 15.2635 74.2401V74.6113H15.6435C16.3036 74.6113 16.9133 74.8243 17.3888 75.2209C17.502 75.3153 17.6099 75.3926 17.6286 75.3926C17.6872 75.3926 18.1014 74.9112 18.1845 74.7466C18.4222 74.2755 18.4673 73.74 18.2979 73.4023C18.2405 73.288 18.1617 73.0689 18.1228 72.9155C18.0094 72.4684 17.6007 72.0974 17.0209 71.9153C16.7533 71.8311 16.2451 71.8103 16.0347 71.8747ZM12.0173 72.303C11.5239 72.4427 11.1472 72.7202 10.876 73.1437C10.4402 73.8245 10.4854 74.7926 10.9817 75.4075C11.3678 75.8858 11.8165 76.1235 12.4065 76.1622C13.4165 76.2286 14.297 75.5125 14.4536 74.4975C14.6689 73.1015 13.3602 71.9228 12.0173 72.303ZM23.2703 73.3635C23.1787 73.5604 23.003 73.8436 22.8797 73.9928C22.6467 74.2749 22.1508 74.6582 21.9006 74.7495C21.821 74.7786 21.7559 74.816 21.7559 74.8327C21.7559 74.8494 21.8214 74.9613 21.9015 75.0814C22.0565 75.314 22.2492 75.7884 22.2951 76.0502L22.3228 76.2087L22.7165 76.2057C22.933 76.2041 23.2166 76.228 23.3467 76.2589C23.5835 76.315 24.0834 76.5349 24.301 76.6787C24.4048 76.7473 24.4295 76.7487 24.5375 76.6924C24.7379 76.588 25.1353 76.1618 25.2554 75.9227C25.5036 75.4283 25.5553 74.9429 25.4104 74.4692C25.29 74.0756 25.1456 73.8337 24.8799 73.58C24.6152 73.3273 24.3303 73.1703 23.9609 73.0737C23.4772 72.9471 23.4607 72.954 23.2703 73.3635ZM19.1859 74.6421C19.1149 74.6558 19.0465 74.7461 18.9358 74.9723C18.7561 75.3393 18.4989 75.6875 18.2588 75.8889L18.0863 76.0335L18.1793 76.2517C18.3369 76.6215 18.4022 76.9547 18.4022 77.3888V77.8043L18.6994 77.7874C19.2227 77.7575 19.8071 77.9166 20.292 78.2208L20.5023 78.3528L20.6945 78.2194C21.069 77.9592 21.3823 77.5185 21.4962 77.0918C21.5638 76.8381 21.5557 76.2839 21.4807 76.0385C21.3385 75.5733 20.9873 75.1105 20.6048 74.8842C20.2189 74.6559 19.6315 74.5557 19.1859 74.6421ZM15.1988 75.4621C14.9661 75.5179 14.9287 75.5431 14.8199 75.7167C14.6594 75.9728 14.295 76.3424 14.0465 76.5011C13.7238 76.7072 13.6721 76.9832 13.9019 77.2733C14.2125 77.6655 14.4188 78.1809 14.471 78.6953L14.4998 78.9793L14.8924 78.9805C15.3087 78.9819 15.7105 79.0659 15.9907 79.2102C16.2233 79.33 16.3777 79.2715 16.5518 78.9975C16.7015 78.762 17.1009 78.3653 17.331 78.2237C17.5067 78.1154 17.5827 77.9226 17.6172 77.4967C17.6608 76.9596 17.4467 76.3907 17.0505 75.9907C16.7641 75.7017 16.4688 75.537 16.0924 75.4564C15.7362 75.3802 15.5349 75.3815 15.1988 75.4621ZM11.1988 77.0624C10.3477 77.334 9.79686 78.0704 9.7892 78.9468C9.78632 79.2792 9.87558 79.6821 9.98574 79.8341C10.0403 79.9093 10.0572 79.9099 10.3056 79.8449C10.9379 79.6795 11.8031 79.8099 12.3496 80.1531C12.5176 80.2585 12.5977 80.2791 12.5977 80.2167C12.5977 80.1309 13.1407 79.5906 13.3915 79.4269C13.693 79.2301 13.7319 79.1465 13.6893 78.7882C13.5893 77.948 13.0566 77.3047 12.258 77.0601C12.0161 76.9859 11.4344 76.9873 11.1988 77.0624ZM22.3287 77.0528C22.3069 77.0826 22.2656 77.2047 22.2369 77.324C22.1408 77.7228 21.8847 78.1688 21.5624 78.4985C21.3968 78.6679 21.2166 78.8342 21.1618 78.8682L21.0622 78.93L21.2399 79.2834C21.43 79.6617 21.5369 80.0338 21.5393 80.3266C21.5411 80.5328 21.6313 80.6281 21.9662 80.7777C23.1202 81.2929 24.4979 80.5133 24.6752 79.2447C24.8135 78.2547 24.2339 77.3569 23.265 77.0601C23.0127 76.9827 22.3834 76.9778 22.3287 77.0528ZM18.4241 78.6098C18.0988 78.6758 17.7137 78.8802 17.4701 79.116C17.2448 79.334 16.9844 79.7398 16.9837 79.8739C16.9835 79.9156 17.0508 80.0446 17.1333 80.1605C17.4602 80.6199 17.6262 81.1701 17.6275 81.7994L17.6282 82.1514L17.8755 82.2837C18.2087 82.462 18.4333 82.5165 18.825 82.5139C19.3619 82.5105 19.7655 82.347 20.1552 81.9749C20.8052 81.3544 20.9499 80.439 20.5303 79.6025C20.3333 79.2098 19.841 78.8019 19.4038 78.6691C19.1263 78.5847 18.6803 78.5578 18.4241 78.6098ZM14.3871 79.8246C13.9778 79.9216 13.4111 80.3479 13.2231 80.7001L13.1407 80.8546L13.2536 81.0268C13.5938 81.5457 13.7493 82.2479 13.6668 82.8934C13.614 83.3073 13.6029 83.288 14.0195 83.5068C14.765 83.8983 15.6984 83.7298 16.2916 83.0967C17.2975 82.023 16.8274 80.2628 15.4225 79.8416C15.1854 79.7705 14.6523 79.7617 14.3871 79.8246ZM10.4524 80.6263C9.7125 80.8271 9.1477 81.4619 9.02516 82.2302C8.82717 83.472 9.82459 84.5775 11.0691 84.4957C11.6591 84.457 12.1078 84.2193 12.4939 83.741C12.9902 83.126 13.0354 82.158 12.5996 81.4772C12.1383 80.7569 11.2574 80.4078 10.4524 80.6263Z" fill="url(#paint0_linear_1630_4814)"/>
<path d="M12.0658 3.61123C12.5601 3.03826 13.6316 2.5 13.6316 2.5H25C25 2.5 26.209 2.89769 26.5 3.5C26.7982 4.11735 26.5 6.8832 26.5 7.37709L25.5 7.99444V35.6518C25.5 35.6518 28.4607 35.9605 32.6447 40.9611C35.6923 44.6034 36 46.6407 36 46.6407V108.746C36 108.746 35.1351 110.815 33.9868 111.771C32.7747 112.781 30.6316 113.5 30.6316 113.5H7.14474C7.14474 113.5 4.82892 112.716 3.78947 111.771C2.71939 110.799 2 108.746 2 108.746V46.6407C2 46.6407 2.34068 44.5417 5.57895 40.9611C9.8222 36.2692 12.8114 35.6518 12.8114 35.6518V7.99444C12.8114 7.99444 12.1269 7.71427 12.0658 7.37709C11.8421 6.14238 11.693 4.04338 12.0658 3.61123Z" stroke="url(#paint1_linear_1630_4814)" stroke-width="4"/>
<defs>
<linearGradient id="paint0_linear_1630_4814" x1="31.3354" y1="78.1339" x2="8.44329" y2="77.3821" gradientUnits="userSpaceOnUse">
<stop stop-color="#1B2AC9"/>
<stop offset="1" stop-color="#0073F0"/>
</linearGradient>
<linearGradient id="paint1_linear_1630_4814" x1="36.5183" y1="79.8508" x2="1.10473" y2="79.5107" gradientUnits="userSpaceOnUse">
<stop stop-color="#1B2AC9"/>
<stop offset="1" stop-color="#0073F0"/>
</linearGradient>
</defs>
</svg>
