<svg width="39" height="116" viewBox="0 0 39 116" fill="none" xmlns="http://www.w3.org/2000/svg">
<path d="M12.8999 76.2C13.8999 76.3 14.7999 75.6 14.8999 74.5C15.0999 73.1 13.7999 71.9 12.4999 72.3C11.9999 72.4 11.5999 72.7 11.3999 73.1C10.9999 73.8 10.9999 74.7 11.4999 75.4C11.8999 75.9 12.2999 76.1 12.8999 76.2Z" fill="white"/>
<path d="M11.0002 80.6C10.2002 80.8 9.60022 81.5 9.50022 82.2C9.30022 83.4 10.3002 84.5 11.5002 84.5C12.1002 84.5 12.5002 84.2 12.9002 83.7C13.4002 83.1 13.4002 82.1 13.0002 81.4C12.6002 80.8 11.8002 80.4 11.0002 80.6Z" fill="white"/>
<path d="M13.7002 71.5C13.8002 71.5 14.1002 71.6 14.2002 71.7C14.4002 71.8 14.5002 71.8 14.7002 71.8C15.8002 71.7 16.5002 70.9 16.5002 69.8C16.5002 68.8 15.7002 67.9 14.7002 67.8C14.6002 67.8 14.4002 67.8 14.3002 67.8C13.8002 67.9 13.4002 68 13.1002 68.4C12.8002 68.7 12.6002 69.1 12.5002 69.6C12.4002 70 12.5002 70.3 12.7002 70.7C13.1002 71.2 13.4002 71.4 13.7002 71.5Z" fill="white"/>
<path d="M19.6001 71.2C19.4001 71.5 19.3001 71.8 19.4001 72.3C19.4001 72.8 19.6001 73.1 19.8001 73.4C20.0001 73.7 20.2001 73.8 20.4001 73.8C20.6001 73.8 21.0001 73.9 21.3001 74C21.6001 74.1 21.7001 74.1 22.2001 73.9C23.1001 73.5 23.5001 72.5 23.2001 71.5C23.0001 70.8 22.4001 70.3 21.6001 70.2C21.3001 70.2 21.3001 70.2 20.9001 70.2C20.4001 70.4 19.8001 70.8 19.6001 71.2Z" fill="white"/>
<path d="M16.2002 72.1C16.1002 72.2 15.9002 72.3 15.7002 72.4C15.6002 72.5 15.4002 72.6 15.4002 72.6C15.3002 72.7 15.3002 72.7 15.5002 73C15.7002 73.4 15.8002 73.8 15.8002 74.3V74.7H16.2002C16.9002 74.7 17.5002 74.9 17.9002 75.3C18.0002 75.4 18.1002 75.5 18.1002 75.5C18.2002 75.5 18.6002 75 18.7002 74.9C18.9002 74.4 19.0002 73.9 18.8002 73.6C18.7002 73.5 18.7002 73.3 18.6002 73.1C18.5002 72.7 18.1002 72.3 17.5002 72.1C17.2002 72 16.7002 72 16.5002 72.1C16.5002 71.9 16.3002 72 16.2002 72.1Z" fill="white"/>
<path d="M17.3002 70.5C17.2002 70.7 17.2002 70.8 17.3002 70.9C17.4002 71 17.4002 71.1 17.6002 71.1C18.0002 71.2 18.2002 71.3 18.4002 71.4C18.6002 71.6 18.7002 71.6 18.7002 71.4C18.7002 71.3 19.0002 70.7 19.2002 70.4C19.5002 70 20.2002 69.6 20.7002 69.4C20.9002 69.4 20.9002 69.4 20.9002 69.2C20.8002 68.7 20.4002 68.2 19.9002 67.9C19.7002 67.8 19.5002 67.7 19.3002 67.7C19.0002 67.7 19.0002 67.7 18.7002 67.7C18.2002 67.8 17.7002 68.1 17.4002 68.5L17.2002 68.7L17.3002 69C17.3002 69.5 17.3002 70.2 17.3002 70.5Z" fill="white"/>
<path d="M14.1998 78.8C14.0998 78 13.5998 77.3 12.7998 77.1C12.5998 77 11.9998 77 11.6998 77.1C10.7998 77.4 10.2998 78.1 10.2998 79C10.2998 79.3 10.3998 79.7 10.4998 79.9C10.5998 80 10.5998 80 10.7998 79.9C11.3998 79.7 12.2998 79.9 12.7998 80.2C12.9998 80.3 12.9998 80.3 12.9998 80.3C12.9998 80.2 13.4998 79.7 13.7998 79.5C14.1998 79.2 14.1998 79.1 14.1998 78.8Z" fill="white"/>
<path d="M25.3998 73.6C25.0998 73.3 24.8998 73.2 24.4998 73.1C23.9998 73 23.9998 73 23.7998 73.4C23.6998 73.6 23.4998 73.9 23.3998 74C23.1998 74.3 22.6998 74.7 22.3998 74.8C22.2998 74.8 22.2998 74.9 22.2998 74.9C22.2998 74.9 22.3998 75 22.3998 75.1C22.5998 75.3 22.6998 75.8 22.7998 76.1V76.3H23.1998C23.3998 76.3 23.6998 76.3 23.7998 76.4C23.9998 76.5 24.4998 76.7 24.7998 76.8C24.8998 76.9 24.8998 76.9 24.9998 76.8C25.1998 76.7 25.5998 76.3 25.6998 76C25.8998 75.5 25.9998 75 25.8998 74.5C25.7998 74.1 25.5998 73.8 25.3998 73.6Z" fill="white"/>
<path d="M23.8001 77.1C23.5001 77 22.9001 77 22.9001 77.1C22.9001 77.1 22.8001 77.3 22.8001 77.4C22.7001 77.8 22.4001 78.2 22.1001 78.6C21.9001 78.8 21.8001 78.9 21.7001 79L21.6001 79.1L21.8001 79.5C22.0001 79.9 22.1001 80.3 22.1001 80.5C22.1001 80.7 22.2001 80.8 22.5001 81C23.7001 81.5 25.0001 80.7 25.2001 79.5C25.3001 78.3 24.7001 77.4 23.8001 77.1Z" fill="white"/>
<path d="M27.8 68.5C27.6 68.4 27.3 68.4 27.2 68.4C27 68.4 26.9 68.4 26.9 68.3C26.9 68.3 27 68.1 27.1 67.9C27.8 66.8 28.2 65.6 28.3 64.2C28.3 63.9 28.3 63.6 28.3 63.6C28.3 63.5 28.3 63.5 27.9 63.5C27.6 63.5 27.5 63.5 27.5 63.6C27.5 63.6 27.5 63.9 27.5 64.1C27.4 65.5 26.9 66.8 26.1 67.9C25.2 69 24 69.7 22.8 69.9H22.5V70.3V70.7H22.7C22.8 70.7 23.1 70.7 23.3 70.6C24.2 70.4 25.1 70 25.8 69.4C25.9 69.3 26 69.2 26 69.2C26 69.2 26 69.4 26.1 69.5C26.3 70.8 27.2 72.2 28.3 72.9C29.1 73.4 29.9 73.7 30.9 73.7H31.5V73.3C31.5 71.1 30 69.1 27.8 68.5Z" fill="white"/>
<path d="M22 76C21.9 75.5 21.5 75.1 21.1 74.8C20.7 74.6 20.1 74.5 19.7 74.6C19.6 74.6 19.6 74.7 19.4 74.9C19.2 75.3 19 75.6 18.7 75.8L18.5 75.9L18.6 76.1C18.8 76.5 18.8 76.8 18.8 77.2V77.6H19.1C19.6 77.6 20.2 77.7 20.7 78L20.9 78.1L21.1 78C21.5 77.7 21.8 77.3 21.9 76.9C22.1 76.8 22.1 76.3 22 76Z" fill="white"/>
<path d="M15.9001 79.8C15.7001 79.7 15.1001 79.7 14.9001 79.8C14.5001 79.9 13.9001 80.3 13.7001 80.7L13.6001 80.9L13.7001 81.1C14.0001 81.6 14.2001 82.3 14.1001 83C14.0001 83.4 14.0001 83.4 14.5001 83.6C15.2001 84 16.2001 83.8 16.8001 83.2C17.8001 82 17.3001 80.3 15.9001 79.8Z" fill="white"/>
<path d="M18.0999 77.5C18.0999 77 17.8999 76.4 17.4999 76C17.1999 75.7 16.8999 75.5 16.4999 75.5C16.0999 75.4 15.8999 75.4 15.5999 75.5C15.4999 75.5 15.3999 75.5 15.2999 75.7C15.0999 76 14.7999 76.3 14.4999 76.5C14.1999 76.7 14.0999 77.0001 14.3999 77.3001C14.6999 77.7001 14.8999 78.2 14.9999 78.7V79H15.3999C15.7999 79 16.1999 79.1 16.4999 79.2C16.6999 79.3 16.8999 79.3 17.0999 79C17.1999 78.8 17.5999 78.4 17.8999 78.2C17.9999 78.1 18.0999 77.9 18.0999 77.5Z" fill="white"/>
<path d="M19.8999 78.7C19.5999 78.6 19.1999 78.6 18.8999 78.6C18.5999 78.7 18.1999 78.9 17.8999 79.1C17.6999 79.3 17.3999 79.7 17.3999 79.9C17.3999 79.9 17.4999 80.1 17.4999 80.2C17.7999 80.7 17.9999 81.2 17.9999 81.8V82.2L18.1999 82.3C18.4999 82.5 18.7999 82.5 19.0999 82.5C19.5999 82.5 19.9999 82.3 20.3999 82C20.9999 81.4 21.1999 80.5 20.7999 79.6C20.7999 79.2 20.2999 78.8 19.8999 78.7Z" fill="white"/>
<path d="M38.5 46.3C38.4 45.9 37.9 43.5 34.7 39.6C31.9 36.3 29.6 34.8 28 34.1V9.1L29 8.5V7.4C29 7.3 29 7.1 29 6.8C29.2 4.6 29.2 3.4 28.8 2.6C28.2 1.4 26.7 0.8 26.1 0.6L25.8 0.5H13.7L13.3 0.7C13 0.9 11.8 1.5 11.1 2.3C10.1 3.4 10.3 5.9 10.6 7.7C10.7 8.3 11 8.7 11.3 9V34.2C9.8 34.9 7.4 36.4 4.6 39.5C1.1 43.3 0.6 45.8 0.5 46.2V109L0.6 109.3C0.7 109.7 1.6 111.9 2.9 113.1C4.2 114.3 6.5 115.1 7 115.2L7.3 115.3H31.5L31.8 115.2C32.1 115.1 34.3 114.3 35.8 113.1C37.3 111.9 38.2 109.7 38.4 109.3L38.6 108.9V46.6L38.5 46.3ZM14.1 4.9L12.6 3.6L14.1 4.9ZM34.5 108.3C34.2 108.9 33.7 109.8 33.2 110.2C32.6 110.7 31.5 111.2 30.8 111.5H8C7.2 111.2 6.1 110.7 5.6 110.3C5.2 109.9 4.7 109 4.5 108.4V46.9C4.6 46.5 5.3 44.8 7.6 42.3C11.2 38.3 13.8 37.6 13.8 37.6L15.4 37.3V8V6.6L14.6 6.3C14.5 5.7 14.5 5.1 14.5 4.7C14.4 4.6 14.5 4.6 14.7 4.5H25.2C25.2 5 25.2 5.7 25.1 6.2L24 6.9V35.7L23.9 37.5L25.7 37.7C25.7 37.7 28.1 38.2 31.6 42.3C33.8 44.9 34.4 46.6 34.5 46.9V108.3Z" fill="white"/>
</svg>
