<svg width="69" height="130" viewBox="0 0 69 130" fill="none" xmlns="http://www.w3.org/2000/svg">
<path d="M27.5056 15.8256V2.78261C27.5056 2.78261 31.9764 2 34.1131 2C36.2498 2 40.3162 2.78261 40.3162 2.78261V15.8256C40.3162 15.8256 58.6506 32.4257 62.1764 36.22L62.2882 36.3403C65.7295 40.0429 66.9951 41.4044 66.9951 49.3815C66.9951 57.4445 66.8775 106.415 66.9951 111.039C67.1126 115.663 65.1147 119.339 62.529 122.659C59.9433 125.979 45.1348 127.876 35.8501 127.995C26.5654 128.114 9.69445 126.098 7.17328 123.489C4.65211 120.881 2.23716 116.612 2.2371 111.632V49.3815C2.2371 49.3815 0.709251 43.9272 5.41036 37.7615C10.1115 31.5957 27.5056 15.8256 27.5056 15.8256Z" stroke="url(#paint0_linear_1630_9936)" stroke-width="4" stroke-linejoin="round"/>
<path fill-rule="evenodd" clip-rule="evenodd" d="M27.5033 68.6061C24.5483 72.4165 22.395 76.1753 22.0471 78.1301C21.9536 78.6558 22.0043 79.6679 22.1545 80.2716C22.5718 81.9492 23.7451 83.4347 25.2389 84.1764C25.6621 84.3866 26.5269 84.6903 26.7022 84.6903C26.7686 84.6903 26.7838 84.5711 26.7838 84.0474C26.7838 82.4835 27.3239 80.6775 28.4887 78.3468C29.2348 76.854 30.5002 74.7168 31.3309 73.5469C31.4657 73.3568 31.5761 73.1769 31.5761 73.1468C31.5761 73.0785 30.0404 70.7506 29.5198 70.0299C28.9741 69.2744 28.0152 68 27.9924 68C27.9819 68 27.7618 68.2727 27.5033 68.6061ZM36.9457 70.0158C33.3417 74.5579 30.4945 79.1444 29.586 81.8714C29.2556 82.8631 29.189 83.3023 29.2269 84.2392C29.3086 86.2623 30.1086 88.0646 31.5781 89.5366C32.7724 90.7328 34.2163 91.5052 35.9738 91.8879C36.709 92.048 38.6061 92.034 39.3954 91.8626C42.711 91.1425 45.1643 88.7232 45.8679 85.4797C45.9914 84.9105 46.0425 83.5734 45.9591 83.0943C45.5974 81.017 43.9162 77.7741 41.2131 73.94C39.8933 72.0679 37.7254 69.2405 37.6099 69.2405C37.5829 69.2405 37.284 69.5894 36.9457 70.0158ZM42.5743 81.4058C43.103 81.8807 43.5477 82.7314 43.6961 83.552C43.7439 83.8163 43.6961 84.2956 43.6132 84.6797C43.4361 85.6081 43.2456 86.0981 42.8232 86.7114C42.4775 87.2133 42.1949 87.478 41.6529 87.808C41.1965 88.0858 40.3339 88.3567 39.9226 88.3512C39.5365 88.3462 38.9892 88.2311 38.9784 88.2215C38.9704 88.2144 39.3178 87.8063 39.7834 87.3495C40.3566 86.7872 40.7337 86.363 40.9517 86.0355C41.7641 84.8143 42.1731 83.4302 42.1945 81.8287C42.1996 81.4488 42.2334 81.1379 42.24 81.1379C42.2466 81.1379 42.4103 81.2584 42.5743 81.4058Z" fill="url(#paint1_linear_1630_9936)"/>
<defs>
<linearGradient id="paint0_linear_1630_9936" x1="67.9909" y1="89.8036" x2="0.299913" y2="88.7089" gradientUnits="userSpaceOnUse">
<stop stop-color="#1B2AC9"/>
<stop offset="1" stop-color="#0073F0"/>
</linearGradient>
<linearGradient id="paint1_linear_1630_9936" x1="46.3659" y1="84.7245" x2="21.3903" y2="83.9415" gradientUnits="userSpaceOnUse">
<stop stop-color="#1B2AC9"/>
<stop offset="1" stop-color="#0073F0"/>
</linearGradient>
</defs>
</svg>
